<?xml version="1.0" standalone="no"?>
<!DOCTYPE svg PUBLIC "-//W3C//DTD SVG 1.1//EN" "http://www.w3.org/Graphics/SVG/1.1/DTD/svg11.dtd" >
<svg xmlns="http://www.w3.org/2000/svg" xmlns:xlink="http://www.w3.org/1999/xlink" version="1.1">
<metadata>
Created by FontForge 20200314 at Fri Aug 18 17:44:23 1995
 By Unknown
(C) 1993 Ricoh Company Limited. All rights reserved. under the license agreement with Ryobi Imagics Company Limited.
</metadata>
<defs>
<font id="810-CAI978" horiz-adv-x="256" vert-adv-y="256" >
  <font-face 
    font-family="810-CAI978"
    font-weight="400"
    font-stretch="normal"
    units-per-em="256"
    panose-1="2 11 6 9 7 2 5 8 2 4"
    ascent="220"
    descent="-36"
    x-height="116"
    cap-height="175"
    bbox="-30 -35 255 220"
    underline-thickness="19"
    underline-position="-26"
    unicode-range="U+0020-FFEE"
  />
<missing-glyph 
d="M155 100h-55v55h55v-55z" />
    <glyph glyph-name=".notdef" 
d="M155 100h-55v55h55v-55z" />
    <glyph glyph-name="glyph1" horiz-adv-x="0" vert-adv-y="0" 
 />
    <glyph glyph-name="glyph2" horiz-adv-x="128" 
 />
    <glyph glyph-name="uniFF61" unicode="&#xff61;" horiz-adv-x="128" 
d="M79 11q0 -13 -9.5 -22.5t-22.5 -9.5t-22.5 9.5t-9.5 22.5t9.5 22.5t22.5 9.5t22.5 -9.5t9.5 -22.5zM68 11q0 9 -6 15t-15 6t-15 -6t-6 -15t6 -15t15 -6t15 6t6 15z" />
    <glyph glyph-name="uniFF62" unicode="&#xff62;" horiz-adv-x="128" 
d="M53 30v177h63v-19h-43v-158h-20z" />
    <glyph glyph-name="uniFF63" unicode="&#xff63;" horiz-adv-x="128" 
d="M54 156h20v-177h-63v19h43v158z" />
    <glyph glyph-name="uni30A1" unicode="&#x30a1;" 
d="M114 105l20 -2q4 -1 4 -2.5t-4 -3.5v-19q16 12 27.5 22.5t18.5 19.5l-138 -4l-2 18l151 4l8 3l12 -15q2 -3 1 -4.5t-5 -0.5q-11 -14 -25.5 -28t-31.5 -29l-16 13q1 -29 -12 -52.5t-40 -42.5l-18 15q25 15 37.5 34.5t12.5 43.5v30z" />
    <glyph glyph-name="uni30A2" unicode="&#x30a2;" 
d="M136 102q1 -38 -15 -67.5t-50 -50.5l-17 19q30 16 44.5 38.5t14.5 51.5v43h21q5 -1 5.5 -2.5t-3.5 -4.5v-26q18 13 32 26.5t23 26.5l-163 -6l-2 23l182 5l7 2l15 -18q2 -2 0.5 -3t-5.5 0q-15 -20 -33 -38t-39 -35z" />
    <glyph glyph-name="uni30A3" unicode="&#x30a3;" 
d="M144 -20h-20v93q-11 -9 -27.5 -18.5t-38.5 -20.5l-14 17q48 23 80.5 48t49.5 53l17 -13q3 -3 2 -4.5t-6 -2.5q-8 -11 -19 -21.5t-24 -21.5v-109z" />
    <glyph glyph-name="uni30A4" unicode="&#x30a4;" 
d="M25 73q53 22 92.5 53t66.5 71l19 -16q4 -3 2.5 -5.5t-9.5 -3.5q-9 -13 -21.5 -25.5t-27.5 -25.5v-136h-23v117q-17 -14 -37.5 -26t-44.5 -23z" />
    <glyph glyph-name="uni30A5" unicode="&#x30a5;" 
d="M134 119h63l6 -7q0 -48 -21 -81t-64 -52l-15 15q39 15 59 41.5t21 64.5h-114l2 -46h-20l-2 65h65v42h18q5 -1 5.5 -2.5t-3.5 -4.5v-35z" />
    <glyph glyph-name="uni30A6" unicode="&#x30a6;" 
d="M224 141q0 -55 -26 -95t-79 -66l-19 19q49 22 73.5 55t24.5 77h-139l2 -59h-23l-3 81h79v50h20q6 -1 7 -3t-4 -5v-42h75z" />
    <glyph glyph-name="uni30A7" unicode="&#x30a7;" 
d="M137 108v-79h73v-19h-163v19h70v79h-56v19h132v-19h-56z" />
    <glyph glyph-name="uni30A8" unicode="&#x30a8;" 
d="M228 42v-22h-199v22h87v99h-70v22h162v-22h-69v-99h89z" />
    <glyph glyph-name="uni30A9" unicode="&#x30a9;" 
d="M123 75q-13 -20 -31.5 -38.5t-42.5 -35.5l-17 15q24 15 45 34.5t38 44.5h-77v19h85v46h18q5 -1 5.5 -2.5t-3.5 -4.5v-39h70v-19h-70v-96q0 -9 -4 -13.5t-13 -4.5h-25l-3 19h14q6 0 8.5 2t2.5 7v66z" />
    <glyph glyph-name="uni30AA" unicode="&#x30aa;" 
d="M15 26q32 20 57 44.5t43 53.5h-94v22h106v55h21q5 -1 5.5 -3t-3.5 -5v-47h84v-22h-84v-117q0 -12 -5.5 -18t-17.5 -6h-28l-4 22h20q6 1 9 4t3 9v84q-19 -28 -42 -51.5t-50 -42.5z" />
    <glyph glyph-name="uni30AB" unicode="&#x30ab;" 
d="M185 126l-57 -2q-3 -43 -22.5 -76.5t-56.5 -57.5l-17 17q35 23 53 52t20 65l-71 -2l-2 20l74 2v56h21q6 -1 6.5 -3t-4.5 -5v-48l79 3v-62q0 -25 -2 -42t-7 -27q-4 -10 -13.5 -15t-24.5 -5h-24l-3 25q8 -1 14.5 -1.5t11.5 -0.5q8 0 12.5 2.5t6.5 7.5q3 8 4.5 22t1.5 34v41
z" />
    <glyph glyph-name="uni30AC" unicode="&#x30ac;" 
d="M185 126l-57 -2q-3 -43 -22.5 -76.5t-56.5 -57.5l-17 17q35 23 53 52t20 65l-71 -2l-2 20l74 2v56h21q6 -1 6.5 -3t-4.5 -5v-48l79 3v-62q0 -25 -2 -42t-7 -27q-4 -10 -13.5 -15t-24.5 -5h-24l-3 25q8 -1 14.5 -1.5t11.5 -0.5q8 0 12.5 2.5t6.5 7.5q3 8 4.5 22t1.5 34v41
zM178 194l12 12l15 -15t16 -18l-12 -12q-8 10 -16 18zM206 204l12 12l15 -15t16 -18l-12 -12q-9 10 -16.5 18.5t-14.5 14.5z" />
    <glyph glyph-name="uni30AD" unicode="&#x30ad;" 
d="M241 78l-93 -10l19 -81l-22 -5l-19 83l-102 -12l-3 21l100 11l-10 47l-68 -8l-4 21l66 7l-10 46l21 4q5 0 5.5 -1.5t-2.5 -5.5l8 -40l73 10l4 -21l-71 -9l10 -47l94 11z" />
    <glyph glyph-name="uni30AE" unicode="&#x30ae;" 
d="M241 78l-93 -10l19 -81l-22 -5l-19 83l-102 -12l-3 21l100 11l-10 47l-68 -8l-4 21l66 7l-10 46l21 4q5 0 5.5 -1.5t-2.5 -5.5l8 -40l73 10l4 -21l-71 -9l10 -47l94 11zM251 183l-13 -11q-7 10 -14.5 18t-14.5 15l12 11q8 -7 15.5 -15.5t14.5 -17.5zM206 165
q-8 11 -14.5 19t-11.5 12l11 11q7 -6 14 -14t14 -18z" />
    <glyph glyph-name="uni30AF" unicode="&#x30af;" 
d="M76 -19l-18 19q49 20 78.5 54.5t39.5 83.5h-80q-11 -19 -23 -34.5t-25 -26.5l-20 13q26 23 43 50.5t24 59.5l23 -8q3 -2 2.5 -3.5t-4.5 -2.5q-2 -7 -4.5 -13.5t-6.5 -12.5h72l9 5l18 -18q4 -4 3 -6.5t-6 -3.5q-9 -55 -40.5 -94t-84.5 -62z" />
    <glyph glyph-name="uni30B0" unicode="&#x30b0;" 
d="M76 -19l-18 19q49 20 78.5 54.5t39.5 83.5h-80q-11 -19 -23 -34.5t-25 -26.5l-20 13q26 23 43 50.5t24 59.5l23 -8q3 -2 2.5 -3.5t-4.5 -2.5q-2 -7 -4.5 -13.5t-6.5 -12.5h72l9 5l18 -18q4 -4 3 -6.5t-6 -3.5q-9 -55 -40.5 -94t-84.5 -62zM176 196l13 11q9 -8 17 -16.5
t15 -18.5l-14 -11q-8 11 -15.5 20t-15.5 15zM207 205l12 12q8 -7 15 -15t14 -17l-12 -12q-8 10 -15 18t-14 14z" />
    <glyph glyph-name="uni30B1" unicode="&#x30b1;" 
d="M22 82q22 22 36 50.5t20 63.5l25 -6q4 -1 3.5 -3t-5.5 -5q-3 -11 -6.5 -22t-8.5 -21h148v-22h-58q-4 -39 -23 -73t-52 -62l-23 13q35 27 53 57.5t20 64.5h-76q-6 -13 -14.5 -24.5t-18.5 -21.5z" />
    <glyph glyph-name="uni30B2" unicode="&#x30b2;" 
d="M22 82q22 22 36 50.5t20 63.5l25 -6q4 -1 3.5 -3t-5.5 -5q-3 -11 -6.5 -22t-8.5 -21h148v-22h-58q-4 -39 -23 -73t-52 -62l-23 13q35 27 53 57.5t20 64.5h-76q-6 -13 -14.5 -24.5t-18.5 -21.5zM189 200q8 -8 16 -17t16 -19l-13 -11q-9 10 -17 19t-15 17zM217 211
q9 -8 17 -17l16 -18l-15 -11q-8 10 -15.5 19t-14.5 16z" />
    <glyph glyph-name="uni30B3" unicode="&#x30b3;" 
d="M179 129h-139v22h162v-143h-23v11h-139v22h139v88z" />
    <glyph glyph-name="uni30B4" unicode="&#x30b4;" 
d="M179 129h-139v22h162v-143h-23v11h-139v22h139v88zM234 169q-8 11 -16 19.5t-15 15.5l13 10q8 -8 16 -16.5t15 -18.5zM206 159q-7 10 -14.5 19t-15.5 17l13 10q8 -8 15.5 -17t14.5 -19z" />
    <glyph glyph-name="uni30B5" unicode="&#x30b5;" 
d="M181 133h59v-22h-58v-19q0 -38 -19.5 -64.5t-59.5 -42.5l-16 18q36 12 54 33.5t18 53.5v21h-66l1 -51h-22l-1 51h-56v22h56l-1 53h21q5 -1 5.5 -3.5t-4.5 -6.5l1 -43h65v61h22q5 -1 5.5 -3.5t-4.5 -6.5v-51z" />
    <glyph glyph-name="uni30B6" unicode="&#x30b6;" 
d="M181 133h59v-22h-58v-19q0 -38 -19.5 -64.5t-59.5 -42.5l-16 18q36 12 54 33.5t18 53.5v21h-66l1 -51h-22l-1 51h-56v22h56l-1 53h21q5 -1 5.5 -3.5t-4.5 -6.5l1 -43h65v61h22q5 -1 5.5 -3.5t-4.5 -6.5v-51zM231 166l-13 -11q-8 10 -15.5 18t-14.5 14l11 12
q8 -7 16 -15.5t16 -17.5zM250 183l-13 -11q-7 10 -14.5 18t-15.5 14l11 12q9 -7 17 -15.5t15 -17.5z" />
    <glyph glyph-name="uni30B7" unicode="&#x30b7;" 
d="M57 16q55 12 96 40t68 73l18 -18q-25 -41 -64.5 -70t-93.5 -46q-1 -6 -3.5 -6.5t-6.5 5.5zM101 105l-16 -21q-15 11 -27.5 19t-22.5 13l15 21q13 -7 25.5 -15t25.5 -17zM129 164l-14 -21q-13 9 -25.5 17t-24.5 15l13 21q14 -8 26.5 -16t24.5 -16z" />
    <glyph glyph-name="uni30B8" unicode="&#x30b8;" 
d="M57 16q55 12 96 40t68 73l18 -18q-25 -41 -64.5 -70t-93.5 -46q-1 -6 -3.5 -6.5t-6.5 5.5zM101 105l-16 -21q-15 11 -27.5 19t-22.5 13l15 21q13 -7 25.5 -15t25.5 -17zM129 164l-14 -21q-13 9 -25.5 17t-24.5 15l13 21q14 -8 26.5 -16t24.5 -16zM198 211
q9 -7 17.5 -14.5t16.5 -16.5l-13 -13q-9 10 -17.5 18t-16.5 14zM174 194q9 -7 17.5 -15t16.5 -17l-13 -12q-8 9 -17 17l-18 16z" />
    <glyph glyph-name="uni30B9" unicode="&#x30b9;" 
d="M229 15l-20 -17q-21 22 -41 40.5t-40 33.5q-19 -21 -41.5 -40t-47.5 -35l-19 17q53 34 87 68.5t49 69.5l-109 -7l-3 24l116 5l12 3l16 -16q4 -4 3 -6t-7 -3q-9 -17 -19 -32t-21 -29q22 -17 43 -36t42 -40z" />
    <glyph glyph-name="uni30BA" unicode="&#x30ba;" 
d="M229 15l-20 -17q-21 22 -41 40.5t-40 33.5q-19 -21 -41.5 -40t-47.5 -35l-19 17q53 34 87 68.5t49 69.5l-109 -7l-3 24l116 5l12 3l16 -16q4 -4 3 -6t-7 -3q-9 -17 -19 -32t-21 -29q22 -17 43 -36t42 -40zM237 171q-9 10 -17.5 18.5t-16.5 15.5l13 12q9 -7 17.5 -15.5
t16.5 -17.5zM209 155q-6 7 -15 16t-20 19l15 12q9 -8 18 -16.5t17 -17.5z" />
    <glyph glyph-name="uni30BB" unicode="&#x30bb;" 
d="M171 51l-19 13q11 13 21.5 27t19.5 29l-83 -15v-74q0 -7 3.5 -10.5t10.5 -3.5h92l-3 -22h-95q-15 0 -23 8t-8 24v74l-60 -12l-8 23l68 12v66h21q5 -1 5.5 -3t-3.5 -5v-55l90 15l8 5l18 -18q2 -3 1 -4.5t-5 -1.5q-15 -22 -27.5 -40t-23.5 -32z" />
    <glyph glyph-name="uni30BC" unicode="&#x30bc;" 
d="M171 51l-19 13q11 13 21.5 27t19.5 29l-83 -15v-74q0 -7 3.5 -10.5t10.5 -3.5h92l-3 -22h-95q-15 0 -23 8t-8 24v74l-60 -12l-8 23l68 12v66h21q5 -1 5.5 -3t-3.5 -5v-55l90 15l8 5l18 -18q2 -3 1 -4.5t-5 -1.5q-15 -22 -27.5 -40t-23.5 -32zM205 156q-8 9 -15.5 17
t-15.5 15l13 12q8 -7 15.5 -15t15.5 -18zM236 168q-8 10 -15.5 18t-15.5 14l12 12q9 -7 16.5 -15t14.5 -17z" />
    <glyph glyph-name="uni30BD" unicode="&#x30bd;" 
d="M192 172l25 -4q5 -1 4.5 -3.5t-5.5 -5.5q-3 -32 -12 -59t-25 -49q-11 -17 -32.5 -33.5t-53.5 -32.5l-18 18q29 13 50.5 29t35.5 36q12 15 19.5 41t11.5 63zM44 160l22 12q9 -11 18 -25.5t18 -32.5l-23 -13q-9 19 -17.5 34t-17.5 25z" />
    <glyph glyph-name="uni30BE" unicode="&#x30be;" 
d="M186 159l25 -8q5 -1 4.5 -3.5t-5.5 -5.5q-5 -24 -13 -45.5t-20 -39.5q-13 -21 -35 -39t-54 -33l-18 18q31 15 52.5 31.5t32.5 34.5q13 19 20.5 41.5t10.5 48.5zM44 160l22 12q9 -11 18 -25.5t18 -32.5l-23 -13q-9 19 -17.5 34t-17.5 25zM203 160q-7 9 -14.5 17t-14.5 15
l12 12q8 -6 15.5 -14t14.5 -17zM234 168q-7 10 -14.5 18.5t-14.5 14.5l12 12q8 -7 15 -15t14 -18z" />
    <glyph glyph-name="uni30BF" unicode="&#x30bf;" 
d="M108 163h67l11 4l13 -13q2 -3 1 -5t-5 -3q-4 -20 -10 -38.5t-14 -34.5l24 -16l-15 -22l-22 16q-14 -21 -35 -38.5t-48 -30.5l-23 17q30 12 51.5 28.5t34.5 37.5q-12 8 -24.5 15t-24.5 14l12 18q16 -7 28.5 -13.5t22.5 -12.5q8 15 12.5 29t5.5 26h-73q-9 -17 -21 -32.5
t-26 -29.5l-19 13q26 26 42.5 54t24.5 58l24 -10q4 -2 3 -4t-7 -4q-2 -6 -4.5 -12t-5.5 -11z" />
    <glyph glyph-name="uni30C0" unicode="&#x30c0;" 
d="M108 163h67l11 4l13 -13q2 -3 1 -5t-5 -3q-4 -20 -10 -38.5t-14 -34.5l24 -16l-15 -22l-22 16q-14 -21 -35 -38.5t-48 -30.5l-23 17q30 12 51.5 28.5t34.5 37.5q-12 8 -24.5 15t-24.5 14l12 18q16 -7 28.5 -13.5t22.5 -12.5q8 15 12.5 29t5.5 26h-73q-9 -17 -21 -32.5
t-26 -29.5l-19 13q26 26 42.5 54t24.5 58l24 -10q4 -2 3 -4t-7 -4q-2 -6 -4.5 -12t-5.5 -11zM192 200q9 -7 17.5 -15t17.5 -18l-13 -10l-17.5 17.5t-17.5 15.5zM215 215q8 -6 16.5 -13.5t16.5 -17.5l-13 -11q-9 10 -17 18t-16 14z" />
    <glyph glyph-name="uni30C1" unicode="&#x30c1;" 
d="M148 112h82v-22h-82q0 -35 -15.5 -61.5t-47.5 -43.5l-16 16q29 16 43 38t13 51h-100v22h100v38q-14 -2 -32 -3t-41 -2l-9 21q49 1 86 5.5t63 12.5l11 -21q2 -4 -0.5 -4.5t-8.5 2.5q-10 -3 -21.5 -5t-24.5 -3v-41z" />
    <glyph glyph-name="uni30C2" unicode="&#x30c2;" 
d="M145 112h82v-22h-82q0 -35 -15.5 -61.5t-47.5 -43.5l-16 16q29 16 43 38t13 51h-100v22h100v38q-14 -2 -32 -3t-41 -2l-9 21q49 1 84 5t58 12l11 -21q2 -4 -0.5 -4.5t-8.5 2.5q-8 -2 -17 -4t-22 -3v-41zM223 170l-13 -10q-7 11 -15 19.5t-16 15.5l13 9q9 -8 17 -16.5
t14 -17.5zM248 182l-14 -11q-8 11 -15.5 19.5t-15.5 15.5l13 10q9 -8 17 -16.5t15 -17.5z" />
    <glyph glyph-name="uni30C3" unicode="&#x30c3;" 
d="M174 28q-14 -15 -33 -26.5t-43 -19.5l-13 19q23 7 41 17.5t31 23.5q14 14 22 37.5t10 57.5l21 -7q5 -2 5 -4t-5 -4q-3 -33 -12 -56.5t-24 -37.5zM101 131l19 10q8 -10 14.5 -21t11.5 -24l-21 -10q-6 13 -12 24.5t-12 20.5zM49 118l20 10q7 -10 13.5 -21.5t11.5 -24.5
l-20 -11q-6 14 -12 25.5t-13 21.5z" />
    <glyph glyph-name="uni30C4" unicode="&#x30c4;" 
d="M178 39q-16 -17 -37.5 -29.5t-49.5 -21.5l-18 21q27 7 48 17.5t35 24.5q18 17 29.5 47.5t16.5 74.5l24 -7q5 -2 5 -4t-5 -5q-6 -41 -18 -70.5t-30 -47.5zM62 94q-6 15 -13.5 29.5t-15.5 28.5l22 12q8 -12 15.5 -26.5t14.5 -31.5zM124 113q-7 16 -14 29.5t-15 24.5l23 11
q8 -11 15 -24t14 -29z" />
    <glyph glyph-name="uni30C5" unicode="&#x30c5;" 
d="M178 39q-16 -17 -37.5 -29.5t-49.5 -21.5l-18 21q27 7 48 17.5t35 24.5q18 17 29 43t14 64l24 -7q5 -2 5 -4t-5 -5q-4 -34 -15.5 -59.5t-29.5 -43.5zM62 94q-6 15 -13.5 29.5t-15.5 28.5l22 12q8 -12 15.5 -26.5t14.5 -31.5zM124 113q-7 16 -14 29.5t-15 24.5l23 11
q8 -11 15 -24t14 -29zM172 198l14 11q7 -6 14 -14t14 -18l-14 -12q-6 10 -13 18t-15 15zM233 169q-8 11 -15 20t-14 16l14 12q9 -9 16.5 -18t13.5 -19z" />
    <glyph glyph-name="uni30C6" unicode="&#x30c6;" 
d="M125 100h-100v22h205v-22h-82v-13q0 -32 -11 -58t-34 -46l-20 15q21 16 31.5 38.5t10.5 50.5v13zM61 161v22h133v-22h-133z" />
    <glyph glyph-name="uni30C7" unicode="&#x30c7;" 
d="M225 167l-14 -10q-7 10 -14 19t-14 17l14 9q7 -7 14 -15.5t14 -19.5zM249 181l-14 -10q-8 11 -15 19.5t-13 14.5l14 10q7 -7 14 -15.5t14 -18.5zM125 100h-100v22h205v-22h-82v-13q0 -32 -11 -58t-34 -46l-20 15q21 16 31.5 38.5t10.5 50.5v13zM61 161v22h123v-22h-123z
" />
    <glyph glyph-name="uni30C8" unicode="&#x30c8;" 
d="M219 82l-12 -23q-26 13 -48 22t-39 14v-104h-23v200h20q6 -1 7 -3t-4 -5v-63q25 -7 49.5 -16.5t49.5 -21.5z" />
    <glyph glyph-name="uni30C9" unicode="&#x30c9;" 
d="M217 82l-12 -23q-26 13 -48 22t-39 14v-104h-23v200h20q6 0 7 -2.5t-4 -5.5v-63q25 -7 49.5 -16.5t49.5 -21.5zM203 147q-8 10 -16.5 18.5t-17.5 15.5l13 10q9 -7 17.5 -15.5t16.5 -18.5zM227 166q-6 8 -14.5 16.5t-18.5 16.5l13 10q9 -6 17 -14.5t16 -18.5z" />
    <glyph glyph-name="uni30CA" unicode="&#x30ca;" 
d="M139 133h93v-22h-92v-18q0 -37 -16 -65t-48 -47l-21 16q31 16 46.5 40t15.5 56v18h-99v22h98v60h20q6 -1 6.5 -3t-3.5 -5v-52z" />
    <glyph glyph-name="uni30CB" unicode="&#x30cb;" 
d="M27 50h207v-22h-207v22zM52 159h147v-22h-147v22z" />
    <glyph glyph-name="uni30CC" unicode="&#x30cc;" 
d="M122 76q-13 9 -26 17.5t-26 15.5l12 18q15 -9 28.5 -17.5t26.5 -16.5q11 14 19.5 29.5t14.5 33.5l-123 -4l-3 21l135 4l6 3l16 -16q3 -3 1.5 -5t-6.5 -3q-8 -20 -18.5 -38.5t-23.5 -36.5q16 -12 30.5 -25t28.5 -26l-18 -18q-13 13 -27 25.5t-30 24.5q-18 -18 -41.5 -34
t-52.5 -29l-18 19q30 11 54 25.5t41 32.5z" />
    <glyph glyph-name="uni30CD" unicode="&#x30cd;" 
d="M178 160l6 2l11 -15q2 -4 1 -5.5t-5 -1.5q-10 -11 -24 -23.5t-31 -25.5v-105h-23v89q-16 -11 -34.5 -21t-39.5 -19l-17 18q42 15 76 36.5t60 48.5l-113 -5l-3 22l71 2v45h20q5 -1 5.5 -3t-2.5 -5v-36zM157 79l15 19q18 -10 34 -20.5t29 -22.5l-17 -20q-17 14 -32 25
t-29 19z" />
    <glyph glyph-name="uni30CE" unicode="&#x30ce;" 
d="M135 72q-16 -22 -36 -40t-43 -32l-24 19q23 11 42 26t34 34q16 19 28.5 45t21.5 60l27 -12q4 -2 3 -4t-6 -4q-10 -29 -22 -52t-25 -40z" />
    <glyph glyph-name="uni30CF" unicode="&#x30cf;" 
d="M151 140l21 16q25 -32 43 -65t28 -68l-27 -9q-12 39 -28.5 70.5t-36.5 55.5zM94 124q-9 -32 -23.5 -60.5t-34.5 -54.5l-23 15q22 26 37 56t22 64l24 -11q4 -3 3.5 -5t-5.5 -4z" />
    <glyph glyph-name="uni30D0" unicode="&#x30d0;" 
d="M151 140l21 16q25 -32 43 -65t28 -68l-27 -9q-12 39 -28.5 70.5t-36.5 55.5zM94 124q-9 -32 -23.5 -60.5t-34.5 -54.5l-23 15q22 26 37 56t22 64l24 -11q4 -3 3.5 -5t-5.5 -4zM248 180l-13 -12q-9 10 -17 18t-15 14l13 11q7 -6 15 -13.5t17 -17.5zM224 162l-15 -11
q-7 10 -15 18.5t-16 15.5l14 11q8 -7 16 -15.5t16 -18.5z" />
    <glyph glyph-name="uni30D1" unicode="&#x30d1;" 
d="M151 140l21 16q25 -32 43 -65t28 -68l-27 -9q-12 39 -28.5 70.5t-36.5 55.5zM94 124q-9 -32 -23.5 -60.5t-34.5 -54.5l-23 15q22 26 37 56t22 64l24 -11q4 -3 3.5 -5t-5.5 -4zM184 179q0 12 8 20t20 8t20 -8t8 -20t-8 -20t-20 -8t-20 8t-8 20zM230 179q0 7 -5.5 12.5
t-12.5 5.5t-12.5 -5.5t-5.5 -12.5t5.5 -12.5t12.5 -5.5t12.5 5.5t5.5 12.5z" />
    <glyph glyph-name="uni30D2" unicode="&#x30d2;" 
d="M208 124q3 -5 0.5 -5.5t-9.5 2.5q-28 -8 -57.5 -13.5t-60.5 -9.5v-65q0 -7 3.5 -10t9.5 -3h115l-2 -22h-117q-16 0 -24 6.5t-8 19.5v157h20q6 -1 6.5 -3t-3.5 -5v-51q34 4 64 10t55 15z" />
    <glyph glyph-name="uni30D3" unicode="&#x30d3;" 
d="M208 124q3 -5 0.5 -5.5t-9.5 2.5q-28 -8 -57.5 -13.5t-60.5 -9.5v-65q0 -7 3.5 -10t9.5 -3h115l-2 -22h-117q-16 0 -24 6.5t-8 19.5v157h20q6 -1 6.5 -3t-3.5 -5v-51q34 4 64 10t55 15zM196 157q-8 10 -15.5 18.5t-15.5 16.5l14 11q7 -7 15 -15.5t16 -19.5zM194 205
l12 11q8 -7 16 -15.5t16 -18.5l-13 -11q-9 10 -16.5 18.5t-14.5 15.5z" />
    <glyph glyph-name="uni30D4" unicode="&#x30d4;" 
d="M208 124q3 -5 0.5 -5.5t-9.5 2.5q-28 -8 -57.5 -13.5t-60.5 -9.5v-65q0 -7 3.5 -10t9.5 -3h115l-2 -22h-117q-16 0 -24 6.5t-8 19.5v157h20q6 -1 6.5 -3t-3.5 -5v-51q34 4 64 10t55 15zM181 185q0 12 8 20t20 8t20 -8t8 -20t-8 -20t-20 -8t-20 8t-8 20zM227 185
q0 7 -5.5 12.5t-12.5 5.5t-12.5 -5.5t-5.5 -12.5t5.5 -12.5t12.5 -5.5t12.5 5.5t5.5 12.5z" />
    <glyph glyph-name="uni30D5" unicode="&#x30d5;" 
d="M62 16q63 14 95.5 47.5t35.5 85.5h-150v22h152l14 3l11 -10q-2 -67 -37 -109.5t-103 -60.5z" />
    <glyph glyph-name="uni30D6" unicode="&#x30d6;" 
d="M62 16q63 14 95.5 47.5t35.5 85.5h-150v22h152l14 3l11 -10q-2 -67 -37 -109.5t-103 -60.5zM200 174q-6 7 -12.5 13t-13.5 12l12 12q7 -6 14 -12.5t13 -13.5zM236 177q-8 9 -15.5 16.5t-14.5 13.5l12 10q8 -6 15.5 -13.5t14.5 -15.5z" />
    <glyph glyph-name="uni30D7" unicode="&#x30d7;" 
d="M43 149v22h148l26 -19q-2 -61 -36.5 -100.5t-100.5 -57.5l-18 22q63 14 95.5 47.5t35.5 85.5h-150zM194 190q0 12 8 20t20 8t20 -8t8 -20t-8 -20t-20 -8t-20 8t-8 20zM240 190q0 7 -5.5 12.5t-12.5 5.5t-12.5 -5.5t-5.5 -12.5t5.5 -12.5t12.5 -5.5t12.5 5.5t5.5 12.5z
" />
    <glyph glyph-name="uni30D8" unicode="&#x30d8;" 
d="M109 157q4 0 7.5 -1.5t6.5 -3.5q23 -21 52.5 -46.5t64.5 -55.5l-22 -20q-26 24 -50.5 46.5t-47.5 43.5q-4 4 -7 6t-5 2t-5 -2t-7 -6q-14 -17 -28 -33t-28 -30l-19 22q20 19 38.5 37t35.5 35q3 3 6.5 4.5t7.5 1.5z" />
    <glyph glyph-name="uni30D9" unicode="&#x30d9;" 
d="M109 156q4 0 8 -1.5t6 -3.5q23 -21 52.5 -46.5t64.5 -55.5l-22 -20q-26 24 -50.5 46.5t-47.5 43.5q-4 3 -7 5.5t-5 2.5t-5.5 -2t-6.5 -6q-14 -17 -28 -33t-28 -30l-19 22q20 19 38.5 37t35.5 35q3 3 6.5 4.5t7.5 1.5zM219 171l-12 -12q-9 10 -17.5 18t-15.5 14l12 12
q9 -7 17 -15t16 -17zM162 181q8 -7 16.5 -15t17.5 -17l-12 -12q-10 10 -18.5 17.5t-15.5 13.5z" />
    <glyph glyph-name="uni30DA" unicode="&#x30da;" 
d="M109 156q4 0 8 -1.5t6 -3.5q23 -21 52.5 -46.5t64.5 -55.5l-22 -20q-26 24 -50.5 46.5t-47.5 43.5q-4 3 -7 5.5t-5 2.5t-5.5 -2t-6.5 -6q-14 -17 -28 -33t-28 -30l-19 22q20 19 38.5 37t35.5 35q3 3 6.5 4.5t7.5 1.5zM163 170q0 12 8 20t20 8t20 -8t8 -20t-8 -20t-20 -8
t-20 8t-8 20zM209 170q0 7 -5.5 12.5t-12.5 5.5t-12.5 -5.5t-5.5 -12.5t5.5 -12.5t12.5 -5.5t12.5 5.5t5.5 12.5z" />
    <glyph glyph-name="uni30DB" unicode="&#x30db;" 
d="M43 14l-22 12q13 18 23.5 37t18.5 39l22 -12q3 -3 2 -4.5t-6 -2.5q-7 -17 -16.5 -34t-21.5 -35zM115 201h21q6 -1 6.5 -3t-4.5 -5v-48h92v-22h-92v-139h-23v139h-90v22h90v56zM218 17q-10 18 -23 35.5t-28 33.5l19 16q18 -19 31.5 -36.5t22.5 -33.5z" />
    <glyph glyph-name="uni30DC" unicode="&#x30dc;" 
d="M43 14l-22 12q13 18 23.5 37t18.5 39l22 -12q3 -3 2 -4.5t-6 -2.5q-7 -17 -16.5 -34t-21.5 -35zM115 201h21q6 -1 6.5 -3t-4.5 -5v-48h92v-22h-92v-139h-23v139h-90v22h90v56zM218 17q-10 18 -23 35.5t-28 33.5l19 16q18 -19 31.5 -36.5t22.5 -33.5zM173 187l12 12
q9 -7 17 -14.5t16 -15.5l-12 -13l-17 17t-16 14zM201 203l13 11q9 -7 17 -15t16 -17l-13 -12q-9 10 -17 18t-16 15z" />
    <glyph glyph-name="uni30DD" unicode="&#x30dd;" 
d="M43 14l-22 12q13 18 23.5 37t18.5 39l22 -12q3 -3 2 -4.5t-6 -2.5q-7 -17 -16.5 -34t-21.5 -35zM115 201h21q6 -1 6.5 -3t-4.5 -5v-48h92v-22h-92v-139h-23v139h-90v22h90v56zM218 17q-10 18 -23 35.5t-28 33.5l19 16q18 -19 31.5 -36.5t22.5 -33.5zM192 186q0 12 8 20
t20 8t20 -8t8 -20t-8 -20t-20 -8t-20 8t-8 20zM238 186q0 7 -5.5 12.5t-12.5 5.5t-12.5 -5.5t-5.5 -12.5t5.5 -12.5t12.5 -5.5t12.5 5.5t5.5 12.5z" />
    <glyph glyph-name="uni30DE" unicode="&#x30de;" 
d="M178 19l-20 -18q-19 22 -40.5 42.5t-46.5 38.5l14 18q9 -6 19 -13.5t21 -17.5q15 15 30.5 33.5t30.5 40.5l-157 -7l-4 25l175 4l10 3l15 -16q3 -4 2 -6t-6 -1q-12 -17 -31.5 -39.5t-45.5 -51.5q11 -10 19.5 -19t14.5 -16z" />
    <glyph glyph-name="uni30DF" unicode="&#x30df;" 
d="M183 65q-21 9 -49 16t-64 13l3 24q31 -4 60.5 -11t56.5 -17zM195 -8q-38 14 -72.5 23.5t-64.5 13.5l5 26q39 -6 74 -15t65 -21zM187 161l-6 -26q-25 9 -53.5 14.5t-61.5 8.5l3 26q41 -5 70.5 -10.5t47.5 -12.5z" />
    <glyph glyph-name="uni30E0" unicode="&#x30e0;" 
d="M18 36l42 1q18 39 32 78.5t23 80.5l23 -8q5 -3 4.5 -5.5t-6.5 -3.5q-9 -36 -22 -71t-29 -69l104 5q-10 14 -18.5 24t-14.5 17l20 14q17 -19 33.5 -40.5t31.5 -46.5l-22 -15l-16 26l-168 -13q-3 -5 -5 -5t-4 5z" />
    <glyph glyph-name="uni30E1" unicode="&#x30e1;" 
d="M34 17q31 16 53 35t35 40q-14 8 -26 14.5t-23 11.5l12 22q11 -5 23.5 -11.5t26.5 -14.5q7 14 13 33.5t11 44.5l24 -8q4 -1 3.5 -2.5t-4.5 -3.5q-6 -25 -13 -44.5t-14 -32.5q12 -8 22 -15t17 -13l-13 -23q-10 8 -19.5 15.5t-18.5 13.5q-18 -25 -40 -45.5t-48 -35.5z" />
    <glyph glyph-name="uni30E2" unicode="&#x30e2;" 
d="M216 3h-87q-12 0 -18.5 6.5t-6.5 19.5v54h-80v22h80v46h-61v22h159v-22h-75v-46h100v-22h-100v-46q0 -6 3 -9t8 -3h79z" />
    <glyph glyph-name="uni30E3" unicode="&#x30e3;" 
d="M115 108l82 20l5 3l16 -16q2 -2 1.5 -3.5t-4.5 -2.5q-9 -15 -18.5 -29t-19.5 -27l-17 11q8 10 15.5 21t14.5 23l-69 -17l34 -101l-20 -7l-33 104l-58 -16l-7 20l58 13l-16 48l21 4q5 0 5.5 -2t-2.5 -5z" />
    <glyph glyph-name="uni30E4" unicode="&#x30e4;" 
d="M113 137l96 24l11 5l18 -18q3 -3 2 -5.5t-6 -3.5q-8 -16 -19.5 -33.5t-26.5 -35.5l-19 14q11 12 20 26t16 29l-85 -22l42 -124l-24 -7l-41 125l-71 -19l-8 22l72 17l-21 60l24 5q5 0 5.5 -2t-2.5 -6z" />
    <glyph glyph-name="uni30E5" unicode="&#x30e5;" 
d="M218 8h-180v19h108l2 75h-82v19h102l-2 -94h52v-19z" />
    <glyph glyph-name="uni30E6" unicode="&#x30e6;" 
d="M235 16h-216v22h129l3 94h-98v22h122l-3 -116h63v-22z" />
    <glyph glyph-name="uni30E7" unicode="&#x30e7;" 
d="M67 0v19h102v42h-96v19h96v40h-102v19h122v-150h-20v11h-102z" />
    <glyph glyph-name="uni30E8" unicode="&#x30e8;" 
d="M201 177v-181h-23v14h-126v22h126v52h-118v22h118v49h-126v22h149z" />
    <glyph glyph-name="uni30E9" unicode="&#x30e9;" 
d="M79 -1q49 12 76 38.5t33 66.5h-152v22h153l9 3l18 -11q3 -3 2.5 -5t-4.5 -4q-8 -50 -37 -82.5t-80 -47.5zM192 161h-138v22h138v-22z" />
    <glyph glyph-name="uni30EA" unicode="&#x30ea;" 
d="M190 88q0 -38 -17.5 -65t-52.5 -43l-20 17q33 15 50 38t17 54v100h21q5 -1 5.5 -3t-3.5 -5v-93zM87 66h-23v113h22q5 -1 5.5 -3t-4.5 -5v-105z" />
    <glyph glyph-name="uni30EB" unicode="&#x30eb;" 
d="M150 29q22 8 42.5 25t38.5 43l14 -19q-19 -26 -43 -45t-53 -30l-8 -4l-16 12l2 5v161h21q5 -1 5.5 -3t-3.5 -5v-140zM16 2q25 24 37.5 53.5t12.5 65.5v45h21q5 -1 5.5 -3t-3.5 -5v-36q0 -42 -13 -75.5t-40 -57.5z" />
    <glyph glyph-name="uni30EC" unicode="&#x30ec;" 
d="M88 23q46 8 79.5 31.5t54.5 61.5l17 -17q-24 -42 -64 -68t-96 -35l-16 12l2 6v166h22q5 -1 5 -2.5t-4 -4.5v-150z" />
    <glyph glyph-name="uni30ED" unicode="&#x30ed;" 
d="M208 17h-23v11h-111v-16h-23v156h157v-151zM74 146v-96h111v96h-111z" />
    <glyph glyph-name="uni30EE" unicode="&#x30ee;" 
d="M180 120h-105v-54h-20v73h145v-28q0 -47 -21.5 -78.5t-65.5 -47.5l-14 17q41 12 61 39.5t20 69.5v9z" />
    <glyph glyph-name="uni30EF" unicode="&#x30ef;" 
d="M111 -11l-19 20q30 11 49.5 25t29.5 32q10 16 14.5 38.5t4.5 50.5h-127v-66h-23v88h176q0 -41 -5.5 -71t-16.5 -50t-31.5 -37t-51.5 -30z" />
    <glyph glyph-name="uni30F0" unicode="&#x30f0;" 
d="M88 71h42v57h-42v-57zM153 71h87v-22h-87v-63h-23v63h-116v22h51v57h-24v22h89v57h22q5 -1 5.5 -3t-4.5 -5v-49h61v-22h-61v-57z" />
    <glyph glyph-name="uni30F1" unicode="&#x30f1;" 
d="M146 83l-8 8v-58h102v-22h-229v22h104v81l23 -1v-5q13 9 23.5 18.5t18.5 19.5h-125l-4 22h143l7 4l17 -17q3 -4 1.5 -6.5t-8.5 -2.5q-17 -21 -33.5 -36.5t-31.5 -26.5z" />
    <glyph glyph-name="uni30F2" unicode="&#x30f2;" 
d="M41 155v22h155l11 2l11 -11q3 -3 2.5 -5t-4.5 -3q-4 -69 -37.5 -112t-97.5 -60l-17 20q47 13 75.5 35.5t39.5 54.5h-128v22h135q2 8 3.5 16.5t2.5 18.5h-151z" />
    <glyph glyph-name="uni30F3" unicode="&#x30f3;" 
d="M238 116q-26 -55 -70.5 -84t-107.5 -32q-2 -7 -4.5 -7.5t-5.5 5.5l-8 26q65 1 109 28t66 79zM46 157l17 21q11 -7 24 -17.5t29 -25.5l-19 -19q-13 12 -26 22.5t-25 18.5z" />
    <glyph glyph-name="uni30F4" unicode="&#x30f4;" 
d="M135 153h75l12 -12q0 -55 -26 -95t-79 -66l-19 19q49 22 73.5 55t24.5 77h-139l2 -59h-23l-3 81h79v50h20q6 -1 7 -3t-4 -5v-42zM202 164q-6 7 -14 15t-18 17l12 12q8 -6 16 -14t16 -18zM234 172q-8 9 -16 17t-16 15l12 12q8 -6 16 -14t16 -18z" />
    <glyph glyph-name="uni30F5" unicode="&#x30f5;" 
d="M135 -9l-2 19h25q6 0 10 4t5 11q2 6 2.5 18.5t0.5 31.5v23l-47 -1q-3 -37 -19.5 -64.5t-46.5 -46.5l-15 15q28 16 43.5 40t17.5 55l-57 -2l-3 19l61 2v44h18q5 -1 5.5 -3t-3.5 -5v-36l66 2v-35q0 -17 -0.5 -31.5t-2.5 -27.5q-2 -16 -10.5 -24t-23.5 -8h-24z" />
    <glyph glyph-name="uni30F6" unicode="&#x30f6;" 
d="M90 -8q26 21 40 45.5t16 52.5h-61q-5 -10 -11.5 -19.5t-14.5 -18.5l-19 10q19 20 30 43t15 50l21 -4q4 -2 3.5 -3.5t-5.5 -3.5q-2 -12 -5 -20.5t-6 -14.5h121v-19h-47q-3 -32 -17.5 -59.5t-40.5 -50.5z" />
    <glyph glyph-name="uniFF64" unicode="&#xff64;" horiz-adv-x="128" 
d="M58 -22q-11 12 -22 22t-22 18l14 18q13 -8 24.5 -17.5t21.5 -20.5z" />
    <glyph glyph-name="uniFF65" unicode="&#xff65;" horiz-adv-x="128" 
d="M80 109v-34h-34v34h34z" />
    <glyph glyph-name="uniFF66" unicode="&#xff66;" horiz-adv-x="128" 
d="M111 163q1 -71 -17.5 -115t-56.5 -61l-11 19q26 12 41 35.5t19 57.5h-67v22h70q2 11 2.5 19.5t-0.5 14.5h-77v22h85l3 3l11 -13z" />
    <glyph glyph-name="uniFF67" unicode="&#xff67;" horiz-adv-x="128" 
d="M52 51v54l17 -1q3 -1 3 -2t-3 -3v-16q7 7 11.5 16t6.5 20h-71v19h77l5 2l11 -18l-3 -3q-5 -17 -12 -31t-17 -25l-8 10v-22q0 -22 -6.5 -40t-19.5 -31l-13 13q11 12 16.5 26.5t5.5 31.5z" />
    <glyph glyph-name="uniFF68" unicode="&#xff68;" horiz-adv-x="128" 
d="M19 49q22 19 39 45.5t29 60.5l16 -11q3 -2 2.5 -3.5t-4.5 -1.5q-4 -10 -9.5 -21.5t-12.5 -23.5v-113h-17v88q-7 -10 -15 -19t-17 -18z" />
    <glyph glyph-name="uniFF69" unicode="&#xff69;" horiz-adv-x="128" 
d="M71 119h30l7 -9q0 -48 -11 -81.5t-34 -53.5l-12 15q20 17 29.5 44.5t9.5 65.5h-54v-48h-17v67h35v41h17q3 -1 3 -2t-3 -3v-36z" />
    <glyph glyph-name="uniFF6A" unicode="&#xff6a;" horiz-adv-x="128" 
d="M25 127h73v-19h-27v-79h36v-19h-88v19h35v79h-29v19z" />
    <glyph glyph-name="uniFF6B" unicode="&#xff6b;" horiz-adv-x="128" 
d="M79 116h34v-19h-34v-97q0 -10 -5 -15t-15 -5h-9l-3 19h10q3 0 4 1.5t1 4.5v61q-6 -19 -15 -35.5t-21 -31.5l-12 14q15 18 25.5 39t17.5 45h-41v19h46v45h17q3 -1 3 -2t-3 -3v-40z" />
    <glyph glyph-name="uniFF6C" unicode="&#xff6c;" horiz-adv-x="128" 
d="M61 91l20 -105l-17 -7l-18 104l-30 -16l-6 19l33 15l-10 50l17 6q3 0 3 -1t-2 -3l7 -45l45 22l8 -13l-22 -67l-13 11l14 45z" />
    <glyph glyph-name="uniFF6D" unicode="&#xff6d;" horiz-adv-x="128" 
d="M27 102v19h57v-94h29v-19h-98v19h52v75h-40z" />
    <glyph glyph-name="uniFF6E" unicode="&#xff6e;" horiz-adv-x="128" 
d="M28 19h54v42h-51v19h51v40h-54v19h71v-149h-17v10h-54v19z" />
    <glyph glyph-name="uniFF6F" unicode="&#xff6f;" horiz-adv-x="128" 
d="M106 136q2 -1 2 -2.5t-3 -2.5q0 -53 -14 -90.5t-42 -58.5l-12 16q26 16 38.5 51.5t12.5 89.5zM31 71l-14 49l14 9l14 -50zM58 85l-14 48l13 8l14 -47z" />
    <glyph glyph-name="uniFF70" unicode="&#xff70;" horiz-adv-x="128" 
d="M8 106h109v-19h-109v19z" />
    <glyph glyph-name="uniFF71" unicode="&#xff71;" horiz-adv-x="128" 
d="M95 155l-86 -3l-1 22l91 2l5 3l15 -19l-4 -6q-7 -22 -15.5 -39t-18.5 -30l-9 10q0 -37 -8.5 -65.5t-26.5 -47.5l-14 17q15 16 22 39.5t7 54.5v45h20q3 -1 3 -2t-3 -3v-25q9 13 14.5 24.5t8.5 22.5z" />
    <glyph glyph-name="uniFF72" unicode="&#xff72;" horiz-adv-x="128" 
d="M13 71q25 22 45.5 53t35.5 72l17 -17q2 -3 1.5 -4t-4.5 -1q-4 -11 -10.5 -24.5t-16.5 -29.5v-137h-20v109q-8 -12 -17.5 -22.5t-20.5 -19.5z" />
    <glyph glyph-name="uniFF73" unicode="&#xff73;" horiz-adv-x="128" 
d="M46 -4q23 22 35 55.5t12 78.5h-60v-59h-20v81h39v51h20q3 -1 3 -2.5t-3 -3.5v-45h41v-27q0 -47 -13.5 -84t-41.5 -64z" />
    <glyph glyph-name="uniFF74" unicode="&#xff74;" horiz-adv-x="128" 
d="M9 20v22h45v98h-35v22h90v-22h-35v-98h43v-22h-108z" />
    <glyph glyph-name="uniFF75" unicode="&#xff75;" horiz-adv-x="128" 
d="M81 146h40v-22h-40v-122q0 -11 -5 -16t-16 -5h-14l-3 22h12q3 0 4.5 1.5t1.5 5.5v75q-8 -24 -19 -43.5t-26 -34.5l-13 17q19 20 32 45t20 55h-48v22h54v54h20q3 -1 3 -2.5t-3 -3.5v-48z" />
    <glyph glyph-name="uniFF76" unicode="&#xff76;" horiz-adv-x="128" 
d="M11 122v22h37v55h20q3 -1 3 -2t-3 -3v-49h41l-1 -72q0 -22 -1 -36.5t-3 -22.5q-2 -12 -9 -17.5t-19 -5.5h-12l-1 23h10q5 0 8 2t4 7t2 16.5t1 29.5l1 54h-22q-2 -43 -12.5 -77t-30.5 -59l-14 16q17 22 26.5 51.5t11.5 67.5h-37z" />
    <glyph glyph-name="uniFF77" unicode="&#xff77;" horiz-adv-x="128" 
d="M51 129l-35 -8l-2 22l35 7l-6 47l17 4q4 0 4.5 -1.5t-2.5 -4.5l4 -40l37 9l2 -22l-36 -8l5 -48l47 11l2 -21l-47 -10l10 -80l-20 -5l-9 81l-50 -11l-2 22l51 10z" />
    <glyph glyph-name="uniFF78" unicode="&#xff78;" horiz-adv-x="128" 
d="M43 -23l-12 18q26 25 40.5 60.5t17.5 81.5h-35q-4 -17 -11 -33t-17 -31l-15 14q15 21 24 50t13 65l20 -7q2 -2 1.5 -3t-3.5 -2q-1 -6 -2.5 -14t-4.5 -17h36l5 3l12 -17l-2 -4q-4 -55 -21 -96t-46 -68z" />
    <glyph glyph-name="uniFF79" unicode="&#xff79;" horiz-adv-x="128" 
d="M36 -5q17 17 26.5 48t12.5 75h-33q-3 -15 -8 -27.5t-12 -23.5l-15 13q11 18 18.5 47.5t12.5 71.5l19 -6q3 -2 2.5 -3t-3.5 -2q-1 -9 -3 -21t-5 -27h75v-22h-29q-3 -47 -13.5 -81.5t-28.5 -55.5z" />
    <glyph glyph-name="uniFF7A" unicode="&#xff7a;" horiz-adv-x="128" 
d="M87 38v93h-70v22h90v-150h-20v13h-70v22h70z" />
    <glyph glyph-name="uniFF7B" unicode="&#xff7b;" horiz-adv-x="128" 
d="M96 133h27v-22h-27v-14q0 -38 -10.5 -66.5t-32.5 -48.5l-14 18q19 17 28 41t9 55v15h-28v-53h-20v53h-24v22h24v55h20q3 -1 3 -2t-3 -3v-50h28v63h20q3 -1 3 -2t-3 -3v-58z" />
    <glyph glyph-name="uniFF7C" unicode="&#xff7c;" horiz-adv-x="128" 
d="M21 13q28 14 49 44t36 77l15 -16q-13 -42 -34 -72.5t-51 -50.5q-1 -4 -2 -5t-3 2zM8 117l11 18q11 -11 18 -19.5t11 -15.5l-12 -17q-7 10 -14 18.5t-14 15.5zM23 176l11 18q10 -10 17 -18.5t11 -14.5l-11 -19q-9 13 -16 21.5t-12 12.5z" />
    <glyph glyph-name="uniFF7D" unicode="&#xff7d;" horiz-adv-x="128" 
d="M76 151l-53 -7l-3 23l62 6l4 3l15 -19l-3 -5q-4 -17 -9.5 -33t-11.5 -31q14 -22 25 -41t18 -35l-16 -18q-11 25 -20 43t-17 29q-11 -24 -22.5 -42t-23.5 -31l-14 16q25 28 42 63.5t27 78.5z" />
    <glyph glyph-name="uniFF7E" unicode="&#xff7e;" horiz-adv-x="128" 
d="M59 129l48 17l9 -17q-5 -20 -12 -39t-16 -37l-16 11q9 17 14.5 31t7.5 25l-35 -13v-76q0 -6 3 -9t9 -3h38v-22h-48q-11 0 -16.5 5.5t-5.5 16.5v81l-30 -11l-3 24l33 9v69h20q3 -1 3 -2t-3 -3v-57z" />
    <glyph glyph-name="uniFF7F" unicode="&#xff7f;" horiz-adv-x="128" 
d="M32 98q-2 13 -6.5 29t-11.5 34l17 12q8 -21 13 -37t6 -26zM113 171q3 -2 2.5 -3t-3.5 -2q-4 -66 -21 -111.5t-47 -70.5l-12 19q27 23 42 66t18 107z" />
    <glyph glyph-name="uniFF80" unicode="&#xff80;" horiz-adv-x="128" 
d="M41 -22l-14 16q16 15 26.5 32t16.5 37q-6 9 -12 16t-11 12l9 19q6 -6 11 -12l10 -12q4 12 6 25.5t2 28.5h-32q-3 -13 -9 -29t-15 -35l-15 12q13 25 21.5 54t12.5 62l18 -7q3 -2 3 -3t-4 -2q-1 -6 -2.5 -13.5t-4.5 -16.5h36l4 2l10 -13l-2 -5q-2 -24 -5.5 -43.5
t-8.5 -34.5l10 -16l-10 -20l-8 13q-6 -17 -17 -34t-26 -33z" />
    <glyph glyph-name="uniFF81" unicode="&#xff81;" horiz-adv-x="128" 
d="M19 162q21 1 41 6.5t39 16.5l10 -19q2 -3 1 -4t-5 1q-5 -4 -12 -7t-15 -5v-41h41v-22h-41q0 -33 -8.5 -60t-25.5 -48l-15 19q15 17 22 39t7 50h-50v22h50v36q-9 -2 -18 -3t-18 -1z" />
    <glyph glyph-name="uniFF82" unicode="&#xff82;" horiz-adv-x="128" 
d="M42 166l15 12q5 -12 9.5 -26t7.5 -30l-17 -12q-3 16 -6.5 30t-8.5 26zM117 168q3 -1 2.5 -2.5t-3.5 -2.5q0 -66 -18.5 -111t-55.5 -69l-12 20q32 18 48.5 60.5t17.5 109.5zM24 163q5 -11 9.5 -25.5t8.5 -32.5l-17 -12q-3 17 -7 31.5t-9 26.5z" />
    <glyph glyph-name="uniFF83" unicode="&#xff83;" horiz-adv-x="128" 
d="M56 66v32h-49v22h111v-22h-42v-32q0 -27 -6.5 -49t-19.5 -39l-16 16q11 14 16.5 32t5.5 40zM101 160h-77v22h77v-22z" />
    <glyph glyph-name="uniFF84" unicode="&#xff84;" horiz-adv-x="128" 
d="M103 59q-12 13 -22.5 21.5t-18.5 13.5v-104h-20v202h20q3 -1 3 -2t-3 -3v-67q16 -10 29 -20t22 -20z" />
    <glyph glyph-name="uniFF85" unicode="&#xff85;" horiz-adv-x="128" 
d="M75 132h46v-22h-46v-30q0 -31 -9 -56.5t-28 -44.5l-13 17q15 15 22.5 37.5t7.5 52.5v24h-49v22h49v62h20q3 -1 3 -2t-3 -3v-57z" />
    <glyph glyph-name="uniFF86" unicode="&#xff86;" horiz-adv-x="128" 
d="M117 46v-22h-108v22h108zM101 160v-22h-77v22h77z" />
    <glyph glyph-name="uniFF87" unicode="&#xff87;" horiz-adv-x="128" 
d="M20 148l-1 22l72 5l3 2l12 -17l-2 -4q-3 -20 -8.5 -39.5t-14.5 -38.5q8 -12 16 -26t16 -30l-16 -15q-8 17 -14.5 29t-11.5 19q-7 -15 -19.5 -30.5t-30.5 -32.5l-11 21q17 13 29 28.5t20 33.5q-9 12 -16 20.5t-12 12.5l11 18q8 -8 14.5 -15.5t11.5 -14.5q6 15 10 29.5
t5 28.5z" />
    <glyph glyph-name="uniFF88" unicode="&#xff88;" horiz-adv-x="128" 
d="M72 158l17 1l3 2l10 -17l-2 -3q-6 -13 -13 -25.5t-15 -24.5v-109h-20v84q-6 -9 -14.5 -17t-18.5 -15l-11 18q21 14 38 36t31 51l-59 -6l-2 22l36 2v46h20q3 -1 3 -2t-3 -3v-40zM89 96q11 -13 19.5 -24t14.5 -21l-12 -18q-10 16 -18.5 27.5t-15.5 18.5z" />
    <glyph glyph-name="uniFF89" unicode="&#xff89;" horiz-adv-x="128" 
d="M29 -2l-15 20q27 29 44 71t24 97l22 -8q3 -2 2.5 -3t-3.5 -2q-11 -57 -29.5 -100.5t-44.5 -74.5z" />
    <glyph glyph-name="uniFF8A" unicode="&#xff8a;" horiz-adv-x="128" 
d="M2 22q11 24 18.5 54t11.5 66l19 -6q3 -1 3 -2.5t-3 -2.5q-6 -41 -14 -72t-18 -52zM104 11q-6 41 -14.5 74.5t-19.5 59.5l17 12q14 -33 23 -67.5t14 -70.5z" />
    <glyph glyph-name="uniFF8B" unicode="&#xff8b;" horiz-adv-x="128" 
d="M45 121q17 3 32.5 9t29.5 15l4 -24q-16 -7 -32.5 -12.5t-33.5 -8.5v-71q0 -6 2.5 -8.5t7.5 -2.5h55l-3 -22h-57q-12 0 -18.5 6.5t-6.5 20.5v157h20q3 -1 3 -2t-3 -3v-54z" />
    <glyph glyph-name="uniFF8C" unicode="&#xff8c;" horiz-adv-x="128" 
d="M14 148v22h80l6 3l14 -16l-2 -6q-3 -62 -23 -101.5t-56 -55.5l-11 22q32 13 49.5 46t19.5 86h-77z" />
    <glyph glyph-name="uniFF8D" unicode="&#xff8d;" horiz-adv-x="128" 
d="M46 154q2 1 3.5 2t3.5 1t4 -1t3 -2q2 -2 9 -14.5t20 -35.5q8 -14 17 -27.5t19 -27.5l-15 -20q-15 25 -29 48.5t-26 45.5q-1 2 -2 2t-2 -2q-7 -15 -15 -31t-17 -33l-15 17q4 6 9 14.5t10 19.5q10 20 16 31t7 13z" />
    <glyph glyph-name="uniFF8E" unicode="&#xff8e;" horiz-adv-x="128" 
d="M73 145h45v-22h-45v-140h-20v140h-44v22h44v56h20q3 -1 3 -2t-3 -3v-51zM43 87q-4 -22 -9.5 -41t-13.5 -34l-16 12q7 15 13 34.5t10 43.5l18 -9q3 -2 2.5 -3.5t-4.5 -2.5zM104 15q-4 19 -10 37.5t-14 35.5l15 12q9 -17 16 -35.5t11 -37.5z" />
    <glyph glyph-name="uniFF8F" unicode="&#xff8f;" horiz-adv-x="128" 
d="M43 99q6 -7 11 -14.5t10 -15.5q9 16 16.5 34t12.5 38l-82 -6l-2 22l92 6l5 3l13 -18l-2 -3q-8 -25 -18.5 -49t-23.5 -46q6 -10 10.5 -19.5t8.5 -17.5l-16 -17q-13 30 -25 51.5t-22 33.5z" />
    <glyph glyph-name="uniFF90" unicode="&#xff90;" horiz-adv-x="128" 
d="M93 67q-18 12 -35 19.5t-32 10.5l4 23q22 -5 39 -12.5t30 -17.5zM20 32l6 23q21 -6 40.5 -16t38.5 -24l-8 -23q-21 15 -40.5 25t-36.5 15zM26 161l4 23q18 -3 35 -9.5t33 -15.5l-7 -22q-18 10 -34.5 16t-30.5 8z" />
    <glyph glyph-name="uniFF91" unicode="&#xff91;" horiz-adv-x="128" 
d="M90 99q10 -20 18.5 -43t15.5 -50l-19 -11l-7 27l-82 -13q-1 -5 -2.5 -5t-3.5 5l-5 23l20 2q7 39 14 79.5t13 83.5l22 -9q3 -2 2.5 -3.5t-4.5 -2.5q-7 -39 -14 -75.5t-14 -71.5l48 6q-4 13 -8 24t-8 21z" />
    <glyph glyph-name="uniFF92" unicode="&#xff92;" horiz-adv-x="128" 
d="M81 191l21 -8q3 -2 2.5 -3.5t-4.5 -2.5q-3 -23 -7.5 -43t-9.5 -37q6 -7 11.5 -14.5t10.5 -15.5l-10 -23q-5 7 -10 14.5t-10 14.5q-8 -23 -19.5 -43t-27.5 -37l-13 18q16 17 27 37t18 43l-12 14t-13 14l11 20q6 -6 11.5 -12t10.5 -12q4 14 7.5 33t5.5 43z" />
    <glyph glyph-name="uniFF93" unicode="&#xff93;" horiz-adv-x="128" 
d="M114 22l-3 -22h-35q-14 0 -21.5 6.5t-7.5 20.5v56h-39v22h39v46h-29v22h87v-22h-38v-46h51v-22h-51v-48q0 -7 3 -10t9 -3h35z" />
    <glyph glyph-name="uniFF94" unicode="&#xff94;" horiz-adv-x="128" 
d="M81 81q7 15 12 28.5t7 25.5l-39 -18l19 -129l-20 -8l-17 127l-37 -16l-4 21l38 16l-9 61l18 4q4 0 4.5 -1t-2.5 -4l7 -52l45 21l7 5l13 -20l-3 -3q-5 -20 -11 -38.5t-14 -34.5z" />
    <glyph glyph-name="uniFF95" unicode="&#xff95;" horiz-adv-x="128" 
d="M120 37v-22h-114v22h64v93h-47v22h67v-115h30z" />
    <glyph glyph-name="uniFF96" unicode="&#xff96;" horiz-adv-x="128" 
d="M104 -6h-20v15h-63v22h63v54h-59v22h59v48h-63v22h83v-183z" />
    <glyph glyph-name="uniFF97" unicode="&#xff97;" horiz-adv-x="128" 
d="M15 104v22h95v-18q0 -46 -16 -78.5t-48 -52.5l-10 19q26 15 39.5 42t14.5 66h-75zM25 162v22h76v-22h-76z" />
    <glyph glyph-name="uniFF98" unicode="&#xff98;" horiz-adv-x="128" 
d="M82 192h20q3 -1 3 -2t-3 -3v-100q0 -37 -11 -64t-33 -44l-13 18q19 14 28 37t9 54v104zM25 183h20q3 -1 3 -2t-3 -3v-110h-20v115z" />
    <glyph glyph-name="uniFF99" unicode="&#xff99;" horiz-adv-x="128" 
d="M3 6q12 17 18 39t6 48v76h18q3 -1 3.5 -2t-1.5 -3v-75q0 -28 -7.5 -53.5t-22.5 -48.5zM60 13v167h20q3 -1 3 -2t-3 -3v-140q10 10 18.5 26.5t15.5 38.5l12 -18q-9 -26 -22.5 -46.5t-30.5 -35.5l-3 -5l-12 15z" />
    <glyph glyph-name="uniFF9A" unicode="&#xff9a;" horiz-adv-x="128" 
d="M121 97q-10 -37 -30 -62.5t-50 -38.5l-5 -4l-12 15l1 2v170h20q3 -1 3 -2t-3 -3v-152q20 9 35.5 32.5t26.5 61.5z" />
    <glyph glyph-name="uniFF9B" unicode="&#xff9b;" horiz-adv-x="128" 
d="M89 28h-52v-17h-20v157h92v-152h-20v12zM89 50v96h-52v-96h52z" />
    <glyph glyph-name="uniFF9C" unicode="&#xff9c;" horiz-adv-x="128" 
d="M112 177v-49q0 -46 -15 -80.5t-45 -57.5l-12 20q26 16 39 45.5t13 72.5v27h-57v-65h-20v87h97z" />
    <glyph glyph-name="uniFF9D" unicode="&#xff9d;" horiz-adv-x="128" 
d="M119 118q-10 -50 -33.5 -80t-60.5 -40q-1 -4 -2.5 -4.5t-2.5 2.5l-6 24q35 7 57 35.5t31 78.5zM56 132l-14 -18q-6 11 -13.5 22.5t-15.5 22.5l13 18q10 -12 17.5 -23.5t12.5 -21.5z" />
    <glyph glyph-name="uniFF9E" unicode="&#xff9e;" horiz-adv-x="128" 
d="M26 201l11 11l27 -27l-11 -11zM7 183l11 11l27 -27l-11 -11z" />
    <glyph glyph-name="uniFF9F" unicode="&#xff9f;" horiz-adv-x="128" 
d="M56 183q0 -9 -6 -15t-15 -6t-15 6t-6 15t6 15t15 6t15 -6t6 -15zM48 183q0 5 -4 9t-9 4t-9 -4t-4 -9t4 -9t9 -4t9 4t4 9z" />
    <glyph glyph-name="uni30A1.vert" orientation="v" 
d="M138 128l20 -2q4 -1 4 -2.5t-4 -3.5v-19q16 12 27.5 22t18.5 19h-134l-2 19h147l8 3l12 -15q2 -3 1 -4.5t-5 -0.5q-11 -14 -25 -28.5t-32 -28.5l-16 13q1 -29 -12 -52.5t-40 -42.5l-18 15q25 15 37.5 34.5t12.5 43.5v30z" />
    <glyph glyph-name="uni30A3.vert" orientation="v" 
d="M168 5h-20v93q-11 -9 -27.5 -18.5t-38.5 -20.5l-14 17q48 23 80.5 48t49.5 53l17 -13q3 -3 2 -4.5t-6 -2.5q-8 -11 -19 -21.5t-24 -21.5v-109z" />
    <glyph glyph-name="uni30A5.vert" orientation="v" 
d="M158 140h63l6 -7q0 -48 -21 -81t-64 -52l-15 15q39 15 59 41.5t21 64.5h-114l2 -46h-20l-2 65h65v42h18q5 -1 5.5 -2.5t-3.5 -4.5v-35z" />
    <glyph glyph-name="uni30A7.vert" orientation="v" 
d="M159 130v-79h73v-19h-163v19h70v79h-56v19h132v-19h-56z" />
    <glyph glyph-name="uni30A9.vert" orientation="v" 
d="M146 96q-13 -20 -31.5 -38.5t-42.5 -35.5l-17 15q24 15 45 34.5t38 44.5h-77v19h85v46h18q5 -1 5.5 -2.5t-3.5 -4.5v-39h70v-19h-70v-96q0 -9 -4 -13.5t-13 -4.5h-25l-3 19h14q6 0 8.5 2t2.5 7v66z" />
    <glyph glyph-name="uni30C3.vert" orientation="v" 
d="M196 49q-14 -15 -33 -26.5t-43 -19.5l-13 19q23 7 41 17.5t31 23.5q14 14 22 37.5t10 57.5l21 -7q5 -2 5 -4t-5 -4q-3 -33 -12 -56.5t-24 -37.5zM123 152l19 10q8 -10 14.5 -21t11.5 -24l-21 -10q-6 13 -12 24.5t-12 20.5zM71 139l20 10q7 -10 13.5 -21.5t11.5 -24.5
l-20 -11q-6 14 -12 25.5t-13 21.5z" />
    <glyph glyph-name="uni30E3.vert" orientation="v" 
d="M137 128l82 20l5 3l16 -16q2 -2 1.5 -3.5t-4.5 -2.5q-9 -15 -18.5 -29t-19.5 -27l-17 11q8 10 15.5 21t14.5 23l-69 -17l34 -101l-20 -7l-33 104l-58 -16l-7 20l58 13l-16 48l21 4q5 0 5.5 -2t-2.5 -5z" />
    <glyph glyph-name="uni30E5.vert" orientation="v" 
d="M242 28h-180v19h108l2 75h-82v19h102l-2 -94h52v-19z" />
    <glyph glyph-name="uni30E7.vert" orientation="v" 
d="M88 21v19h102v42h-96v19h96v40h-102v19h122v-150h-20v11h-102z" />
    <glyph glyph-name="uni30EE.vert" orientation="v" 
d="M202 144h-105v-54h-20v73h145v-28q0 -47 -21.5 -78.5t-65.5 -47.5l-14 17q41 12 61 39.5t20 69.5v9z" />
    <glyph glyph-name="uni30F5.vert" orientation="v" 
d="M157 12l-2 19h25q6 0 10 4t5 11q2 6 2.5 18.5t0.5 31.5v23l-47 -1q-3 -37 -19.5 -64.5t-46.5 -46.5l-15 15q28 16 43.5 40t17.5 55l-57 -2l-3 19l61 2v44h18q5 -1 5.5 -3t-3.5 -5v-36l66 2v-35q0 -17 -0.5 -31.5t-2.5 -27.5q-2 -16 -10.5 -24t-23.5 -8h-24z" />
    <glyph glyph-name="uni30F6.vert" orientation="v" 
d="M112 14q26 21 40 45.5t16 52.5h-61q-5 -10 -11.5 -19.5t-14.5 -18.5l-19 10q19 20 30 43t15 50l21 -4q4 -2 3.5 -3.5t-5.5 -3.5q-2 -12 -5 -20.5t-6 -14.5h121v-19h-47q-3 -32 -17.5 -59.5t-40.5 -50.5z" />
    <glyph glyph-name="glyph164" horiz-adv-x="194" 
d="M84 105l20 -2q4 -1 4 -2.5t-4 -3.5v-19q16 12 27.5 22.5t18.5 19.5l-138 -4l-2 18l151 4l8 3l12 -15q2 -3 1 -4.5t-5 -0.5q-11 -14 -25.5 -28t-31.5 -29l-16 13q1 -29 -12 -52.5t-40 -42.5l-18 15q25 15 37.5 34.5t12.5 43.5v30z" />
    <glyph glyph-name="glyph165" horiz-adv-x="230" vert-adv-y="238" 
d="M122 102q1 -38 -15 -67.5t-50 -50.5l-17 19q30 16 44.5 38.5t14.5 51.5v43h21q5 -1 5.5 -2.5t-3.5 -4.5v-26q18 13 32 26.5t23 26.5l-163 -6l-2 23l182 5l7 2l15 -18q2 -2 0.5 -3t-5.5 0q-15 -20 -33 -38t-39 -35z" />
    <glyph glyph-name="glyph166" horiz-adv-x="167" 
d="M104 -20h-20v93q-11 -9 -27.5 -18.5t-38.5 -20.5l-14 17q48 23 80.5 48t49.5 53l17 -13q3 -3 2 -4.5t-6 -2.5q-8 -11 -19 -21.5t-24 -21.5v-109z" />
    <glyph glyph-name="glyph167" horiz-adv-x="211" vert-adv-y="238" 
d="M15 73q53 22 92.5 53t66.5 71l19 -16q4 -3 2.5 -5.5t-9.5 -3.5q-9 -13 -21.5 -25.5t-27.5 -25.5v-136h-23v117q-17 -14 -37.5 -26t-44.5 -23z" />
    <glyph glyph-name="glyph168" horiz-adv-x="193" 
d="M104 119h63l6 -7q0 -48 -21 -81t-64 -52l-15 15q39 15 59 41.5t21 64.5h-114l2 -46h-20l-2 65h65v42h18q5 -1 5.5 -2.5t-3.5 -4.5v-35z" />
    <glyph glyph-name="glyph169" horiz-adv-x="241" vert-adv-y="238" 
d="M214 141q0 -55 -26 -95t-79 -66l-19 19q49 22 73.5 55t24.5 77h-139l2 -59h-23l-3 81h79v50h20q6 -1 7 -3t-4 -5v-42h75z" />
    <glyph glyph-name="glyph170" horiz-adv-x="190" 
d="M102 108v-79h73v-19h-163v19h70v79h-56v19h132v-19h-56z" />
    <glyph glyph-name="glyph171" horiz-adv-x="229" vert-adv-y="238" 
d="M213 42v-22h-199v22h87v99h-70v22h162v-22h-69v-99h89z" />
    <glyph glyph-name="glyph172" horiz-adv-x="207" 
d="M103 75q-13 -20 -31.5 -38.5t-42.5 -35.5l-17 15q24 15 45 34.5t38 44.5h-77v19h85v46h18q5 -1 5.5 -2.5t-3.5 -4.5v-39h70v-19h-70v-96q0 -9 -4 -13.5t-13 -4.5h-25l-3 19h14q6 0 8.5 2t2.5 7v66z" />
    <glyph glyph-name="glyph173" horiz-adv-x="239" vert-adv-y="245" 
d="M6 26q32 20 57 44.5t43 53.5h-94v22h106v55h21q5 -1 5.5 -3t-3.5 -5v-47h84v-22h-84v-117q0 -12 -5.5 -18t-17.5 -6h-28l-4 22h20q6 1 9 4t3 9v84q-19 -28 -42 -51.5t-50 -42.5z" />
    <glyph glyph-name="glyph174" horiz-adv-x="211" vert-adv-y="241" 
d="M165 126l-57 -2q-3 -43 -22.5 -76.5t-56.5 -57.5l-17 17q35 23 53 52t20 65l-71 -2l-2 20l74 2v56h21q6 -1 6.5 -3t-4.5 -5v-48l79 3v-62q0 -25 -2 -42t-7 -27q-4 -10 -13.5 -15t-24.5 -5h-24l-3 25q8 -1 14.5 -1.5t11.5 -0.5q8 0 12.5 2.5t6.5 7.5q3 8 4.5 22t1.5 34v41
z" />
    <glyph glyph-name="glyph175" horiz-adv-x="236" vert-adv-y="246" 
d="M165 126l-57 -2q-3 -43 -22.5 -76.5t-56.5 -57.5l-17 17q35 23 53 52t20 65l-71 -2l-2 20l74 2v56h21q6 -1 6.5 -3t-4.5 -5v-48l79 3v-62q0 -25 -2 -42t-7 -27q-4 -10 -13.5 -15t-24.5 -5h-24l-3 25q8 -1 14.5 -1.5t11.5 -0.5q8 0 12.5 2.5t6.5 7.5q3 8 4.5 22t1.5 34v41
zM158 194l12 12l15 -15t16 -18l-12 -12q-8 10 -16 18zM186 204l12 12l15 -15t16 -18l-12 -12q-9 10 -16.5 18.5t-14.5 14.5z" />
    <glyph glyph-name="glyph176" horiz-adv-x="246" vert-adv-y="247" 
d="M233 78l-93 -10l19 -81l-22 -5l-19 83l-102 -12l-3 21l100 11l-10 47l-68 -8l-4 21l66 7l-10 46l21 4q5 0 5.5 -1.5t-2.5 -5.5l8 -40l73 10l4 -21l-71 -9l10 -47l94 11z" />
    <glyph glyph-name="glyph177" horiz-adv-x="247" vert-adv-y="252" 
d="M232 78l-93 -10l19 -81l-22 -5l-19 83l-102 -12l-3 21l100 11l-10 47l-68 -8l-4 21l66 7l-10 46l21 4q5 0 5.5 -1.5t-2.5 -5.5l8 -40l73 10l4 -21l-71 -9l10 -47l94 11zM242 183l-13 -11q-7 10 -14.5 18t-14.5 15l12 11q8 -7 15.5 -15.5t14.5 -17.5zM197 165
q-8 11 -14.5 19t-11.5 12l11 11q7 -6 14 -14t14 -18z" />
    <glyph glyph-name="glyph178" horiz-adv-x="206" vert-adv-y="249" 
d="M61 -19l-18 19q49 20 78.5 54.5t39.5 83.5h-80q-11 -19 -23 -34.5t-25 -26.5l-20 13q26 23 43 50.5t24 59.5l23 -8q3 -2 2.5 -3.5t-4.5 -2.5q-2 -7 -4.5 -13.5t-6.5 -12.5h72l9 5l18 -18q4 -4 3 -6.5t-6 -3.5q-9 -55 -40.5 -94t-84.5 -62z" />
    <glyph glyph-name="glyph179" horiz-adv-x="241" vert-adv-y="254" 
d="M61 -19l-18 19q49 20 78.5 54.5t39.5 83.5h-80q-11 -19 -23 -34.5t-25 -26.5l-20 13q26 23 43 50.5t24 59.5l23 -8q3 -2 2.5 -3.5t-4.5 -2.5q-2 -7 -4.5 -13.5t-6.5 -12.5h72l9 5l18 -18q4 -4 3 -6.5t-6 -3.5q-9 -55 -40.5 -94t-84.5 -62zM161 196l13 11q9 -8 17 -16.5
t15 -18.5l-14 -11q-8 11 -15.5 20t-15.5 15zM192 205l12 12q8 -7 15 -15t14 -17l-12 -12q-8 10 -15 18t-14 14z" />
    <glyph glyph-name="glyph180" horiz-adv-x="238" vert-adv-y="241" 
d="M12 82q22 22 36 50.5t20 63.5l25 -6q4 -1 3.5 -3t-5.5 -5q-3 -11 -6.5 -22t-8.5 -21h148v-22h-58q-4 -39 -23 -73t-52 -62l-23 13q35 27 53 57.5t20 64.5h-76q-6 -13 -14.5 -24.5t-18.5 -21.5z" />
    <glyph glyph-name="glyph181" horiz-adv-x="246" vert-adv-y="251" 
d="M12 82q22 22 36 50.5t20 63.5l25 -6q4 -1 3.5 -3t-5.5 -5q-3 -11 -6.5 -22t-8.5 -21h148v-22h-58q-4 -39 -23 -73t-52 -62l-23 13q35 27 53 57.5t20 64.5h-76q-6 -13 -14.5 -24.5t-18.5 -21.5zM179 200q8 -8 16 -17t16 -19l-13 -11q-9 10 -17 19t-15 17zM207 211
q9 -8 17 -17l16 -18l-15 -11q-8 10 -15.5 19t-14.5 16z" />
    <glyph glyph-name="glyph182" horiz-adv-x="204" vert-adv-y="176" 
d="M154 129h-139v22h162v-143h-23v11h-139v22h139v88z" />
    <glyph glyph-name="glyph183" horiz-adv-x="228" vert-adv-y="236" 
d="M151 129h-139v22h162v-143h-23v11h-139v22h139v88zM206 169q-8 11 -16 19.5t-15 15.5l13 10q8 -8 16 -16.5t15 -18.5zM178 159q-7 10 -14.5 19t-15.5 17l13 10q8 -8 15.5 -17t14.5 -19z" />
    <glyph glyph-name="glyph184" vert-adv-y="241" 
d="M181 133h59v-22h-58v-19q0 -38 -19.5 -64.5t-59.5 -42.5l-16 18q36 12 54 33.5t18 53.5v21h-66l1 -51h-22l-1 51h-56v22h56l-1 53h21q5 -1 5.5 -3.5t-4.5 -6.5l1 -43h65v61h22q5 -1 5.5 -3.5t-4.5 -6.5v-51z" />
    <glyph glyph-name="glyph185" vert-adv-y="251" 
d="M181 133h59v-22h-58v-19q0 -38 -19.5 -64.5t-59.5 -42.5l-16 18q36 12 54 33.5t18 53.5v21h-66l1 -51h-22l-1 51h-56v22h56l-1 53h21q5 -1 5.5 -3.5t-4.5 -6.5l1 -43h65v61h22q5 -1 5.5 -3.5t-4.5 -6.5v-51zM231 166l-13 -11q-8 10 -15.5 18t-14.5 14l11 12
q8 -7 16 -15.5t16 -17.5zM250 183l-13 -11q-7 10 -14.5 18t-15.5 14l11 12q9 -7 17 -15.5t15 -17.5z" />
    <glyph glyph-name="glyph186" horiz-adv-x="230" vert-adv-y="236" 
d="M34 16q55 12 96 40t68 73l18 -18q-25 -41 -64.5 -70t-93.5 -46q-1 -6 -3.5 -6.5t-6.5 5.5zM78 105l-16 -21q-15 11 -27.5 19t-22.5 13l15 21q13 -7 25.5 -15t25.5 -17zM106 164l-14 -21q-13 9 -25.5 17t-24.5 15l13 21q14 -8 26.5 -16t24.5 -16z" />
    <glyph glyph-name="glyph187" horiz-adv-x="230" vert-adv-y="243" 
d="M34 16q55 12 96 40t68 73l18 -18q-25 -41 -64.5 -70t-93.5 -46q-1 -6 -3.5 -6.5t-6.5 5.5zM78 105l-16 -21q-15 11 -27.5 19t-22.5 13l15 21q13 -7 25.5 -15t25.5 -17zM106 164l-14 -21q-13 9 -25.5 17t-24.5 15l13 21q14 -8 26.5 -16t24.5 -16zM175 211q9 -7 17.5 -14.5
t16.5 -16.5l-13 -13q-9 10 -17.5 18t-16.5 14zM151 194q9 -7 17.5 -15t16.5 -17l-13 -12q-8 9 -17 17l-18 16z" />
    <glyph glyph-name="glyph188" horiz-adv-x="231" vert-adv-y="218" 
d="M219 15l-20 -17q-21 22 -41 40.5t-40 33.5q-19 -21 -41.5 -40t-47.5 -35l-19 17q53 34 87 68.5t49 69.5l-109 -7l-3 24l116 5l12 3l16 -16q4 -4 3 -6t-7 -3q-9 -17 -19 -32t-21 -29q22 -17 43 -36t42 -40z" />
    <glyph glyph-name="glyph189" horiz-adv-x="247" vert-adv-y="238" 
d="M219 15l-20 -17q-21 22 -41 40.5t-40 33.5q-19 -21 -41.5 -40t-47.5 -35l-19 17q53 34 87 68.5t49 69.5l-109 -7l-3 24l116 5l12 3l16 -16q4 -4 3 -6t-7 -3q-9 -17 -19 -32t-21 -29q22 -17 43 -36t42 -40zM227 171q-9 10 -17.5 18.5t-16.5 15.5l13 12q9 -7 17.5 -15.5
t16.5 -17.5zM199 155q-6 7 -15 16t-20 19l15 12q9 -8 18 -16.5t17 -17.5z" />
    <glyph glyph-name="glyph190" horiz-adv-x="234" vert-adv-y="236" 
d="M164 51l-19 13q11 13 21.5 27t19.5 29l-83 -15v-74q0 -7 3.5 -10.5t10.5 -3.5h92l-3 -22h-95q-15 0 -23 8t-8 24v74l-60 -12l-8 23l68 12v66h21q5 -1 5.5 -3t-3.5 -5v-55l90 15l8 5l18 -18q2 -3 1 -4.5t-5 -1.5q-15 -22 -27.5 -40t-23.5 -32z" />
    <glyph glyph-name="glyph191" horiz-adv-x="251" vert-adv-y="251" 
d="M166 51l-19 13q11 13 21.5 27t19.5 29l-83 -15v-74q0 -7 3.5 -10.5t10.5 -3.5h92l-3 -22h-95q-15 0 -23 8t-8 24v74l-60 -12l-8 23l68 12v66h21q5 -1 5.5 -3t-3.5 -5v-55l90 15l8 5l18 -18q2 -3 1 -4.5t-5 -1.5q-15 -22 -27.5 -40t-23.5 -32zM200 156q-8 9 -15.5 17
t-15.5 15l13 12q8 -7 15.5 -15t15.5 -18zM231 168q-8 10 -15.5 18t-15.5 14l12 12q9 -7 16.5 -15t14.5 -17z" />
    <glyph glyph-name="glyph192" horiz-adv-x="206" vert-adv-y="215" 
d="M162 172l25 -4q5 -1 4.5 -3.5t-5.5 -5.5q-3 -32 -12 -59t-25 -49q-11 -17 -32.5 -33.5t-53.5 -32.5l-18 18q29 13 50.5 29t35.5 36q12 15 19.5 41t11.5 63zM14 160l22 12q9 -11 18 -25.5t18 -32.5l-23 -13q-9 19 -17.5 34t-17.5 25z" />
    <glyph glyph-name="glyph193" horiz-adv-x="226" vert-adv-y="250" 
d="M156 159l25 -8q5 -1 4.5 -3.5t-5.5 -5.5q-5 -24 -13 -45.5t-20 -39.5q-13 -21 -35 -39t-54 -33l-18 18q31 15 52.5 31.5t32.5 34.5q13 19 20.5 41.5t10.5 48.5zM14 160l22 12q9 -11 18 -25.5t18 -32.5l-23 -13q-9 19 -17.5 34t-17.5 25zM173 160q-7 9 -14.5 17t-14.5 15
l12 12q8 -6 15.5 -14t14.5 -17zM204 168q-7 10 -14.5 18.5t-14.5 14.5l12 12q8 -7 15 -15t14 -18z" />
    <glyph glyph-name="glyph194" horiz-adv-x="196" vert-adv-y="247" 
d="M88 163h67l11 4l13 -13q2 -3 1 -5t-5 -3q-4 -20 -10 -38.5t-14 -34.5l24 -16l-15 -22l-22 16q-14 -21 -35 -38.5t-48 -30.5l-23 17q30 12 51.5 28.5t34.5 37.5q-12 8 -24.5 15t-24.5 14l12 18q16 -7 28.5 -13.5t22.5 -12.5q8 15 12.5 29t5.5 26h-73q-9 -17 -21 -32.5
t-26 -29.5l-19 13q26 26 42.5 54t24.5 58l24 -10q4 -2 3 -4t-7 -4q-2 -6 -4.5 -12t-5.5 -11z" />
    <glyph glyph-name="glyph195" horiz-adv-x="236" vert-adv-y="252" 
d="M88 163h67l11 4l13 -13q2 -3 1 -5t-5 -3q-4 -20 -10 -38.5t-14 -34.5l24 -16l-15 -22l-22 16q-14 -21 -35 -38.5t-48 -30.5l-23 17q30 12 51.5 28.5t34.5 37.5q-12 8 -24.5 15t-24.5 14l12 18q16 -7 28.5 -13.5t22.5 -12.5q8 15 12.5 29t5.5 26h-73q-9 -17 -21 -32.5
t-26 -29.5l-19 13q26 26 42.5 54t24.5 58l24 -10q4 -2 3 -4t-7 -4q-2 -6 -4.5 -12t-5.5 -11zM172 200q9 -7 17.5 -15t17.5 -18l-13 -10l-17.5 17.5t-17.5 15.5zM195 215q8 -6 16.5 -13.5t16.5 -17.5l-13 -11q-9 10 -17 18t-16 14z" />
    <glyph glyph-name="glyph196" horiz-adv-x="233" vert-adv-y="226" 
d="M136 112h82v-22h-82q0 -35 -15.5 -61.5t-47.5 -43.5l-16 16q29 16 43 38t13 51h-100v22h100v38q-14 -2 -32 -3t-41 -2l-9 21q49 1 86 5.5t63 12.5l11 -21q2 -4 -0.5 -4.5t-8.5 2.5q-10 -3 -21.5 -5t-24.5 -3v-41z" />
    <glyph glyph-name="glyph197" horiz-adv-x="246" vert-adv-y="251" 
d="M135 112h82v-22h-82q0 -35 -15.5 -61.5t-47.5 -43.5l-16 16q29 16 43 38t13 51h-100v22h100v38q-14 -2 -32 -3t-41 -2l-9 21q49 1 84 5t58 12l11 -21q2 -4 -0.5 -4.5t-8.5 2.5q-8 -2 -17 -4t-22 -3v-41zM213 170l-13 -10q-7 11 -15 19.5t-16 15.5l13 9q9 -8 17 -16.5
t14 -17.5zM238 182l-14 -11q-8 11 -15.5 19.5t-15.5 15.5l13 10q9 -8 17 -16.5t15 -17.5z" />
    <glyph glyph-name="glyph198" horiz-adv-x="188" 
d="M136 28q-14 -15 -33 -26.5t-43 -19.5l-13 19q23 7 41 17.5t31 23.5q14 14 22 37.5t10 57.5l21 -7q5 -2 5 -4t-5 -4q-3 -33 -12 -56.5t-24 -37.5zM63 131l19 10q8 -10 14.5 -21t11.5 -24l-21 -10q-6 13 -12 24.5t-12 20.5zM11 118l20 10q7 -10 13.5 -21.5t11.5 -24.5
l-20 -11q-6 14 -12 25.5t-13 21.5z" />
    <glyph glyph-name="glyph199" horiz-adv-x="221" vert-adv-y="216" 
d="M156 39q-16 -17 -37.5 -29.5t-49.5 -21.5l-18 21q27 7 48 17.5t35 24.5q18 17 29.5 47.5t16.5 74.5l24 -7q5 -2 5 -4t-5 -5q-6 -41 -18 -70.5t-30 -47.5zM40 94q-6 15 -13.5 29.5t-15.5 28.5l22 12q8 -12 15.5 -26.5t14.5 -31.5zM102 113q-7 16 -14 29.5t-15 24.5l23 11
q8 -11 15 -24t14 -29z" />
    <glyph glyph-name="glyph200" horiz-adv-x="236" vert-adv-y="246" 
d="M158 39q-16 -17 -37.5 -29.5t-49.5 -21.5l-18 21q27 7 48 17.5t35 24.5q18 17 29 43t14 64l24 -7q5 -2 5 -4t-5 -5q-4 -34 -15.5 -59.5t-29.5 -43.5zM42 94q-6 15 -13.5 29.5t-15.5 28.5l22 12q8 -12 15.5 -26.5t14.5 -31.5zM104 113q-7 16 -14 29.5t-15 24.5l23 11
q8 -11 15 -24t14 -29zM152 198l14 11q7 -6 14 -14t14 -18l-14 -12q-6 10 -13 18t-15 15zM213 169q-8 11 -15 20t-14 16l14 12q9 -9 16.5 -18t13.5 -19z" />
    <glyph glyph-name="glyph201" horiz-adv-x="227" vert-adv-y="241" 
d="M107 100h-100v22h205v-22h-82v-13q0 -32 -11 -58t-34 -46l-20 15q21 16 31.5 38.5t10.5 50.5v13zM43 161v22h133v-22h-133z" />
    <glyph glyph-name="glyph202" horiz-adv-x="246" vert-adv-y="251" 
d="M215 167l-14 -10q-7 10 -14 19t-14 17l14 9q7 -7 14 -15.5t14 -19.5zM239 181l-14 -10q-8 11 -15 19.5t-13 14.5l14 10q7 -7 14 -15.5t14 -18.5zM115 100h-100v22h205v-22h-82v-13q0 -32 -11 -58t-34 -46l-20 15q21 16 31.5 38.5t10.5 50.5v13zM51 161v22h123v-22h-123z
" />
    <glyph glyph-name="glyph203" horiz-adv-x="166" vert-adv-y="229" 
d="M154 82l-12 -23q-26 13 -48 22t-39 14v-104h-23v200h20q6 -1 7 -3t-4 -5v-63q25 -7 49.5 -16.5t49.5 -21.5z" />
    <glyph glyph-name="glyph204" horiz-adv-x="181" vert-adv-y="239" 
d="M152 82l-12 -23q-26 13 -48 22t-39 14v-104h-23v200h20q6 0 7 -2.5t-4 -5.5v-63q25 -7 49.5 -16.5t49.5 -21.5zM138 147q-8 10 -16.5 18.5t-17.5 15.5l13 10q9 -7 17.5 -15.5t16.5 -18.5zM162 166q-6 8 -14.5 16.5t-18.5 16.5l13 10q9 -6 17 -14.5t16 -18.5z" />
    <glyph glyph-name="glyph205" horiz-adv-x="241" vert-adv-y="238" 
d="M134 133h93v-22h-92v-18q0 -37 -16 -65t-48 -47l-21 16q31 16 46.5 40t15.5 56v18h-99v22h98v60h20q6 -1 6.5 -3t-3.5 -5v-52z" />
    <glyph glyph-name="glyph206" horiz-adv-x="233" vert-adv-y="186" 
d="M12 50h207v-22h-207v22zM37 159h147v-22h-147v22z" />
    <glyph glyph-name="glyph207" horiz-adv-x="211" vert-adv-y="219" 
d="M107 76q-13 9 -26 17.5t-26 15.5l12 18q15 -9 28.5 -17.5t26.5 -16.5q11 14 19.5 29.5t14.5 33.5l-123 -4l-3 21l135 4l6 3l16 -16q3 -3 1.5 -5t-6.5 -3q-8 -20 -18.5 -38.5t-23.5 -36.5q16 -12 30.5 -25t28.5 -26l-18 -18q-13 13 -27 25.5t-30 24.5q-18 -18 -41.5 -34
t-52.5 -29l-18 19q30 11 54 25.5t41 32.5z" />
    <glyph glyph-name="glyph208" horiz-adv-x="238" vert-adv-y="244" 
d="M168 160l6 2l11 -15q2 -4 1 -5.5t-5 -1.5q-10 -11 -24 -23.5t-31 -25.5v-105h-23v89q-16 -11 -34.5 -21t-39.5 -19l-17 18q42 15 76 36.5t60 48.5l-113 -5l-3 22l71 2v45h20q5 -1 5.5 -3t-2.5 -5v-36zM147 79l15 19q18 -10 34 -20.5t29 -22.5l-17 -20q-17 14 -32 25
t-29 19z" />
    <glyph glyph-name="glyph209" horiz-adv-x="181" vert-adv-y="210" 
d="M115 72q-16 -22 -36 -40t-43 -32l-24 19q23 11 42 26t34 34q16 19 28.5 45t21.5 60l27 -12q4 -2 3 -4t-6 -4q-10 -29 -22 -52t-25 -40z" />
    <glyph glyph-name="glyph210" vert-adv-y="176" 
d="M151 140l21 16q25 -32 43 -65t28 -68l-27 -9q-12 39 -28.5 70.5t-36.5 55.5zM94 124q-9 -32 -23.5 -60.5t-34.5 -54.5l-23 15q22 26 37 56t22 64l24 -11q4 -3 3.5 -5t-5.5 -4z" />
    <glyph glyph-name="glyph211" vert-adv-y="226" 
d="M151 140l21 16q25 -32 43 -65t28 -68l-27 -9q-12 39 -28.5 70.5t-36.5 55.5zM94 124q-9 -32 -23.5 -60.5t-34.5 -54.5l-23 15q22 26 37 56t22 64l24 -11q4 -3 3.5 -5t-5.5 -4zM248 180l-13 -12q-9 10 -17 18t-15 14l13 11q7 -6 15 -13.5t17 -17.5zM224 162l-15 -11
q-7 10 -15 18.5t-16 15.5l14 11q8 -7 16 -15.5t16 -18.5z" />
    <glyph glyph-name="glyph212" vert-adv-y="226" 
d="M151 140l21 16q25 -32 43 -65t28 -68l-27 -9q-12 39 -28.5 70.5t-36.5 55.5zM94 124q-9 -32 -23.5 -60.5t-34.5 -54.5l-23 15q22 26 37 56t22 64l24 -11q4 -3 3.5 -5t-5.5 -4zM184 179q0 12 8 20t20 8t20 -8t8 -20t-8 -20t-20 -8t-20 8t-8 20zM230 179q0 7 -5.5 12.5
t-12.5 5.5t-12.5 -5.5t-5.5 -12.5t5.5 -12.5t12.5 -5.5t12.5 5.5t5.5 12.5z" />
    <glyph glyph-name="glyph213" horiz-adv-x="196" vert-adv-y="226" 
d="M173 124q3 -5 0.5 -5.5t-9.5 2.5q-28 -8 -57.5 -13.5t-60.5 -9.5v-65q0 -7 3.5 -10t9.5 -3h115l-2 -22h-117q-16 0 -24 6.5t-8 19.5v157h20q6 -1 6.5 -3t-3.5 -5v-51q34 4 64 10t55 15z" />
    <glyph glyph-name="glyph214" horiz-adv-x="221" vert-adv-y="251" 
d="M173 124q3 -5 0.5 -5.5t-9.5 2.5q-28 -8 -57.5 -13.5t-60.5 -9.5v-65q0 -7 3.5 -10t9.5 -3h115l-2 -22h-117q-16 0 -24 6.5t-8 19.5v157h20q6 -1 6.5 -3t-3.5 -5v-51q34 4 64 10t55 15zM161 157q-8 10 -15.5 18.5t-15.5 16.5l14 11q7 -7 15 -15.5t16 -19.5zM159 205
l12 11q8 -7 16 -15.5t16 -18.5l-13 -11q-9 10 -16.5 18.5t-14.5 15.5z" />
    <glyph glyph-name="glyph215" horiz-adv-x="221" vert-adv-y="251" 
d="M173 124q3 -5 0.5 -5.5t-9.5 2.5q-28 -8 -57.5 -13.5t-60.5 -9.5v-65q0 -7 3.5 -10t9.5 -3h115l-2 -22h-117q-16 0 -24 6.5t-8 19.5v157h20q6 -1 6.5 -3t-3.5 -5v-51q34 4 64 10t55 15zM146 185q0 12 8 20t20 8t20 -8t8 -20t-8 -20t-20 -8t-20 8t-8 20zM192 185
q0 7 -5.5 12.5t-12.5 5.5t-12.5 -5.5t-5.5 -12.5t5.5 -12.5t12.5 -5.5t12.5 5.5t5.5 12.5z" />
    <glyph glyph-name="glyph216" horiz-adv-x="206" vert-adv-y="221" 
d="M32 16q63 14 95.5 47.5t35.5 85.5h-150v22h152l14 3l11 -10q-2 -67 -37 -109.5t-103 -60.5z" />
    <glyph glyph-name="glyph217" horiz-adv-x="226" vert-adv-y="241" 
d="M32 16q63 14 95.5 47.5t35.5 85.5h-150v22h152l14 3l11 -10q-2 -67 -37 -109.5t-103 -60.5zM170 174q-6 7 -12.5 13t-13.5 12l12 12q7 -6 14 -12.5t13 -13.5zM206 177q-8 9 -15.5 16.5t-14.5 13.5l12 10q8 -6 15.5 -13.5t14.5 -15.5z" />
    <glyph glyph-name="glyph218" horiz-adv-x="226" vert-adv-y="241" 
d="M13 149v22h148l26 -19q-2 -61 -36.5 -100.5t-100.5 -57.5l-18 22q63 14 95.5 47.5t35.5 85.5h-150zM164 190q0 12 8 20t20 8t20 -8t8 -20t-8 -20t-20 -8t-20 8t-8 20zM210 190q0 7 -5.5 12.5t-12.5 5.5t-12.5 -5.5t-5.5 -12.5t5.5 -12.5t12.5 -5.5t12.5 5.5t5.5 12.5z
" />
    <glyph glyph-name="glyph219" horiz-adv-x="242" vert-adv-y="166" 
d="M99 157q4 0 7.5 -1.5t6.5 -3.5q23 -21 52.5 -46.5t64.5 -55.5l-22 -20q-26 24 -50.5 46.5t-47.5 43.5q-4 4 -7 6t-5 2t-5 -2t-7 -6q-14 -17 -28 -33t-28 -30l-19 22q20 19 38.5 37t35.5 35q3 3 6.5 4.5t7.5 1.5z" />
    <glyph glyph-name="glyph220" horiz-adv-x="242" vert-adv-y="191" 
d="M99 156q4 0 8 -1.5t6 -3.5q23 -21 52.5 -46.5t64.5 -55.5l-22 -20q-26 24 -50.5 46.5t-47.5 43.5q-4 3 -7 5.5t-5 2.5t-5.5 -2t-6.5 -6q-14 -17 -28 -33t-28 -30l-19 22q20 19 38.5 37t35.5 35q3 3 6.5 4.5t7.5 1.5zM209 171l-12 -12q-9 10 -17.5 18t-15.5 14l12 12
q9 -7 17 -15t16 -17zM152 181q8 -7 16.5 -15t17.5 -17l-12 -12q-10 10 -18.5 17.5t-15.5 13.5z" />
    <glyph glyph-name="glyph221" horiz-adv-x="242" vert-adv-y="191" 
d="M99 156q4 0 8 -1.5t6 -3.5q23 -21 52.5 -46.5t64.5 -55.5l-22 -20q-26 24 -50.5 46.5t-47.5 43.5q-4 3 -7 5.5t-5 2.5t-5.5 -2t-6.5 -6q-14 -17 -28 -33t-28 -30l-19 22q20 19 38.5 37t35.5 35q3 3 6.5 4.5t7.5 1.5zM153 170q0 12 8 20t20 8t20 -8t8 -20t-8 -20t-20 -8
t-20 8t-8 20zM199 170q0 7 -5.5 12.5t-12.5 5.5t-12.5 -5.5t-5.5 -12.5t5.5 -12.5t12.5 -5.5t12.5 5.5t5.5 12.5z" />
    <glyph glyph-name="glyph222" horiz-adv-x="236" vert-adv-y="246" 
d="M33 14l-22 12q13 18 23.5 37t18.5 39l22 -12q3 -3 2 -4.5t-6 -2.5q-7 -17 -16.5 -34t-21.5 -35zM105 201h21q6 -1 6.5 -3t-4.5 -5v-48h92v-22h-92v-139h-23v139h-90v22h90v56zM208 17q-10 18 -23 35.5t-28 33.5l19 16q18 -19 31.5 -36.5t22.5 -33.5z" />
    <glyph glyph-name="glyph223" horiz-adv-x="244" vert-adv-y="251" 
d="M31 14l-22 12q13 18 23.5 37t18.5 39l22 -12q3 -3 2 -4.5t-6 -2.5q-7 -17 -16.5 -34t-21.5 -35zM103 201h21q6 -1 6.5 -3t-4.5 -5v-48h92v-22h-92v-139h-23v139h-90v22h90v56zM206 17q-10 18 -23 35.5t-28 33.5l19 16q18 -19 31.5 -36.5t22.5 -33.5zM161 187l12 12
q9 -7 17 -14.5t16 -15.5l-12 -13l-17 17t-16 14zM189 203l13 11q9 -7 17 -15t16 -17l-13 -12q-9 10 -17 18t-16 15z" />
    <glyph glyph-name="glyph224" horiz-adv-x="244" vert-adv-y="251" 
d="M31 14l-22 12q13 18 23.5 37t18.5 39l22 -12q3 -3 2 -4.5t-6 -2.5q-7 -17 -16.5 -34t-21.5 -35zM103 201h21q6 -1 6.5 -3t-4.5 -5v-48h92v-22h-92v-139h-23v139h-90v22h90v56zM206 17q-10 18 -23 35.5t-28 33.5l19 16q18 -19 31.5 -36.5t22.5 -33.5zM180 186q0 12 8 20
t20 8t20 -8t8 -20t-8 -20t-20 -8t-20 8t-8 20zM226 186q0 7 -5.5 12.5t-12.5 5.5t-12.5 -5.5t-5.5 -12.5t5.5 -12.5t12.5 -5.5t12.5 5.5t5.5 12.5z" />
    <glyph glyph-name="glyph225" horiz-adv-x="231" vert-adv-y="207" 
d="M168 19l-20 -18q-19 22 -40.5 42.5t-46.5 38.5l14 18q9 -6 19 -13.5t21 -17.5q15 15 30.5 33.5t30.5 40.5l-157 -7l-4 25l175 4l10 3l15 -16q3 -4 2 -6t-6 -1q-12 -17 -31.5 -39.5t-45.5 -51.5q11 -10 19.5 -19t14.5 -16z" />
    <glyph glyph-name="glyph226" horiz-adv-x="171" vert-adv-y="222" 
d="M138 65q-21 9 -49 16t-64 13l3 24q31 -4 60.5 -11t56.5 -17zM150 -8q-38 14 -72.5 23.5t-64.5 13.5l5 26q39 -6 74 -15t65 -21zM142 161l-6 -26q-25 9 -53.5 14.5t-61.5 8.5l3 26q41 -5 70.5 -10.5t47.5 -12.5z" />
    <glyph glyph-name="glyph227" horiz-adv-x="250" vert-adv-y="226" 
d="M13 36l42 1q18 39 32 78.5t23 80.5l23 -8q5 -3 4.5 -5.5t-6.5 -3.5q-9 -36 -22 -71t-29 -69l104 5q-10 14 -18.5 24t-14.5 17l20 14q17 -19 33.5 -40.5t31.5 -46.5l-22 -15l-16 26l-168 -13q-3 -5 -5 -5t-4 5z" />
    <glyph glyph-name="glyph228" horiz-adv-x="184" vert-adv-y="221" 
d="M12 17q31 16 53 35t35 40q-14 8 -26 14.5t-23 11.5l12 22q11 -5 23.5 -11.5t26.5 -14.5q7 14 13 33.5t11 44.5l24 -8q4 -1 3.5 -2.5t-4.5 -3.5q-6 -25 -13 -44.5t-14 -32.5q12 -8 22 -15t17 -13l-13 -23q-10 8 -19.5 15.5t-18.5 13.5q-18 -25 -40 -45.5t-48 -35.5z" />
    <glyph glyph-name="glyph229" horiz-adv-x="230" vert-adv-y="225" 
d="M205 3h-87q-12 0 -18.5 6.5t-6.5 19.5v54h-80v22h80v46h-61v22h159v-22h-75v-46h100v-22h-100v-46q0 -6 3 -9t8 -3h79z" />
    <glyph glyph-name="glyph230" horiz-adv-x="206" 
d="M90 108l82 20l5 3l16 -16q2 -2 1.5 -3.5t-4.5 -2.5q-9 -15 -18.5 -29t-19.5 -27l-17 11q8 10 15.5 21t14.5 23l-69 -17l34 -101l-20 -7l-33 104l-58 -16l-7 20l58 13l-16 48l21 4q5 0 5.5 -2t-2.5 -5z" />
    <glyph glyph-name="glyph231" horiz-adv-x="251" vert-adv-y="238" 
d="M108 137l96 24l11 5l18 -18q3 -3 2 -5.5t-6 -3.5q-8 -16 -19.5 -33.5t-26.5 -35.5l-19 14q11 12 20 26t16 29l-85 -22l42 -124l-24 -7l-41 125l-71 -19l-8 22l72 17l-21 60l24 5q5 0 5.5 -2t-2.5 -6z" />
    <glyph glyph-name="glyph232" horiz-adv-x="208" vert-adv-y="157" 
d="M193 8h-180v19h108l2 75h-82v19h102l-2 -94h52v-19z" />
    <glyph glyph-name="glyph233" horiz-adv-x="246" vert-adv-y="191" 
d="M230 16h-216v22h129l3 94h-98v22h122l-3 -116h63v-22z" />
    <glyph glyph-name="glyph234" horiz-adv-x="161" 
d="M12 0v19h102v42h-96v19h96v40h-102v19h122v-150h-20v11h-102z" />
    <glyph glyph-name="glyph235" horiz-adv-x="186" vert-adv-y="226" 
d="M161 177v-181h-23v14h-126v22h126v52h-118v22h118v49h-126v22h149z" />
    <glyph glyph-name="glyph236" horiz-adv-x="207" vert-adv-y="244" 
d="M55 -1q49 12 76 38.5t33 66.5h-152v22h153l9 3l18 -11q3 -3 2.5 -5t-4.5 -4q-8 -50 -37 -82.5t-80 -47.5zM168 161h-138v22h138v-22z" />
    <glyph glyph-name="glyph237" horiz-adv-x="191" vert-adv-y="239" 
d="M155 88q0 -38 -17.5 -65t-52.5 -43l-20 17q33 15 50 38t17 54v100h21q5 -1 5.5 -3t-3.5 -5v-93zM52 66h-23v113h22q5 -1 5.5 -3t-4.5 -5v-105z" />
    <glyph glyph-name="glyph238" vert-adv-y="217" 
d="M150 29q22 8 42.5 25t38.5 43l14 -19q-19 -26 -43 -45t-53 -30l-8 -4l-16 12l2 5v161h21q5 -1 5.5 -3t-3.5 -5v-140zM16 2q25 24 37.5 53.5t12.5 65.5v45h21q5 -1 5.5 -3t-3.5 -5v-36q0 -42 -13 -75.5t-40 -57.5z" />
    <glyph glyph-name="glyph239" horiz-adv-x="218" vert-adv-y="216" 
d="M53 23q46 8 79.5 31.5t54.5 61.5l17 -17q-24 -42 -64 -68t-96 -35l-16 12l2 6v166h22q5 -1 5 -2.5t-4 -4.5v-150z" />
    <glyph glyph-name="glyph240" horiz-adv-x="221" vert-adv-y="201" 
d="M188 17h-23v11h-111v-16h-23v156h157v-151zM54 146v-96h111v96h-111z" />
    <glyph glyph-name="glyph241" horiz-adv-x="196" 
d="M150 120h-105v-54h-20v73h145v-28q0 -47 -21.5 -78.5t-65.5 -47.5l-14 17q41 12 61 39.5t20 69.5v9z" />
    <glyph glyph-name="glyph242" horiz-adv-x="241" vert-adv-y="231" 
d="M101 -11l-19 20q30 11 49.5 25t29.5 32q10 16 14.5 38.5t4.5 50.5h-127v-66h-23v88h176q0 -41 -5.5 -71t-16.5 -50t-31.5 -37t-51.5 -30z" />
    <glyph glyph-name="glyph243" 
d="M88 71h42v57h-42v-57zM153 71h87v-22h-87v-63h-23v63h-116v22h51v57h-24v22h89v57h22q5 -1 5.5 -3t-4.5 -5v-49h61v-22h-61v-57z" />
    <glyph glyph-name="glyph244" vert-adv-y="211" 
d="M146 83l-8 8v-58h102v-22h-229v22h104v81l23 -1v-5q13 9 23.5 18.5t18.5 19.5h-125l-4 22h143l7 4l17 -17q3 -4 1.5 -6.5t-8.5 -2.5q-17 -21 -33.5 -36.5t-31.5 -26.5z" />
    <glyph glyph-name="glyph245" horiz-adv-x="206" vert-adv-y="231" 
d="M16 155v22h155l11 2l11 -11q3 -3 2.5 -5t-4.5 -3q-4 -69 -37.5 -112t-97.5 -60l-17 20q47 13 75.5 35.5t39.5 54.5h-128v22h135q2 8 3.5 16.5t2.5 18.5h-151z" />
    <glyph glyph-name="glyph246" horiz-adv-x="221" vert-adv-y="216" 
d="M208 116q-26 -55 -70.5 -84t-107.5 -32q-2 -7 -4.5 -7.5t-5.5 5.5l-8 26q65 1 109 28t66 79zM16 157l17 21q11 -7 24 -17.5t29 -25.5l-19 -19q-13 12 -26 22.5t-25 18.5z" />
    <glyph glyph-name="glyph247" horiz-adv-x="246" 
d="M125 153h75l12 -12q0 -55 -26 -95t-79 -66l-19 19q49 22 73.5 55t24.5 77h-139l2 -59h-23l-3 81h79v50h20q6 -1 7 -3t-4 -5v-42zM192 164q-6 7 -14 15t-18 17l12 12q8 -6 16 -14t16 -18zM224 172q-8 9 -16 17t-16 15l12 12q8 -6 16 -14t16 -18z" />
    <glyph glyph-name="glyph248" horiz-adv-x="186" 
d="M100 -9l-2 19h25q6 0 10 4t5 11q2 6 2.5 18.5t0.5 31.5v23l-47 -1q-3 -37 -19.5 -64.5t-46.5 -46.5l-15 15q28 16 43.5 40t17.5 55l-57 -2l-3 19l61 2v44h18q5 -1 5.5 -3t-3.5 -5v-36l66 2v-35q0 -17 -0.5 -31.5t-2.5 -27.5q-2 -16 -10.5 -24t-23.5 -8h-24z" />
    <glyph glyph-name="glyph249" horiz-adv-x="199" 
d="M60 -8q26 21 40 45.5t16 52.5h-61q-5 -10 -11.5 -19.5t-14.5 -18.5l-19 10q19 20 30 43t15 50l21 -4q4 -2 3.5 -3.5t-5.5 -3.5q-2 -12 -5 -20.5t-6 -14.5h121v-19h-47q-3 -32 -17.5 -59.5t-40.5 -50.5z" />
    <glyph glyph-name="glyph250" vert-adv-y="191" 
d="M138 128l20 -2q4 -1 4 -2.5t-4 -3.5v-19q16 12 27.5 22t18.5 19h-134l-2 19h147l8 3l12 -15q2 -3 1 -4.5t-5 -0.5q-11 -14 -25 -28.5t-32 -28.5l-16 13q1 -29 -12 -52.5t-40 -42.5l-18 15q25 15 37.5 34.5t12.5 43.5v30z" />
    <glyph glyph-name="glyph251" vert-adv-y="199" 
d="M168 5h-20v93q-11 -9 -27.5 -18.5t-38.5 -20.5l-14 17q48 23 80.5 48t49.5 53l17 -13q3 -3 2 -4.5t-6 -2.5q-8 -11 -19 -21.5t-24 -21.5v-109z" />
    <glyph glyph-name="glyph252" vert-adv-y="209" 
d="M158 140h63l6 -7q0 -48 -21 -81t-64 -52l-15 15q39 15 59 41.5t21 64.5h-114l2 -46h-20l-2 65h65v42h18q5 -1 5.5 -2.5t-3.5 -4.5v-35z" />
    <glyph glyph-name="glyph253" vert-adv-y="160" 
d="M159 130v-79h73v-19h-163v19h70v79h-56v19h132v-19h-56z" />
    <glyph glyph-name="glyph254" vert-adv-y="206" 
d="M146 96q-13 -20 -31.5 -38.5t-42.5 -35.5l-17 15q24 15 45 34.5t38 44.5h-77v19h85v46h18q5 -1 5.5 -2.5t-3.5 -4.5v-39h70v-19h-70v-96q0 -9 -4 -13.5t-13 -4.5h-25l-3 19h14q6 0 8.5 2t2.5 7v66z" />
    <glyph glyph-name="glyph255" vert-adv-y="185" 
d="M196 49q-14 -15 -33 -26.5t-43 -19.5l-13 19q23 7 41 17.5t31 23.5q14 14 22 37.5t10 57.5l21 -7q5 -2 5 -4t-5 -4q-3 -33 -12 -56.5t-24 -37.5zM123 152l19 10q8 -10 14.5 -21t11.5 -24l-21 -10q-6 13 -12 24.5t-12 20.5zM71 139l20 10q7 -10 13.5 -21.5t11.5 -24.5
l-20 -11q-6 14 -12 25.5t-13 21.5z" />
    <glyph glyph-name="glyph256" vert-adv-y="199" 
d="M137 128l82 20l5 3l16 -16q2 -2 1.5 -3.5t-4.5 -2.5q-9 -15 -18.5 -29t-19.5 -27l-17 11q8 10 15.5 21t14.5 23l-69 -17l34 -101l-20 -7l-33 104l-58 -16l-7 20l58 13l-16 48l21 4q5 0 5.5 -2t-2.5 -5z" />
    <glyph glyph-name="glyph257" vert-adv-y="157" 
d="M242 28h-180v19h108l2 75h-82v19h102l-2 -94h52v-19z" />
    <glyph glyph-name="glyph258" vert-adv-y="187" 
d="M88 21v19h102v42h-96v19h96v40h-102v19h122v-150h-20v11h-102z" />
    <glyph glyph-name="glyph259" vert-adv-y="188" 
d="M202 144h-105v-54h-20v73h145v-28q0 -47 -21.5 -78.5t-65.5 -47.5l-14 17q41 12 61 39.5t20 69.5v9z" />
    <glyph glyph-name="glyph260" vert-adv-y="201" 
d="M157 12l-2 19h25q6 0 10 4t5 11q2 6 2.5 18.5t0.5 31.5v23l-47 -1q-3 -37 -19.5 -64.5t-46.5 -46.5l-15 15q28 16 43.5 40t17.5 55l-57 -2l-3 19l61 2v44h18q5 -1 5.5 -3t-3.5 -5v-36l66 2v-35q0 -17 -0.5 -31.5t-2.5 -27.5q-2 -16 -10.5 -24t-23.5 -8h-24z" />
    <glyph glyph-name="glyph261" vert-adv-y="201" 
d="M112 14q26 21 40 45.5t16 52.5h-61q-5 -10 -11.5 -19.5t-14.5 -18.5l-19 10q19 20 30 43t15 50l21 -4q4 -2 3.5 -3.5t-5.5 -3.5q-2 -12 -5 -20.5t-6 -14.5h121v-19h-47q-3 -32 -17.5 -59.5t-40.5 -50.5z" />
    <glyph glyph-name="glyph262" horiz-adv-x="113" 
d="M61 0q0 -11 -7 -18t-18 -7t-18 7t-7 18t7 18t18 7t18 -7t7 -18zM54 0q0 8 -5 13t-13 5t-13 -5t-5 -13t5 -13t13 -5t13 5t5 13z" />
    <glyph glyph-name="glyph263" horiz-adv-x="113" 
d="M37 206h64v-19h-44v-160h-20v179z" />
    <glyph glyph-name="glyph264" horiz-adv-x="113" 
d="M11 -23v19h44v160h20v-179h-64z" />
    <glyph glyph-name="glyph265" horiz-adv-x="113" 
d="M44 -24q-21 30 -33 43l13 18q13 -13 34 -42z" />
    <glyph glyph-name="glyph266" horiz-adv-x="113" 
d="M72 108v-31h-31v31h31z" />
    <glyph glyph-name="glyph267" horiz-adv-x="140" 
d="M11 156v19h93l5 5l16 -16q6 -6 0 -6q-1 -33 -8 -69q-14 -70 -76 -102l-16 21q61 23 72 91h-80v19h83l4 38h-93z" />
    <glyph glyph-name="glyph268" horiz-adv-x="134" 
d="M21 -2q31 28 31 76v32h16q9 -1 1 -6v-18q14 18 27 39h-85v16h95l5 2l9 -12q4 -6 -2 -5q-18 -32 -37 -54l-12 10q0 -63 -36 -96z" />
    <glyph glyph-name="glyph269" horiz-adv-x="114" 
d="M56 74q-15 -19 -39 -38l-11 15q50 37 83 101l15 -13q6 -6 -2 -5q-15 -23 -29 -41v-116h-17v97z" />
    <glyph glyph-name="glyph270" horiz-adv-x="123" 
d="M101 120l10 -10q-2 -96 -57 -134l-11 18q45 28 50 110h-65v-50h-17v66h39v42l16 -3q9 -2 1 -6v-33h34z" />
    <glyph glyph-name="glyph271" horiz-adv-x="120" 
d="M113 26v-16h-107v16h45v83h-34v16h85v-16h-34v-83h45z" />
    <glyph glyph-name="glyph272" horiz-adv-x="132" 
d="M6 18q31 31 54 77h-49v16h57v46l16 -2q9 -2 1 -7v-37h40v-16h-40v-99q0 -17 -20 -17h-12l-4 20q7 -2 14 -2q5 0 5 6v69q-20 -41 -49 -70z" />
    <glyph glyph-name="glyph273" horiz-adv-x="134" 
d="M87 -14l-20 -6l-21 102l-34 -13l-6 19l36 12l-11 48l17 5q6 1 2 -4l10 -43l51 18l14 -14q4 -4 -2 -6q-10 -29 -23 -52l-16 12q10 20 17 39l-38 -14z" />
    <glyph glyph-name="glyph274" horiz-adv-x="129" 
d="M24 101v16h72l-4 -95h30v-16h-116v16h69l3 79h-54z" />
    <glyph glyph-name="glyph275" horiz-adv-x="112" 
d="M90 137v-146h-17v12h-63v16h63v44h-59v16h59v42h-64v16h81z" />
    <glyph glyph-name="glyph276" horiz-adv-x="128" 
d="M27 0q66 33 66 134l19 -7q7 -3 0 -5q-2 -97 -72 -139zM56 87q-8 27 -16 43l16 10q8 -16 16 -41zM39 83l-16 -12q-8 27 -17 47l16 10q10 -20 17 -45z" />
    <glyph glyph-name="glyph277" horiz-adv-x="165" 
d="M11 83v19h142v-19h-142z" />
    <glyph glyph-name="glyph278" horiz-adv-x="158" 
d="M115 156h-104v19h114l8 4l12 -18q3 -6 -3 -5q-21 -36 -45 -66l-16 13v-23q0 -56 -41 -95l-15 21q36 31 36 78v54l19 -2q9 -2 1 -6v-25q19 24 34 51z" />
    <glyph glyph-name="glyph279" horiz-adv-x="145" 
d="M11 73q58 40 101 123l18 -15q6 -6 -2 -6q-16 -26 -34 -50v-140h-20v116q-22 -25 -49 -46z" />
    <glyph glyph-name="glyph280" horiz-adv-x="160" 
d="M39 134v-61h-20v80h48v52l18 -2q12 -2 2 -7v-43h42l11 -12q0 -115 -66 -161l-14 19q57 37 59 135h-80z" />
    <glyph glyph-name="glyph281" horiz-adv-x="153" 
d="M66 38v103h-41v19h102v-19h-41v-103h55v-19h-130v19h55z" />
    <glyph glyph-name="glyph282" horiz-adv-x="163" 
d="M103 2q0 -18 -20 -18h-19l-4 24q8 -2 14 -2q9 0 9 9v84q-23 -51 -61 -88l-16 19q37 33 66 95h-61v19h72v56l19 -2q11 -2 1 -7v-47h48v-19h-48v-123z" />
    <glyph glyph-name="glyph283" horiz-adv-x="144" 
d="M104 126h-33q0 -86 -49 -132l-16 19q43 43 45 113h-41v19h41v58l18 -2q12 -2 2 -7v-49h53v-102q0 -31 -10 -41q-8 -8 -20 -8q-7 0 -22 4l-4 27q15 -6 23 -6q5 0 8 3q5 5 5 31v73z" />
    <glyph glyph-name="glyph284" horiz-adv-x="167" 
d="M83 153l43 7l4 -21l-43 -7l7 -47l57 10l4 -21l-58 -9l13 -79l-22 -4l-12 80l-61 -10l-4 22l62 8l-7 47l-39 -7l-5 22l40 6l-6 46l20 4q9 0 2 -5z" />
    <glyph glyph-name="glyph285" horiz-adv-x="138" 
d="M72 190q9 -5 1 -7q-4 -14 -9 -27l43 5l6 2l12 -17q4 -6 -3 -6q-7 -106 -75 -158l-18 18q65 45 72 141l-43 -4q-16 -39 -30 -61l-17 13q28 45 43 109z" />
    <glyph glyph-name="glyph286" horiz-adv-x="159" 
d="M69 192q8 -4 0 -6q-5 -25 -11 -47h89v-19h-38q0 -83 -42 -135l-20 15q38 41 43 120h-38q-6 -19 -22 -50l-19 14q25 36 37 115z" />
    <glyph glyph-name="glyph287" horiz-adv-x="135" 
d="M11 36h82v98h-82v19h102v-150h-20v14h-82v19z" />
    <glyph glyph-name="glyph288" horiz-adv-x="170" 
d="M63 134h39v62l18 -2q12 -2 2 -7v-53h36v-19h-36v-40q0 -56 -55 -93l-12 21q47 28 47 81v31h-39v-56h-20v56h-32v19h32v55l18 -2q12 -2 2 -7v-46z" />
    <glyph glyph-name="glyph289" horiz-adv-x="151" 
d="M39 193q19 -14 31 -28l-11 -22q-15 18 -30 32zM21 134q18 -15 30 -28l-10 -24q-13 16 -30 32zM144 110q-32 -70 -101 -115q-2 -8 -6 -1l-10 21q69 40 101 115z" />
    <glyph glyph-name="glyph290" horiz-adv-x="163" 
d="M34 146l-3 23l75 6l4 2l13 -19q5 -7 -2 -5q-17 -43 -27 -63q31 -37 57 -75l-16 -21q-31 48 -53 76q-20 -34 -57 -76l-14 20q60 63 86 138z" />
    <glyph glyph-name="glyph291" horiz-adv-x="165" 
d="M54 101l-35 -10l-8 24l43 9v67l18 -2q12 -2 2 -7v-53l60 16l3 1l14 -14q4 -5 -2 -6q-16 -45 -36 -75l-17 14q16 26 28 56l-50 -14v-79q0 -11 13 -11h21q16 0 34 3l-5 -21q-18 -3 -29 -3h-18q-36 0 -36 29v76z" />
    <glyph glyph-name="glyph292" horiz-adv-x="142" 
d="M31 174q10 -17 24 -57l-21 -16q-14 40 -23 57zM126 164q7 -4 0 -6q-5 -120 -77 -175l-14 21q66 46 71 170z" />
    <glyph glyph-name="glyph293" horiz-adv-x="135" 
d="M73 192q7 -4 0 -6q-4 -13 -9 -26l43 3l4 2l11 -14q2 -6 -1 -5q-6 -41 -18 -76q8 -9 15 -17l-12 -23q-7 9 -14 16q-19 -37 -52 -66l-16 21q36 27 53 62q-15 17 -29 27l10 19q13 -10 28 -24q8 28 13 58l-42 -3q-11 -32 -29 -61l-17 14q28 41 44 108z" />
    <glyph glyph-name="glyph294" horiz-adv-x="154" 
d="M21 162q51 2 95 19l9 -19q4 -10 -5 -5q-15 -4 -27 -6v-45h49v-19h-49q0 -69 -41 -105l-15 19q36 31 36 86h-62v19h62v40q-21 -4 -43 -6z" />
    <glyph glyph-name="glyph295" horiz-adv-x="154" 
d="M30 162q9 -21 21 -55l-20 -15q-12 38 -20 58zM70 177q12 -25 21 -50l-19 -14l-20 52zM138 161q8 -4 0 -6q-3 -123 -86 -168l-15 20q79 36 80 161z" />
    <glyph glyph-name="glyph296" horiz-adv-x="154" 
d="M119 180v-19h-86v19h86zM11 100v19h131v-19h-48q0 -86 -30 -119l-18 18q28 25 28 101h-63z" />
    <glyph glyph-name="glyph297" horiz-adv-x="118" 
d="M46 119q32 -15 60 -36l-9 -24q-28 23 -51 35v-104h-20v203l19 -2q10 -2 1 -7v-65z" />
    <glyph glyph-name="glyph298" horiz-adv-x="165" 
d="M74 84v29h-63v19h63v63l19 -2q10 -2 1 -7v-54h59v-19h-59v-38q0 -57 -41 -95l-15 18q36 32 36 86z" />
    <glyph glyph-name="glyph299" horiz-adv-x="153" 
d="M11 23v19h130v-19h-130zM125 155v-19h-98v19h98z" />
    <glyph glyph-name="glyph300" horiz-adv-x="148" 
d="M120 8q-19 29 -37 49q-21 -34 -58 -60l-14 19q36 23 58 58q-13 15 -31 33l11 15q15 -12 31 -28q18 42 20 61q-36 -4 -73 -8l-4 22q41 2 86 8l15 -15q5 -6 -1 -6q-8 -38 -28 -78q23 -25 41 -49z" />
    <glyph glyph-name="glyph301" horiz-adv-x="166" 
d="M113 96q19 -14 41 -37l-12 -23q-20 23 -41 41zM10 54q58 31 88 85l-68 -8l-5 22l44 3v45l19 -2q9 -2 1 -6v-36l22 1l3 1l13 -13q7 -7 -2 -7q-11 -20 -34 -49v-107h-20v86q-18 -19 -46 -36z" />
    <glyph glyph-name="glyph302" horiz-adv-x="126" 
d="M11 19q58 48 78 164l21 -10q7 -4 0 -6q-20 -113 -83 -169z" />
    <glyph glyph-name="glyph303" horiz-adv-x="163" 
d="M26 2l-20 19q26 47 39 118l23 -11q10 -6 -1 -7q-12 -65 -41 -119zM131 9q-13 60 -42 126l20 14q35 -75 47 -128z" />
    <glyph glyph-name="glyph304" horiz-adv-x="132" 
d="M21 180l19 -2q9 -2 1 -7v-54q38 10 73 25l6 -22q-35 -13 -79 -22v-71q0 -10 15 -10h27q16 0 39 3l-5 -21q-21 -3 -34 -3h-26q-36 0 -36 30v154z" />
    <glyph glyph-name="glyph305" horiz-adv-x="140" 
d="M14 139l-3 23l93 3q3 1 5 1l17 -12q4 -5 -2 -6q-6 -115 -87 -160l-14 23q72 37 78 135z" />
    <glyph glyph-name="glyph306" horiz-adv-x="157" 
d="M6 78q34 47 49 71q4 7 8 7q5 0 8 -5q27 -42 43 -61q24 -28 36 -39l-17 -23q-16 17 -36 44q-24 33 -30 43q-1 2 -3 2t-4 -3q-5 -8 -35 -60z" />
    <glyph glyph-name="glyph307" horiz-adv-x="164" 
d="M89 145h56v-19h-56v-140h-20v140h-54v19h54v57l19 -2q10 -2 1 -7v-48zM56 91q7 -3 0 -5q-8 -33 -24 -71l-21 13q17 36 27 72zM116 99q25 -39 36 -67l-19 -17q-13 34 -32 69z" />
    <glyph glyph-name="glyph308" horiz-adv-x="155" 
d="M121 163l9 3l11 -17q4 -7 -2 -5q-25 -55 -51 -90q12 -16 24 -35l-19 -19q-28 46 -56 79l15 19l22 -26q23 36 37 71l-97 -7l-3 23z" />
    <glyph glyph-name="glyph309" horiz-adv-x="116" 
d="M15 53q47 -12 89 -35l-7 -27q-40 23 -86 38zM20 118q41 -12 74 -25l-8 -24q-33 13 -71 27zM19 183q35 -7 73 -21l-6 -26q-36 14 -71 23z" />
    <glyph glyph-name="glyph310" horiz-adv-x="169" 
d="M11 29l21 1q25 76 37 165l22 -8q8 -3 1 -5q-15 -77 -40 -151l67 6q-7 19 -21 45l16 14q25 -41 43 -87l-20 -16q-5 14 -11 28l-101 -15q-2 -9 -6 0z" />
    <glyph glyph-name="glyph311" horiz-adv-x="130" 
d="M92 98q17 -17 26 -28l-12 -25q-11 15 -23 28q-20 -46 -57 -80l-15 24q34 29 56 75q-11 10 -28 25l9 20q14 -12 27 -23q10 40 14 76l20 -9q9 -5 0 -6q-5 -36 -17 -77z" />
    <glyph glyph-name="glyph312" horiz-adv-x="156" 
d="M82 27q0 -4 3 -7t19 -3q14 0 35 3l-5 -21q-13 -3 -30 -3q-26 0 -34 8t-8 21v56h-51v19h51v48h-36v19h102v-19h-46v-48h62v-19h-62v-54z" />
    <glyph glyph-name="glyph313" horiz-adv-x="170" 
d="M60 106l-40 -15l-9 22l44 14l-13 59l20 6q9 2 3 -4l11 -54l57 20q3 1 6 3l16 -16q6 -6 -1 -7q-14 -43 -28 -65l-19 14q14 24 22 50l-49 -18l29 -126l-23 -7z" />
    <glyph glyph-name="glyph314" horiz-adv-x="164" 
d="M152 17h-141v19h83l5 97h-67v19h89l-5 -116h36v-19z" />
    <glyph glyph-name="glyph315" horiz-adv-x="133" 
d="M91 27v55h-73v19h73v53h-80v19h100v-179h-20v14h-79v19h79z" />
    <glyph glyph-name="glyph316" horiz-adv-x="143" 
d="M55 -27l-12 20q50 34 62 109h-94v19h96l6 4l15 -12q6 -5 -1 -6q-8 -88 -72 -134zM22 160v19h88v-19h-88z" />
    <glyph glyph-name="glyph317" horiz-adv-x="131" 
d="M109 81q0 -68 -47 -106l-15 20q42 31 42 90v103l19 -2q10 -3 1 -7v-98zM21 178l19 -2q10 -2 1 -7v-103h-20v112z" />
    <glyph glyph-name="glyph318" horiz-adv-x="168" 
d="M58 106q0 -66 -32 -117l-20 16q32 43 32 101v61l19 -2q10 -3 1 -7v-52zM161 73q-24 -42 -67 -76l-19 15l4 3v162l19 -2q10 -2 1 -7v-137q22 20 48 63z" />
    <glyph glyph-name="glyph319" horiz-adv-x="145" 
d="M41 24q28 13 45 31q21 22 35 55l17 -17q-17 -35 -40 -57q-26 -25 -60 -38l-5 -3l-16 16l4 3v166l19 -2q9 -3 1 -7v-147z" />
    <glyph glyph-name="glyph320" horiz-adv-x="143" 
d="M21 166h110v-151h-21v13h-69v-20h-20v158zM41 47h70v100h-70v-100z" />
    <glyph glyph-name="glyph321" horiz-adv-x="151" 
d="M111 155h-72v-70h-20v89h112v-48q0 -96 -61 -139l-13 22q54 36 54 125v21z" />
    <glyph glyph-name="glyph322" horiz-adv-x="144" 
d="M11 18q47 9 70 34q21 23 38 77l19 -15q-21 -60 -44 -82q-31 -29 -71 -37q-3 -9 -6 1zM14 153l12 23q13 -12 34 -41l-14 -22q-21 29 -32 40z" />
    <glyph glyph-name="glyph323" horiz-adv-x="64" 
d="M16 203l20 -29l-11 -11l-19 30zM36 213l21 -27l-11 -11l-20 28z" />
    <glyph glyph-name="glyph324" horiz-adv-x="59" 
d="M52 191q0 -9 -7 -16t-16 -7t-16 7t-7 16t7 16t16 7t16 -7t7 -16zM44 191q0 7 -4 11t-11 4t-11 -4t-4 -11t4 -11t11 -4t11 4t4 11z" />
    <glyph glyph-name="glyph325" horiz-adv-x="170" vert-adv-y="170" 
 />
    <glyph glyph-name="uni3041" unicode="&#x3041;" 
d="M197 34q0 21 -10.5 30.5t-26.5 11.5q-4 -16 -11.5 -31t-18.5 -30l5 -11l-15 -11l-5 8q-10 -9 -19.5 -13t-18.5 -4q-10 0 -17.5 7.5t-7.5 25.5q0 20 11.5 36.5t32.5 29.5q0 8 0.5 15t0.5 14l-34 -2l-3 19l38 1l2 36h17q6 -1 6.5 -3t-4.5 -5l-3 -27q17 1 34 2.5t33 4.5
l2 -20q-18 -2 -35.5 -3t-35.5 -2v-12t-1 -12q9 2 17 3t15 1l1 13l18 -3q4 -1 4.5 -2.5t-3.5 -2.5l-1 -7q23 -3 38 -17t15 -40q0 -25 -14.5 -39t-48.5 -18l-10 18q31 2 42 11.5t11 27.5zM114 72q1 -11 3 -21t5 -19q6 8 11 19.5t9 25.5q-8 0 -15 -1.5t-13 -3.5zM97 64
q-10 -6 -19.5 -20t-9.5 -26q0 -10 3.5 -13t7.5 -3q7 0 14 3.5t14 11.5q-4 13 -6.5 24.5t-3.5 22.5z" />
    <glyph glyph-name="uni3042" unicode="&#x3042;" 
d="M213 48q0 21 -12 33.5t-35 14.5q-8 -26 -17 -44.5t-19 -28.5l6 -13l-19 -14l-5 11q-13 -11 -24 -16.5t-20 -5.5q-13 0 -23 10.5t-10 29.5q0 27 15.5 47.5t36.5 31.5l2 38l-42 -2l-4 22l47 1q1 11 1.5 22t1.5 22h19q5 -1 5.5 -3t-3.5 -5q-1 -9 -1.5 -18t-1.5 -17
q24 1 44.5 3.5t37.5 5.5l4 -22q-21 -3 -42.5 -4.5t-44.5 -2.5l-2 -32q7 2 17 3.5t22 2.5l3 16l19 -3q5 -1 5.5 -3t-3.5 -5l-1 -7q36 -4 51.5 -23.5t15.5 -45.5q0 -31 -19 -47t-58 -23l-13 22q38 4 52 15t14 34zM54 22q0 -6 3.5 -11t10.5 -5q8 0 16.5 4.5t17.5 14.5
q-5 15 -8 29.5t-4 28.5q-15 -8 -25.5 -23.5t-10.5 -37.5zM120 43q8 11 14 24.5t9 30.5q-9 0 -17 -1.5t-16 -3.5q1 -13 3.5 -25.5t6.5 -24.5z" />
    <glyph glyph-name="uni3043" unicode="&#x3043;" 
d="M56 143l19 -5q6 -2 6 -4t-5 -4q-2 -21 -3.5 -34.5t-1.5 -20.5q0 -29 4.5 -43.5t12.5 -14.5q7 0 12 9.5t9 20.5l18 -13q-4 -13 -14 -27t-27 -14q-15 0 -25 18t-10 65q0 6 1.5 22.5t3.5 44.5zM198 33q-7 31 -17 52.5t-23 34.5l17 11q15 -14 27 -37t20 -56z" />
    <glyph glyph-name="uni3044" unicode="&#x3044;" 
d="M79 -2q-21 0 -32.5 19t-11.5 83q0 20 1 40t3 41l21 -5q6 -2 6.5 -4.5t-5.5 -5.5q-2 -19 -3 -35.5t-1 -31.5q0 -45 5.5 -60t14.5 -15q10 0 17 11.5t12 28.5l20 -14q-9 -26 -22 -39t-25 -13zM240 53l-27 -7q-6 35 -18 62t-31 47l21 12q23 -24 36.5 -52.5t18.5 -61.5z" />
    <glyph glyph-name="uni3045" unicode="&#x3045;" 
d="M142 105q23 0 33 -13t10 -32q0 -35 -22 -55t-55 -27l-13 17q19 3 33 10t24 17q7 6 10 15.5t3 21.5q0 10 -5.5 18.5t-17.5 8.5q-8 0 -25.5 -3.5t-44.5 -9.5l-9 20q48 8 61.5 10t17.5 2zM171 147l-6 -19q-28 3 -47.5 6.5t-30.5 7.5l4 20q16 -5 36 -9t44 -6z" />
    <glyph glyph-name="uni3046" unicode="&#x3046;" 
d="M157 32q10 9 14.5 20.5t4.5 24.5q0 9 -2.5 16t-7.5 12q-4 4 -10 6t-13 2q-14 -2 -34 -7t-46 -13l-11 26q19 3 37 7t34 8q9 2 15.5 3t10.5 1q11 0 20 -3.5t16 -10.5q8 -8 12 -19.5t4 -26.5q0 -20 -6.5 -36.5t-20.5 -29.5q-12 -12 -28 -21t-37 -14l-16 23q21 4 37 12t27 20
zM176 164q-20 2 -44 6t-53 10l6 25q28 -7 52 -11t44 -6z" />
    <glyph glyph-name="uni3047" unicode="&#x3047;" 
d="M45 1q27 28 50.5 51t42.5 41l-72 -7l-6 20q34 -1 59.5 1.5t42.5 8.5l12 -15q-11 -9 -24.5 -20.5t-28.5 -25.5q5 1 8.5 1.5t6.5 0.5q9 0 13 -5t4 -15v-22q0 -5 2 -7t5 -2h50l-4 -18h-52q-9 0 -14 5t-5 16v20q0 6 -3 9.5t-9 3.5t-11.5 -2.5t-10.5 -7.5q-9 -11 -18.5 -22
t-19.5 -21zM85 138v19q16 -3 35 -4.5t41 -1.5l-2 -19q-24 1 -42.5 2.5t-31.5 3.5z" />
    <glyph glyph-name="uni3048" unicode="&#x3048;" 
d="M47 130q45 3 73.5 5.5t40.5 4.5l8 4l17 -17q-19 -14 -35 -27.5t-29 -27.5q10 1 16.5 1.5t9.5 -0.5q6 -2 8.5 -6.5t2.5 -10.5v-34q0 -6 3 -9t9 -2h58l-4 -22h-50q-18 0 -27 7.5t-9 23.5v25q0 6 -3.5 9t-11.5 3q-6 0 -12.5 -3t-13.5 -9q-13 -12 -25 -25t-24 -27l-18 12
q24 28 52.5 56.5t60.5 57.5l-90 -11zM167 167q-22 0 -45.5 1.5t-47.5 4.5l3 23q19 -4 42.5 -6t50.5 -2z" />
    <glyph glyph-name="uni3049" unicode="&#x3049;" 
d="M91 100q-8 -1 -17 -2t-19 -1l-3 18q11 0 20.5 0.5t18.5 1.5v42h15q5 -1 5.5 -3t-3.5 -5v-31q8 1 16.5 3t16.5 6l5 -16q-8 -4 -17.5 -6.5t-20.5 -3.5v-31q10 3 20 4.5t20 1.5q34 0 48.5 -15.5t14.5 -36.5q0 -20 -11.5 -31.5t-32.5 -11.5q-17 0 -26.5 9.5t-13.5 19.5l15 9
q4 -8 10.5 -14t16.5 -6t16.5 5t6.5 21q0 13 -10 24t-35 11q-9 0 -18.5 -2t-20.5 -5v-40q0 -24 -8.5 -30.5t-22.5 -6.5q-12 0 -20.5 7.5t-8.5 21.5q0 18 11 32.5t32 26.5v34zM91 48q-13 -9 -20 -19.5t-7 -21.5q0 -6 4 -9t10 -3t9.5 4t3.5 15v34zM219 105l-16 -16
q-11 12 -21 20.5t-19 14.5l14 17q10 -7 20.5 -16t21.5 -20z" />
    <glyph glyph-name="uni304A" unicode="&#x304a;" 
d="M147 103q40 0 60 -18t20 -45q0 -25 -14.5 -37.5t-34.5 -12.5q-21 0 -31.5 9.5t-17.5 22.5l18 12q4 -10 12 -17t19 -7t19.5 7t8.5 24q0 15 -13 29t-43 14q-11 0 -22.5 -2t-23.5 -6v-53q0 -20 -10.5 -30.5t-28.5 -10.5q-12 0 -23 10t-11 26q0 25 13 40.5t40 30.5v43
q-12 -2 -23.5 -2.5t-22.5 -0.5l-3 21q11 -1 23 -0.5t26 2.5v50h20q4 -1 4 -3t-4 -5v-39q11 2 21 5t19 7l5 -22q-9 -3 -20.5 -5.5t-24.5 -4.5v-39q13 3 24 5t19 2zM50 20q0 -12 5.5 -15.5t10.5 -3.5q9 0 13.5 7t4.5 21v39q-18 -13 -26 -23.5t-8 -24.5zM186 177
q17 -11 29.5 -21.5t21.5 -20.5l-16 -16q-12 12 -24.5 22t-25.5 19z" />
    <glyph glyph-name="uni304B" unicode="&#x304b;" 
d="M68 117q-11 -2 -21.5 -3t-21.5 -2l-2 22q9 0 21.5 0.5t28.5 2.5q5 15 8.5 31t6.5 32l21 -7q6 -3 6 -5t-7 -4l-6 -22t-6 -23q6 1 12.5 1.5t12.5 0.5q7 0 12.5 -2t8.5 -5q6 -6 9 -19.5t3 -34.5q0 -47 -10.5 -66t-29.5 -19q-9 0 -18.5 5.5t-19.5 16.5l13 18q8 -8 14 -12
t10 -4q11 0 15.5 15.5t4.5 49.5q0 14 -1.5 22.5t-4.5 11.5q-1 1 -4 2t-8 1q-4 0 -10.5 -0.5t-14.5 -1.5q-10 -37 -22.5 -69t-27.5 -58l-23 8q15 22 27.5 51.5t23.5 65.5zM166 147l18 13q21 -21 35 -46.5t21 -54.5l-22 -9q-9 32 -22 56.5t-30 40.5z" />
    <glyph glyph-name="uni304C" unicode="&#x304c;" 
d="M68 117q-11 -2 -21.5 -3t-21.5 -2l-2 22q9 0 21.5 0.5t28.5 2.5q5 15 8.5 31t6.5 32l21 -7q6 -3 6 -5t-7 -4l-6 -22t-6 -23q6 1 12.5 1.5t12.5 0.5q7 0 12.5 -2t8.5 -5q6 -6 9 -19.5t3 -34.5q0 -47 -10.5 -66t-29.5 -19q-9 0 -18.5 5.5t-19.5 16.5l13 18q8 -8 14 -12
t10 -4q11 0 15.5 15.5t4.5 49.5q0 14 -1.5 22.5t-4.5 11.5q-1 1 -4 2t-8 1q-4 0 -10.5 -0.5t-14.5 -1.5q-10 -37 -22.5 -69t-27.5 -58l-23 8q15 22 27.5 51.5t23.5 65.5zM166 147l18 13q21 -21 35 -46.5t21 -54.5l-22 -9q-9 32 -22 56.5t-30 40.5zM210 212q9 -5 19 -12
t21 -16l-12 -12q-11 8 -21 15t-19 13zM217 148q-11 9 -21 16.5t-18 12.5l12 12q9 -5 19 -12t21 -16z" />
    <glyph glyph-name="uni304D" unicode="&#x304d;" 
d="M156 123q16 2 32 5.5t31 8.5l9 -21q-13 -3 -28 -6t-33 -5q8 -10 17.5 -19.5t21.5 -18.5l-17 -17q-18 4 -32 6t-25 2q-35 0 -47 -8t-12 -19q0 -12 9.5 -18t41.5 -6h61l-4 -22h-61q-35 0 -51.5 12t-16.5 35q0 18 17.5 30.5t63.5 12.5q9 0 18 -1l18 -2q-7 7 -13 14.5
t-12 14.5q-23 -3 -49 -4.5t-54 -1.5l-3 21q26 -1 50 0t46 4q-3 6 -6 12.5t-5 12.5q-18 -2 -37.5 -2.5t-39.5 -0.5l-2 20q21 -1 39.5 -0.5t34.5 2.5q-2 9 -4 19t-4 22h22q5 -1 5.5 -3t-4.5 -5q1 -8 2.5 -15.5t2.5 -14.5q13 1 26.5 3.5t26.5 6.5l7 -20q-17 -3 -30.5 -5.5
t-23.5 -3.5q2 -6 5 -12.5t7 -12.5z" />
    <glyph glyph-name="uni304E" unicode="&#x304e;" 
d="M156 121q16 2 32 5.5t31 8.5l9 -21q-13 -3 -28 -6t-33 -5q8 -10 17.5 -19.5t21.5 -18.5l-17 -17q-18 4 -32 6t-25 2q-35 0 -47 -8t-12 -19q0 -12 9.5 -18t41.5 -6h61l-4 -22h-61q-35 0 -51.5 12t-16.5 35q0 18 17.5 30.5t63.5 12.5q9 0 18 -1l18 -2q-7 7 -13 14.5
t-12 14.5q-23 -3 -49 -4.5t-54 -1.5l-3 21q26 -1 50 0t46 4q-3 6 -6 12.5t-5 12.5q-18 -2 -37.5 -2.5t-39.5 -0.5l-2 20q21 -1 39.5 -0.5t34.5 2.5q-2 9 -4 19t-4 22h22q5 0 5.5 -2.5t-4.5 -5.5q1 -8 2.5 -15.5t2.5 -14.5q13 1 26.5 3.5t26.5 6.5l7 -20q-17 -3 -30.5 -5.5
t-23.5 -3.5q2 -6 5 -12.5t7 -12.5zM241 173q-11 9 -21 16t-20 13l10 13q11 -7 21.5 -14t19.5 -15zM237 165l-10 -14q-11 8 -21.5 15.5t-20.5 13.5l11 13q10 -7 20.5 -14t20.5 -14z" />
    <glyph glyph-name="uni304F" unicode="&#x304f;" 
d="M73 113q33 30 54 53t30 39l18 -14q5 -5 3.5 -7t-8.5 -1q-7 -11 -27 -31.5t-52 -50.5q-2 -2 -3 -4t-1 -3q0 -3 1 -5.5t3 -3.5q28 -22 50.5 -43t39.5 -40l-18 -18q-17 20 -38.5 41.5t-47.5 43.5q-7 6 -11 12t-4 11t3 10.5t8 10.5z" />
    <glyph glyph-name="uni3050" unicode="&#x3050;" 
d="M76 111q33 30 54 53t30 39l18 -14q6 -4 4 -6.5t-9 -1.5q-7 -11 -27 -31.5t-52 -50.5q-2 -2 -3 -4t-1 -3q0 -3 1 -5.5t3 -3.5q28 -22 50.5 -43t39.5 -40l-18 -18q-17 20 -38.5 41.5t-47.5 43.5q-7 6 -11 12t-4 11t3 10.5t8 10.5zM189 168q9 -7 18.5 -15t19.5 -17l-11 -14
q-12 10 -21.5 18t-16.5 14zM208 192q8 -7 17.5 -15t20.5 -17l-11 -14q-10 9 -19.5 17t-18.5 15z" />
    <glyph glyph-name="uni3051" unicode="&#x3051;" 
d="M188 82q0 -29 -8.5 -54t-25.5 -46l-21 12q18 20 26.5 43t8.5 49v28q-19 -2 -37 -2.5t-35 -0.5v22q17 -1 35 -0.5t37 2.5v61h18q5 -1 5.5 -3t-3.5 -5v-52q13 1 24.5 2.5t22.5 3.5l3 -21q-13 -2 -25.5 -3t-24.5 -2v-34zM49 186l19 -5q7 -2 7 -4t-6 -5q-4 -22 -6.5 -43.5
t-2.5 -43.5q0 -18 2 -37t6 -39l-22 -4q-3 18 -5 38t-2 42q0 29 2.5 54t7.5 47z" />
    <glyph glyph-name="uni3052" unicode="&#x3052;" 
d="M184 80q0 -29 -8.5 -54t-25.5 -46l-21 12q18 20 26.5 43t8.5 49v28q-19 -2 -37 -2.5t-35 -0.5v22q17 -1 35 -0.5t37 2.5v61h18q5 0 5.5 -2.5t-3.5 -5.5v-52q13 1 24.5 2.5t22.5 3.5l3 -21q-13 -2 -25.5 -3t-24.5 -2v-34zM45 184l19 -5q7 -2 7 -4t-6 -5q-4 -22 -6.5 -43.5
t-2.5 -43.5q0 -18 2 -37t6 -39l-22 -4q-3 18 -5 38t-2 42q0 29 2.5 54t7.5 47zM213 214q9 -5 18 -11t19 -13l-9 -14q-10 8 -19.5 14t-17.5 10zM201 189q8 -4 17.5 -10t19.5 -14l-9 -14q-11 8 -20.5 14t-16.5 10z" />
    <glyph glyph-name="uni3053" unicode="&#x3053;" 
d="M103 5q-30 0 -42.5 12t-12.5 32q0 5 1 11.5t3 14.5l23 -3l-3.5 -14t-1.5 -9q0 -12 8.5 -17t25.5 -5h109v-22h-110zM63 174h130v-22h-130v22z" />
    <glyph glyph-name="uni3054" unicode="&#x3054;" 
d="M103 0q-30 0 -42.5 12t-12.5 32q0 5 1 11.5t3 14.5l23 -3l-3.5 -14t-1.5 -9q0 -12 8.5 -17t25.5 -5h109v-22h-110zM63 169h130v-22h-130v22zM212 213q9 -5 18.5 -11t19.5 -14l-9 -14q-11 8 -20.5 14t-17.5 11zM198 190q9 -5 18.5 -11t19.5 -14l-9 -14q-11 8 -20.5 14
t-17.5 11z" />
    <glyph glyph-name="uni3055" unicode="&#x3055;" 
d="M50 130l-6 20q25 0 44.5 0.5t34.5 1.5q-5 14 -8.5 27t-5.5 25h22q5 -1 5.5 -3t-3.5 -5q2 -10 5 -20.5t7 -21.5q18 1 33 3.5t27 5.5l5 -22q-14 -2 -28.5 -3.5t-28.5 -2.5q10 -19 25.5 -35.5t35.5 -30.5l-15 -18q-18 8 -36.5 12.5t-36.5 4.5q-23 0 -37.5 -7t-14.5 -23
q0 -14 15.5 -23.5t59.5 -9.5h35l-5 -22h-38q-45 0 -66.5 15.5t-21.5 39.5t18 36t49 12q19 0 30 -1t14 -3q-12 15 -20 27.5t-13 23.5q-20 -2 -40.5 -2.5t-40.5 -0.5z" />
    <glyph glyph-name="uni3056" unicode="&#x3056;" 
d="M50 130l-6 20q25 0 44.5 0.5t34.5 1.5q-5 14 -8.5 27t-5.5 25h22q5 -1 5.5 -3t-3.5 -5q2 -10 5 -20.5t7 -21.5q18 1 33 3.5t27 5.5l5 -22q-14 -2 -28.5 -3.5t-28.5 -2.5q10 -19 25.5 -35.5t35.5 -30.5l-15 -18q-18 8 -36.5 12.5t-36.5 4.5q-23 0 -37.5 -7t-14.5 -23
q0 -14 15.5 -23.5t59.5 -9.5h35l-5 -22h-38q-45 0 -66.5 15.5t-21.5 39.5t18 36t49 12q19 0 30 -1t14 -3q-12 15 -20 27.5t-13 23.5q-20 -2 -40.5 -2.5t-40.5 -0.5zM213 215q8 -5 17.5 -11t19.5 -13l-9 -14q-10 7 -19.5 13t-17.5 11zM199 192q8 -5 17.5 -11t19.5 -13l-9 -14
q-10 7 -19.5 13t-17.5 11z" />
    <glyph glyph-name="uni3057" unicode="&#x3057;" 
d="M133 -11q-18 0 -31 4t-22 13q-6 6 -9.5 18.5t-3.5 31.5v134h21q5 -1 5.5 -3t-3.5 -5v-126q0 -13 2.5 -21.5t6.5 -12.5q6 -6 14 -8.5t19 -2.5q20 0 39.5 11t39.5 33l15 -19q-21 -24 -44.5 -35.5t-48.5 -11.5z" />
    <glyph glyph-name="uni3058" unicode="&#x3058;" 
d="M133 -11q-18 0 -31 4t-22 13q-6 6 -9.5 18.5t-3.5 31.5v134h21q5 -1 5.5 -3t-3.5 -5v-126q0 -13 2.5 -21.5t6.5 -12.5q6 -6 14 -8.5t19 -2.5q20 0 39.5 11t39.5 33l15 -19q-21 -24 -44.5 -35.5t-48.5 -11.5zM201 173l-10 -13q-10 7 -20 13t-19 12l10 13q10 -7 20 -13
t19 -12zM181 151l-10 -13q-10 6 -19.5 12.5t-19.5 12.5l10 13q10 -6 20 -12.5t19 -12.5z" />
    <glyph glyph-name="uni3059" unicode="&#x3059;" 
d="M103 45q-17 0 -27.5 10.5t-10.5 25.5q0 16 12 28t30 12q6 0 12 -1t11 -2v22l-110 -7l-4 21l114 5v47h18q6 -1 6.5 -3t-4.5 -5v-38l85 6v-21l-85 -4v-38q2 -9 3 -19t1 -21q0 -26 -14.5 -47.5t-42.5 -38.5l-19 14q25 14 37.5 29.5t12.5 31.5q-6 -4 -12 -5.5t-13 -1.5z
M85 81q0 -10 6 -14.5t15 -4.5q11 0 17.5 6t6.5 16q0 7 -5 13.5t-16 6.5q-9 0 -16.5 -6t-7.5 -17z" />
    <glyph glyph-name="uni305A" unicode="&#x305a;" 
d="M103 45q-17 0 -27.5 10.5t-10.5 25.5q0 16 12 28t30 12q6 0 12 -1t11 -2v22l-110 -7l-4 21l114 5v47h18q6 -1 6.5 -3t-4.5 -5v-38l85 6v-21l-85 -4v-38q2 -9 3 -19t1 -21q0 -26 -14.5 -47.5t-42.5 -38.5l-19 14q25 14 37.5 29.5t12.5 31.5q-6 -4 -12 -5.5t-13 -1.5z
M85 81q0 -10 6 -14.5t15 -4.5q11 0 17.5 6t6.5 16q0 7 -5 13.5t-16 6.5q-9 0 -16.5 -6t-7.5 -17zM208 170q-7 6 -15 11.5t-17 11.5l10 12q9 -5 17 -11t16 -13zM238 180q-7 5 -15 11t-17 12l10 12q9 -6 17 -12l16 -12z" />
    <glyph glyph-name="uni305B" unicode="&#x305b;" 
d="M182 74q0 -14 -6.5 -21t-20.5 -7h-33l-4 22h34q5 0 7.5 2.5t2.5 7.5v32l-75 -5v-73q0 -9 5 -13.5t14 -4.5h98l-4 -22h-95q-19 0 -28.5 9.5t-9.5 28.5v73l-50 -4l-3 21l53 3v51h18q5 -1 5.5 -3t-3.5 -5v-42l75 5v59h18q5 -1 5.5 -3t-3.5 -5v-50l54 3l2 -21l-56 -1v-37z
" />
    <glyph glyph-name="uni305C" unicode="&#x305c;" 
d="M182 74q0 -14 -6.5 -21t-20.5 -7h-33l-4 22h34q5 0 7.5 2.5t2.5 7.5v32l-75 -5v-73q0 -9 5 -13.5t14 -4.5h98l-4 -22h-95q-19 0 -28.5 9.5t-9.5 28.5v73l-50 -4l-3 21l53 3v51h18q5 -1 5.5 -3t-3.5 -5v-42l75 5v59h18q5 -1 5.5 -3t-3.5 -5v-50l54 3l2 -21l-56 -1v-37z
M212 216q10 -6 19 -12l18 -12l-9 -14q-10 7 -19.5 13t-17.5 11zM201 191q8 -5 17.5 -11t19.5 -13l-9 -14q-10 7 -19.5 13t-17.5 11z" />
    <glyph glyph-name="uni305D" unicode="&#x305d;" 
d="M71 162l-4 21q35 1 56.5 3.5t30.5 6.5l10 4l18 -19q3 -3 2 -4.5t-6 -2.5q-20 -16 -40 -31.5t-41 -31.5q31 4 64 7.5t68 6.5v-21l-38 -3q-29 -3 -51.5 -17.5t-22.5 -38.5q0 -21 19 -30t53 -9l-9 -26q-42 3 -64 18.5t-22 41.5q0 18 9 32t26 24q-27 -4 -51.5 -7.5
t-47.5 -7.5l-5 22q11 1 21 2.5t20 3.5q14 9 32.5 25.5t42.5 39.5q-17 -3 -34.5 -5.5t-35.5 -3.5z" />
    <glyph glyph-name="uni305E" unicode="&#x305e;" 
d="M71 162l-4 21q35 1 56.5 3.5t30.5 6.5l10 4l18 -19q3 -3 2 -4.5t-6 -2.5q-20 -16 -40 -31.5t-41 -31.5q31 4 64 7.5t68 6.5v-21l-38 -3q-29 -3 -51.5 -17.5t-22.5 -38.5q0 -21 19 -30t53 -9l-9 -26q-42 3 -64 18.5t-22 41.5q0 18 9 32t26 24q-27 -4 -51.5 -7.5
t-47.5 -7.5l-5 22q11 1 21 2.5t20 3.5q14 9 32.5 25.5t42.5 39.5q-17 -3 -34.5 -5.5t-35.5 -3.5zM227 153q-11 9 -21 15.5t-18 9.5l10 12q8 -4 18 -10t21 -15zM240 179q-11 8 -20.5 14.5t-18.5 10.5l10 12q10 -5 20 -11.5t19 -13.5z" />
    <glyph glyph-name="uni305F" unicode="&#x305f;" 
d="M229 13v-22h-44q-19 0 -37 4.5t-35 13.5l9 18q13 -7 29 -10.5t34 -3.5h44zM54 -11l-22 7q14 31 23.5 64t14.5 68q-12 -1 -22.5 -1.5t-20.5 -0.5l-4 20q14 0 26.5 0.5t23.5 1.5q2 15 4 28.5t3 25.5l20 -4q6 -2 6.5 -4t-4.5 -4q-1 -6 -3 -16t-5 -24q12 1 22.5 3t19.5 5
l4 -20q-13 -3 -25 -5t-24 -3q-7 -45 -16.5 -80t-20.5 -61zM224 96q-29 -1 -51.5 -5t-39.5 -11l-6 20q22 8 45 12.5t48 4.5z" />
    <glyph glyph-name="uni3060" unicode="&#x3060;" 
d="M229 13v-22h-44q-19 0 -37 4.5t-35 13.5l9 18q13 -7 29 -10.5t34 -3.5h44zM54 -11l-22 7q14 31 23.5 64t14.5 68q-12 -1 -22.5 -1.5t-20.5 -0.5l-4 20q14 0 26.5 0.5t23.5 1.5q2 15 4 28.5t3 25.5l20 -4q6 -2 6.5 -4t-4.5 -4q-1 -6 -3 -16t-5 -24q12 1 22.5 3t19.5 5
l4 -20q-13 -3 -25 -5t-24 -3q-7 -45 -16.5 -80t-20.5 -61zM224 96q-29 -1 -51.5 -5t-39.5 -11l-6 20q22 8 45 12.5t48 4.5zM200 206q8 -5 18 -11.5t21 -14.5l-9 -14q-11 8 -20.5 14.5t-18.5 11.5zM180 186q9 -6 19 -12.5t20 -13.5l-9 -14q-11 7 -20.5 13.5t-18.5 12.5z" />
    <glyph glyph-name="uni3061" unicode="&#x3061;" 
d="M197 45q0 12 -9.5 21.5t-29.5 9.5q-13 0 -24.5 -2.5t-21.5 -7.5q-6 -3 -16 -10.5t-24 -18.5l-18 14l6 6t5 7q6 17 10.5 34.5t7.5 35.5q-13 -2 -25.5 -2.5t-23.5 -0.5l-3 20q12 0 26 0.5t30 2.5q3 11 4.5 22.5t2.5 24.5l19 -5q6 -2 6.5 -4t-4.5 -4q-1 -8 -3 -16l-4 -16
q20 2 36 4t27 5l4 -21q-20 -3 -37.5 -5t-33.5 -3q-3 -15 -6.5 -30t-7.5 -29q18 9 34.5 13.5t30.5 4.5q32 0 48 -14t16 -39q0 -29 -24 -43.5t-86 -13.5l-7 22q51 -2 73 6.5t22 31.5z" />
    <glyph glyph-name="uni3062" unicode="&#x3062;" 
d="M197 45q0 12 -9.5 21.5t-29.5 9.5q-13 0 -24.5 -2.5t-21.5 -7.5q-6 -3 -16 -10.5t-24 -18.5l-18 14l6 6t5 7q6 17 10.5 34.5t7.5 35.5q-13 -2 -25.5 -2.5t-23.5 -0.5l-3 20q12 0 26 0.5t30 2.5q3 11 4.5 22.5t2.5 24.5l19 -5q6 -2 6.5 -4t-4.5 -4q-1 -8 -3 -16l-4 -16
q20 2 36 4t27 5l4 -21q-20 -3 -37.5 -5t-33.5 -3q-3 -15 -6.5 -30t-7.5 -29q18 9 34.5 13.5t30.5 4.5q32 0 48 -14t16 -39q0 -29 -24 -43.5t-86 -13.5l-7 22q51 -2 73 6.5t22 31.5zM203 214q9 -5 18 -11t19 -13l-9 -14q-10 7 -19.5 13t-17.5 11zM184 193q9 -5 18 -11t19 -13
l-9 -14q-10 7 -19.5 13t-17.5 11z" />
    <glyph glyph-name="uni3063" unicode="&#x3063;" 
d="M53 81l-10 21q16 5 30.5 9.5t27.5 8.5q15 4 28.5 6.5t26.5 2.5q26 0 42.5 -16.5t16.5 -41.5q0 -15 -3.5 -26.5t-11.5 -18.5q-13 -14 -36 -21t-55 -8l-8 21q32 0 52.5 5.5t30.5 15.5q6 5 8.5 13t2.5 19q0 14 -9.5 26.5t-32.5 12.5q-9 0 -20 -2t-24 -6q-12 -4 -26 -9.5
t-30 -11.5z" />
    <glyph glyph-name="uni3064" unicode="&#x3064;" 
d="M95 30q38 0 62.5 6.5t36.5 18.5q8 7 11.5 16.5t3.5 20.5q0 19 -12 35t-46 16q-12 0 -27 -3t-32 -9q-13 -5 -27 -10.5t-30 -12.5l-11 26l56 16q25 7 43.5 10.5t30.5 3.5q40 0 59 -19t19 -51q0 -17 -4.5 -30t-13.5 -22q-17 -17 -45 -26t-68 -9z" />
    <glyph glyph-name="uni3065" unicode="&#x3065;" 
d="M95 30q38 0 62.5 6.5t36.5 18.5q8 7 11.5 16.5t3.5 20.5q0 19 -12 35t-46 16q-12 0 -27 -3t-32 -9q-13 -5 -27 -10.5t-30 -12.5l-11 26l56 16q25 7 43.5 10.5t30.5 3.5q40 0 59 -19t19 -51q0 -17 -4.5 -30t-13.5 -22q-17 -17 -45 -26t-68 -9zM208 162q-6 7 -14.5 14.5
t-19.5 15.5l12 12q10 -7 19 -14.5t16 -14.5zM235 176q-9 9 -17 16.5t-16 13.5l12 12q9 -7 17 -14.5t16 -15.5z" />
    <glyph glyph-name="uni3066" unicode="&#x3066;" 
d="M226 157q-17 0 -31 -2t-24 -5q-11 -4 -21 -11t-20 -16q-9 -10 -14 -22t-5 -27q0 -28 21 -43.5t71 -17.5l-8 -22q-56 2 -80.5 24.5t-24.5 57.5q0 23 9.5 41.5t27.5 32.5q-23 -4 -47 -7.5t-49 -6.5l-6 23q49 3 98.5 9t98.5 15z" />
    <glyph glyph-name="uni3067" unicode="&#x3067;" 
d="M226 157q-17 0 -31 -2t-24 -5q-11 -4 -21 -11t-20 -16q-9 -10 -14 -22t-5 -27q0 -28 21 -43.5t71 -17.5l-8 -22q-56 2 -80.5 24.5t-24.5 57.5q0 23 9.5 41.5t27.5 32.5q-23 -4 -47 -7.5t-49 -6.5l-6 23q49 3 98.5 9t98.5 15zM166 104l10 12q8 -5 17.5 -11t20.5 -14
l-10 -12q-11 8 -20.5 14t-17.5 11zM186 128l10 12q7 -4 16.5 -10.5t21.5 -14.5l-10 -12q-12 8 -21.5 14.5t-16.5 10.5z" />
    <glyph glyph-name="uni3068" unicode="&#x3068;" 
d="M91 200h21q6 -1 6.5 -3t-4.5 -5l2 -48q1 -11 2.5 -19.5t4.5 -14.5q14 6 33 12t42 13l10 -26q-68 -13 -103 -32t-35 -40q0 -11 8.5 -17t27.5 -6h96v-22h-97q-33 0 -46 13t-13 30q0 18 11.5 33t44.5 33q-3 7 -4.5 15.5t-2.5 17.5z" />
    <glyph glyph-name="uni3069" unicode="&#x3069;" 
d="M91 200h21q6 -1 6.5 -3t-4.5 -5l2 -48q1 -11 2.5 -19.5t4.5 -14.5q14 6 33 12t42 13l10 -26q-68 -13 -103 -32t-35 -40q0 -11 8.5 -17t27.5 -6h96v-22h-97q-33 0 -46 13t-13 30q0 18 11.5 33t44.5 33q-3 7 -4.5 15.5t-2.5 17.5zM221 162l-10 -13q-9 6 -18.5 12t-20.5 13
l10 13q12 -7 21.5 -13.5t17.5 -11.5zM243 182l-10 -13q-10 7 -20 13t-19 12l10 13q11 -7 21 -13.5t18 -11.5z" />
    <glyph glyph-name="uni306A" unicode="&#x306a;" 
d="M178 113q6 -1 6.5 -3t-4.5 -5v-58q13 -4 26 -9.5t26 -12.5l-12 -19q-11 6 -21 11t-19 8q-2 -21 -14 -32t-32 -11q-25 0 -37 9.5t-12 27.5q0 15 13.5 25.5t34.5 10.5q9 0 15.5 -1t11.5 -2v61h18zM31 135l-3 21q13 0 25.5 0.5t24.5 1.5q3 9 6 21t6 27l18 -6q5 -2 5 -4
t-5 -4l-9 -32q9 1 17.5 2.5t17.5 4.5l5 -21q-14 -3 -25.5 -5t-20.5 -2q-8 -26 -19.5 -53.5t-27.5 -57.5l-20 10q16 27 27 52t18 47q-8 -1 -18 -1.5t-22 -0.5zM167 167q14 -5 31 -11t36 -13l-9 -21q-21 9 -37.5 15t-28.5 10zM133 37q-15 0 -21 -5.5t-6 -12.5q0 -10 6.5 -13.5
t18.5 -3.5q18 0 23.5 9.5t5.5 21.5q-6 2 -12.5 3t-14.5 1z" />
    <glyph glyph-name="uni306B" unicode="&#x306b;" 
d="M176 12q-23 0 -42.5 7.5t-35.5 22.5l13 17q14 -13 30 -19.5t35 -5.5h55v-22h-55zM33 -7q-1 26 -2 48t-1 41q0 22 3 49t8 58l20 -5q6 -1 6 -3.5t-5 -5.5q-5 -29 -7.5 -52.5t-2.5 -40.5q0 -20 1 -41.5t3 -45.5zM218 141q-21 0 -49 -1.5t-63 -4.5v21q36 3 64 4.5t48 1.5v-21
z" />
    <glyph glyph-name="uni306C" unicode="&#x306c;" 
d="M176 -4q-21 0 -31 8.5t-10 23.5q0 13 9.5 21.5t29.5 8.5q8 0 16.5 -2t17.5 -6q1 3 1.5 9.5t0.5 16.5q0 24 -13.5 40t-52.5 16q-4 -21 -11.5 -41.5t-18.5 -41.5l10 -13l-15 -18l-9 10q-9 -14 -21.5 -22.5t-23.5 -8.5q-16 0 -25 14.5t-9 30.5q0 17 8 35.5t24 33.5
q-4 19 -6.5 36.5t-2.5 32.5l21 3q6 0 6.5 -2t-4.5 -6q0 -10 1.5 -22t3.5 -26q13 9 26.5 14.5t26.5 8.5q3 14 4 27.5t0 25.5l21 -4q6 -1 6.5 -3t-4.5 -5q0 -9 -1.5 -19t-3.5 -20q42 0 64 -18t22 -54q0 -12 -1 -23t-4 -20l19 -18l-15 -18l-14 17q-8 -11 -18.5 -16.5
t-23.5 -5.5zM61 91q-14 -19 -17.5 -29.5t-3.5 -18.5q0 -13 4.5 -19t10.5 -6q11 0 20 9.5t12 16.5q-8 11 -14.5 23t-11.5 24zM121 129q-11 -3 -21.5 -8.5t-21.5 -13.5q4 -12 9.5 -22t11.5 -19q6 10 11.5 26t10.5 37zM171 41q-11 0 -14.5 -4t-3.5 -9q0 -6 4 -9.5t18 -3.5
q10 0 16.5 4.5t9.5 13.5q-8 4 -15.5 6t-14.5 2z" />
    <glyph glyph-name="uni306D" unicode="&#x306d;" 
d="M246 26l-14 -21q-4 4 -9 7.5t-10 6.5q-6 -15 -18 -22t-30 -7q-24 0 -34 10t-10 24q0 13 11 23t27 10q10 0 20 -2t20 -6q1 6 1.5 13.5t0.5 17.5q0 26 -6 37.5t-24 11.5q-19 0 -40.5 -11t-45.5 -33v-102h-20v82q-9 -12 -18.5 -24t-19.5 -23l-16 14q18 17 31.5 35t22.5 37
v15l-47 -11l-4 21l51 9v64h18q6 -1 6.5 -3t-4.5 -5v-44l16 -11l-16 -21v-9q24 20 46 30t42 10q25 0 37.5 -14t12.5 -56q0 -12 -0.5 -21.5t-2.5 -17.5q7 -3 13.5 -6.5t12.5 -7.5zM164 40q-13 0 -19 -5t-6 -12t6 -11.5t16 -4.5q13 0 21.5 5.5t13.5 17.5q-11 5 -19 7.5t-13 2.5
z" />
    <glyph glyph-name="uni306E" unicode="&#x306e;" 
d="M97 17q-6 -7 -13 -10t-14 -3q-22 0 -35.5 21.5t-13.5 47.5q0 46 34 77.5t80 31.5t71.5 -27.5t25.5 -63.5q0 -33 -17 -57t-61 -43l-21 21q18 5 31.5 13t23.5 18q10 9 14.5 20.5t4.5 25.5q0 31 -20.5 52.5t-66.5 19.5l18 -9q6 -3 6 -5.5t-6 -5.5q-8 -50 -18.5 -81
t-22.5 -43zM44 71q0 -15 7.5 -28t16.5 -13q3 0 6.5 1.5t6.5 5.5q12 11 20.5 42t13.5 81q-32 -9 -51.5 -32.5t-19.5 -56.5z" />
    <glyph glyph-name="uni306F" unicode="&#x306f;" 
d="M184 128q1 -19 1 -38t-1 -38q15 -6 29.5 -13.5t28.5 -17.5l-12 -19q-10 8 -21.5 15t-24.5 13q0 -19 -12 -30t-34 -11q-20 0 -32.5 10t-12.5 28q0 16 11.5 25t32.5 9q7 0 13.5 -1t12.5 -2q1 17 1 34t-1 35l-74 -5v21l72 4q0 14 -1 26.5t-3 23.5h21q6 -1 6.5 -3t-4.5 -5
q1 -11 1.5 -21t0.5 -20l54 3v-21zM33 -6q-2 14 -3 30t-1 35q0 40 3 72.5t9 57.5l22 -4q4 -2 3.5 -3.5t-4.5 -3.5q-5 -18 -8 -47.5t-3 -71.5q0 -19 1.5 -34.5t3.5 -26.5zM137 43q-14 0 -19.5 -6t-5.5 -10q0 -10 6.5 -14.5t18.5 -4.5q15 0 21 8t5 22q-8 2 -14.5 3.5t-11.5 1.5
z" />
    <glyph glyph-name="uni3070" unicode="&#x3070;" 
d="M184 128q1 -19 1 -38t-1 -38q15 -6 29.5 -13.5t28.5 -17.5l-12 -19q-10 8 -21.5 15t-24.5 13q0 -19 -12 -30t-34 -11q-20 0 -32.5 10t-12.5 28q0 16 11.5 25t32.5 9q7 0 13.5 -1t12.5 -2q1 17 1 34t-1 35l-74 -5v21l72 4q0 14 -1 26.5t-3 23.5h21q6 -1 6.5 -3t-4.5 -5
q1 -11 1.5 -21t0.5 -20l54 3v-21zM33 -6q-2 14 -3 30t-1 35q0 40 3 72.5t9 57.5l22 -4q4 -2 3.5 -3.5t-4.5 -3.5q-5 -18 -8 -47.5t-3 -71.5q0 -19 1.5 -34.5t3.5 -26.5zM137 43q-14 0 -19.5 -6t-5.5 -10q0 -10 6.5 -14.5t18.5 -4.5q15 0 21 8t5 22q-8 2 -14.5 3.5t-11.5 1.5
zM241 179q-9 7 -18 13t-18 11l10 12q11 -6 20 -12t16 -12zM226 159q-10 8 -19 14t-17 10l10 12q10 -6 19 -12t17 -12z" />
    <glyph glyph-name="uni3071" unicode="&#x3071;" 
d="M184 128q1 -19 1 -38t-1 -38q15 -6 29.5 -13.5t28.5 -17.5l-12 -19q-10 8 -21.5 15t-24.5 13q0 -19 -12 -30t-34 -11q-20 0 -32.5 10t-12.5 28q0 16 11.5 25t32.5 9q7 0 13.5 -1t12.5 -2q1 17 1 34t-1 35l-74 -5v21l72 4q0 14 -1 26.5t-3 23.5h21q6 -1 6.5 -3t-4.5 -5
q1 -11 1.5 -21t0.5 -20l54 3v-21zM33 -6q-2 14 -3 30t-1 35q0 40 3 72.5t9 57.5l22 -4q4 -2 3.5 -3.5t-4.5 -3.5q-5 -18 -8 -47.5t-3 -71.5q0 -19 1.5 -34.5t3.5 -26.5zM137 43q-14 0 -19.5 -6t-5.5 -10q0 -10 6.5 -14.5t18.5 -4.5q15 0 21 8t5 22q-8 2 -14.5 3.5t-11.5 1.5
zM197 188q0 12 8 20t20 8t20 -8t8 -20t-8 -20t-20 -8t-20 8t-8 20zM207 188q0 -7 5.5 -12.5t12.5 -5.5t12.5 5.5t5.5 12.5t-5.5 12.5t-12.5 5.5t-12.5 -5.5t-5.5 -12.5z" />
    <glyph glyph-name="uni3072" unicode="&#x3072;" 
d="M101 156q-18 -28 -27.5 -51.5t-9.5 -43.5q0 -24 11.5 -38.5t38.5 -14.5q28 0 40.5 20t12.5 67q0 24 -1.5 43.5t-5.5 34.5l25 3q1 -12 3.5 -24.5t6.5 -24.5q6 -16 17.5 -33.5t28.5 -36.5l-18 -18q-8 10 -17.5 25.5t-19.5 35.5q1 -5 1 -9.5v-9.5q0 -52 -19 -74t-56 -22
q-34 0 -52 20t-18 50q0 22 8.5 47t25.5 52q-11 -3 -22.5 -6t-22.5 -5l-5 24q24 2 42.5 6t31.5 11l13 -20q-4 -1 -7 -3t-5 -5z" />
    <glyph glyph-name="uni3073" unicode="&#x3073;" 
d="M101 156q-18 -28 -27.5 -51.5t-9.5 -43.5q0 -24 11.5 -38.5t38.5 -14.5q28 0 40.5 20t12.5 67q0 24 -1.5 43.5t-5.5 34.5l25 3q1 -12 3.5 -24.5t6.5 -24.5q6 -16 17.5 -33.5t28.5 -36.5l-18 -18q-8 10 -17.5 25.5t-19.5 35.5q1 -5 1 -9.5v-9.5q0 -52 -19 -74t-56 -22
q-34 0 -52 20t-18 50q0 22 8.5 47t25.5 52q-11 -3 -22.5 -6t-22.5 -5l-5 24q24 2 42.5 6t31.5 11l13 -20q-4 -1 -7 -3t-5 -5zM223 157q-10 8 -19 14t-17 10l10 12q10 -5 19 -11t17 -13zM238 177q-10 8 -19 14t-17 10l10 12q10 -5 19 -11t17 -13z" />
    <glyph glyph-name="uni3074" unicode="&#x3074;" 
d="M101 156q-18 -28 -27.5 -51.5t-9.5 -43.5q0 -24 11.5 -38.5t38.5 -14.5q28 0 40.5 20t12.5 67q0 24 -1.5 43.5t-5.5 34.5l25 3q1 -12 3.5 -24.5t6.5 -24.5q6 -16 17.5 -33.5t28.5 -36.5l-18 -18q-8 10 -17.5 25.5t-19.5 35.5q1 -5 1 -9.5v-9.5q0 -52 -19 -74t-56 -22
q-34 0 -52 20t-18 50q0 22 8.5 47t25.5 52q-11 -3 -22.5 -6t-22.5 -5l-5 24q24 2 42.5 6t31.5 11l13 -20q-4 -1 -7 -3t-5 -5zM192 187q0 12 8 20t20 8t20 -8t8 -20t-8 -20t-20 -8t-20 8t-8 20zM202 187q0 -7 5.5 -12.5t12.5 -5.5t12.5 5.5t5.5 12.5t-5.5 12.5t-12.5 5.5
t-12.5 -5.5t-5.5 -12.5z" />
    <glyph glyph-name="uni3075" unicode="&#x3075;" 
d="M123 8q13 0 18 5.5t5 20.5q0 16 -10.5 26.5t-25.5 17.5q-20 8 -27 14t-7 16q0 4 2.5 10.5t6.5 15.5l25 -10q-4 -6 -6 -9.5t-2 -5.5t3 -4t8 -4q36 -15 47 -30.5t11 -36.5q0 -25 -12 -38t-36 -13q-10 0 -21.5 3t-24.5 10l7 24q13 -6 22.5 -9t16.5 -3zM90 56
q-19 -16 -33.5 -29t-25.5 -24l-17 17q14 13 28 25.5t29 25.5zM82 174l12 20q16 -9 33 -15.5t34 -11.5l-11 -22q-24 8 -41 15.5t-27 13.5zM229 18q-14 21 -26.5 37t-23.5 27l18 13q16 -15 29 -31t22 -32z" />
    <glyph glyph-name="uni3076" unicode="&#x3076;" 
d="M123 8q13 0 18 5.5t5 20.5q0 16 -10.5 26.5t-25.5 17.5q-20 8 -27 14t-7 16q0 4 2.5 10.5t6.5 15.5l25 -10q-4 -6 -6 -9.5t-2 -5.5t3 -4t8 -4q36 -15 47 -30.5t11 -36.5q0 -25 -12 -38t-36 -13q-10 0 -21.5 3t-24.5 10l7 24q13 -6 22.5 -9t16.5 -3zM90 56
q-19 -16 -33.5 -29t-25.5 -24l-17 17q14 13 28 25.5t29 25.5zM82 174l12 20q16 -9 33 -15.5t34 -11.5l-11 -22q-24 8 -41 15.5t-27 13.5zM229 18q-14 21 -26.5 37t-23.5 27l18 13q16 -15 29 -31t22 -32zM212 146q-10 8 -19 14t-17 10l10 12q11 -6 20 -12t16 -12zM227 166
q-10 8 -19 14t-17 10l10 12q11 -6 20 -12t16 -12z" />
    <glyph glyph-name="uni3077" unicode="&#x3077;" 
d="M123 8q13 0 18 5.5t5 20.5q0 16 -10.5 26.5t-25.5 17.5q-20 8 -27 14t-7 16q0 4 2.5 10.5t6.5 15.5l25 -10q-4 -6 -6 -9.5t-2 -5.5t3 -4t8 -4q36 -15 47 -30.5t11 -36.5q0 -25 -12 -38t-36 -13q-10 0 -21.5 3t-24.5 10l7 24q13 -6 22.5 -9t16.5 -3zM90 56
q-19 -16 -33.5 -29t-25.5 -24l-17 17q14 13 28 25.5t29 25.5zM82 174l12 20q16 -9 33 -15.5t34 -11.5l-11 -22q-24 8 -41 15.5t-27 13.5zM229 18q-14 21 -26.5 37t-23.5 27l18 13q16 -15 29 -31t22 -32zM184 177q0 12 8 20t20 8t20 -8t8 -20t-8 -20t-20 -8t-20 8t-8 20z
M194 177q0 -7 5.5 -12.5t12.5 -5.5t12.5 5.5t5.5 12.5t-5.5 12.5t-12.5 5.5t-12.5 -5.5t-5.5 -12.5z" />
    <glyph glyph-name="uni3078" unicode="&#x3078;" 
d="M118 113q-3 2 -6 3.5t-6 1.5t-5.5 -1t-4.5 -3q-23 -21 -38.5 -34.5t-24.5 -20.5l-20 20q14 8 31.5 22t39.5 35q5 4 10 6.5t10 2.5q7 0 13 -2.5t11 -6.5q38 -32 67 -52.5t49 -30.5l-23 -23q-28 20 -53.5 41t-49.5 42z" />
    <glyph glyph-name="uni3079" unicode="&#x3079;" 
d="M118 113q-3 2 -6 3.5t-6 1.5t-5.5 -1t-4.5 -3q-23 -21 -38.5 -34.5t-24.5 -20.5l-20 20q14 8 31.5 22t39.5 35q5 4 10 6.5t10 2.5q7 0 13 -2.5t11 -6.5q38 -32 67 -52.5t49 -30.5l-23 -23q-28 20 -53.5 41t-49.5 42zM204 148l-13 -13q-11 8 -21 15t-20 12l12 12
q9 -5 19.5 -11.5t22.5 -14.5zM183 198q9 -5 19 -11.5t21 -15.5l-12 -13q-11 9 -21 16t-19 12z" />
    <glyph glyph-name="uni307A" unicode="&#x307a;" 
d="M118 113q-3 2 -6 3.5t-6 1.5t-5.5 -1t-4.5 -3q-23 -21 -38.5 -34.5t-24.5 -20.5l-20 20q14 8 31.5 22t39.5 35q5 4 10 6.5t10 2.5q7 0 13 -2.5t11 -6.5q38 -32 67 -52.5t49 -30.5l-23 -23q-28 20 -53.5 41t-49.5 42zM152 166q0 12 8 20t20 8t20 -8t8 -20t-8 -20t-20 -8
t-20 8t-8 20zM162 166q0 -7 5.5 -12.5t12.5 -5.5t12.5 5.5t5.5 12.5t-5.5 12.5t-12.5 5.5t-12.5 -5.5t-5.5 -12.5z" />
    <glyph glyph-name="uni307B" unicode="&#x307b;" 
d="M182 103q1 -13 1.5 -25.5t-0.5 -25.5q16 -7 30 -15t27 -16l-12 -19q-17 11 -28.5 18t-17.5 10q0 -23 -13 -32t-33 -9q-24 0 -34.5 10.5t-10.5 25.5q0 13 11.5 24.5t32.5 11.5q8 0 15 -1t12 -2q1 11 0.5 22t-1.5 22l-72 -3v21l71 3q0 10 -1 19l-2 18l-64 -3v21l130 6v-21
l-45 -2q1 -8 2 -17.5t1 -19.5l53 3v-21zM135 43q-14 0 -19.5 -6t-5.5 -12q0 -9 6.5 -13t16.5 -4q16 0 23 8t5 22q-5 2 -11.5 3.5t-14.5 1.5zM50 65q0 -19 1.5 -36t4.5 -31l-23 -4q-2 14 -3 31t-1 38q0 33 2.5 65t7.5 64l22 -5q6 -2 6.5 -4t-5.5 -4q-6 -22 -9 -50.5t-3 -63.5
z" />
    <glyph glyph-name="uni307C" unicode="&#x307c;" 
d="M182 103q1 -13 1.5 -25.5t-0.5 -25.5q16 -7 30 -15t27 -16l-12 -19q-17 11 -28.5 18t-17.5 10q0 -23 -13 -32t-33 -9q-24 0 -34.5 10.5t-10.5 25.5q0 13 11.5 24.5t32.5 11.5q8 0 15 -1t12 -2q1 11 0.5 22t-1.5 22l-72 -3v21l71 3q0 10 -1 19l-2 18l-64 -3v21l88 4
l21 -19l-24 -2q1 -8 2 -17.5t1 -19.5l53 3v-21zM135 43q-14 0 -19.5 -6t-5.5 -12q0 -9 6.5 -13t16.5 -4q16 0 23 8t5 22q-5 2 -11.5 3.5t-14.5 1.5zM50 65q0 -19 1.5 -36t4.5 -31l-23 -4q-2 14 -3 31t-1 38q0 33 2.5 65t7.5 64l22 -5q6 -2 6.5 -4t-5.5 -4q-6 -22 -9 -50.5
t-3 -63.5zM199 199q8 -6 16 -13.5t17 -16.5l-11 -11q-9 9 -17 16.5t-16 13.5zM218 216q8 -6 16 -13.5t17 -16.5l-11 -11q-9 9 -17 16.5t-16 13.5z" />
    <glyph glyph-name="uni307D" unicode="&#x307d;" 
d="M182 103q1 -13 1.5 -25.5t-0.5 -25.5q16 -7 30 -15t27 -16l-12 -19q-17 11 -28.5 18t-17.5 10q0 -23 -13 -32t-33 -9q-24 0 -34.5 10.5t-10.5 25.5q0 13 11.5 24.5t32.5 11.5q8 0 15 -1t12 -2q1 11 0.5 22t-1.5 22l-72 -3v21l71 3q0 10 -1 19l-2 18l-64 -3v21l97 4l5 -21
h-17q1 -8 2 -17.5t1 -19.5l53 3v-21zM135 43q-14 0 -19.5 -6t-5.5 -12q0 -9 6.5 -13t16.5 -4q16 0 23 8t5 22q-5 2 -11.5 3.5t-14.5 1.5zM50 65q0 -19 1.5 -36t4.5 -31l-23 -4q-2 14 -3 31t-1 38q0 33 2.5 65t7.5 64l22 -5q6 -2 6.5 -4t-5.5 -4q-6 -22 -9 -50.5t-3 -63.5z
M195 187q0 12 8 20t20 8t20 -8t8 -20t-8 -20t-20 -8t-20 8t-8 20zM205 187q0 -7 5.5 -12.5t12.5 -5.5t12.5 5.5t5.5 12.5t-5.5 12.5t-12.5 5.5t-12.5 -5.5t-5.5 -12.5z" />
    <glyph glyph-name="uni307E" unicode="&#x307e;" 
d="M144 54q21 -5 41 -12t39 -16l-11 -22q-18 11 -35.5 19t-33.5 12q0 -26 -12 -38.5t-40 -12.5q-19 0 -31 10t-12 28q0 16 13.5 26.5t36.5 10.5q4 0 10.5 -0.5t14.5 -0.5v31l-76 -2v20l76 2v35l-94 -3v20l94 3v39h18q6 -1 6.5 -3t-4.5 -5v-29l82 3v-20l-82 -3v-36l65 2v-20
l-65 -2v-36zM101 41q-16 0 -24.5 -5.5t-8.5 -15.5q0 -9 8 -13.5t19 -4.5q13 0 21.5 9t6.5 28q-5 1 -10.5 1.5t-11.5 0.5z" />
    <glyph glyph-name="uni307F" unicode="&#x307f;" 
d="M157 -14l-21 12q16 14 26 32t15 40q-17 6 -35 10.5t-36 7.5q-13 -29 -22 -46t-14 -21q-6 -6 -13 -9t-15 -3q-12 0 -20.5 8.5t-8.5 26.5q0 21 21.5 42t57.5 21q6 15 11.5 29.5t10.5 28.5q-14 -4 -28 -7l-28 -6l-9 20q17 2 32.5 4.5t30.5 6.5l12 5l17 -13q5 -3 5 -5.5
t-6 -3.5q-6 -12 -13 -27t-15 -33q16 -2 33 -6t35 -10q1 12 1.5 26.5t-0.5 32.5l19 -4q6 -1 6.5 -3t-4.5 -5q0 -17 -0.5 -30.5t-1.5 -23.5q10 -4 21 -9t23 -11l-10 -20q-10 6 -19.5 11t-18.5 9q-5 -23 -14.5 -42t-24.5 -35zM32 44q0 -6 3.5 -9.5t9.5 -3.5q5 0 9 2.5t7 8.5
q3 4 9 15.5t15 30.5q-24 0 -38.5 -15.5t-14.5 -28.5z" />
    <glyph glyph-name="uni3080" unicode="&#x3080;" 
d="M68 30q-4 -2 -7.5 -3t-6.5 -1q-13 0 -22.5 11t-9.5 29q0 23 12.5 35.5t28.5 12.5q5 0 9 -1t7 -2v29l-50 -5l-4 21l54 4v43h19q4 -2 4.5 -3.5t-3.5 -3.5v-34l45 4l3 -20l-48 -4v-46q2 -3 3 -6.5t1 -6.5q0 -10 -3.5 -19.5t-11.5 -18.5l2 -26q1 -8 7 -11.5t17 -3.5h51
q11 0 16 5t5 15v39l20 -4v-39q0 -18 -9 -26.5t-28 -8.5h-55q-20 0 -31 7t-13 22zM229 97q-15 15 -29 26.5t-27 20.5l12 18q18 -13 32.5 -24.5t24.5 -22.5zM41 66q0 -10 4 -15.5t11 -5.5q10 0 17 9.5t7 20.5q0 14 -5 18t-12 4q-9 0 -15.5 -7t-6.5 -24z" />
    <glyph glyph-name="uni3081" unicode="&#x3081;" 
d="M234 73q0 -33 -19 -53t-51 -30l-13 19q27 8 44.5 22.5t17.5 42.5q0 30 -18 46t-46 18q-5 -21 -13.5 -42.5t-19.5 -43.5l19 -22l-16 -12l-14 16q-9 -15 -19.5 -25t-23.5 -10q-14 0 -26.5 12.5t-12.5 36.5q0 18 10 37t29 39q-3 15 -5.5 29t-4.5 28h19q5 -1 5.5 -3t-3.5 -5
q1 -11 2.5 -20.5t3.5 -16.5q13 8 26.5 13t26.5 7q2 7 4 18.5t4 26.5l20 -5q5 -2 5 -4t-5 -4l-7 -32q38 -2 59.5 -24.5t21.5 -58.5zM68 102q-12 -15 -18.5 -29t-6.5 -27q0 -12 6 -19.5t13 -7.5q6 0 13 7.5t16 23.5q-6 10 -12 23t-11 29zM84 116q5 -17 10 -29t9 -18
q9 16 15 33t10 34q-12 -2 -23 -7t-21 -13z" />
    <glyph glyph-name="uni3082" unicode="&#x3082;" 
d="M150 5q26 0 35 8.5t9 30.5q0 7 -1.5 16t-4.5 20l21 3q4 -14 5.5 -23.5t1.5 -14.5q0 -33 -16 -47.5t-51 -14.5q-28 0 -45 16t-15 45l2 30h-51v19h54l4 39h-47v19h50l5 57l22 -3q6 -2 6.5 -4t-4.5 -4l-8 -46h39v-19h-42l-4 -39h48v-19h-51l-2 -25q-2 -23 9.5 -33.5
t30.5 -10.5z" />
    <glyph glyph-name="uni3083" unicode="&#x3083;" 
d="M95 148q6 -1 6.5 -3t-4.5 -5q0 -9 1 -17.5t3 -17.5l41 14l1 37h17q6 -1 6.5 -3t-4.5 -5l-2 -25q3 0 5.5 0.5t4.5 0.5q22 0 37 -12.5t15 -32.5q0 -22 -12 -32t-30 -10q-13 0 -23 3t-18 9l7 17q10 -6 18 -8.5t14 -2.5q12 0 18.5 5.5t6.5 17.5q0 11 -8 20t-23 9q-6 0 -12 -1
t-12 -3l-42 -16q6 -23 14.5 -47t20.5 -49l-19 -9q-12 26 -20.5 50.5t-14.5 46.5l-37 -16l-11 18l44 17q-3 14 -4.5 26.5t-2.5 23.5h19z" />
    <glyph glyph-name="uni3084" unicode="&#x3084;" 
d="M64 187h21q5 -1 5.5 -3t-3.5 -5q0 -8 1.5 -19.5t4.5 -26.5l50 18l2 46h19q6 -1 6.5 -3t-4.5 -5l-3 -34q5 1 9.5 1.5t8.5 0.5q27 0 43.5 -15t16.5 -41q0 -27 -14.5 -39t-36.5 -12q-16 0 -28.5 4t-22.5 13l9 19q11 -8 21 -11.5t19 -3.5q13 0 22.5 6.5t9.5 23.5t-11 27
t-28 10q-10 0 -20 -2t-20 -6l-43 -17q9 -33 19.5 -62.5t23.5 -55.5l-23 -9q-11 27 -21 56.5t-19 62.5l-48 -20l-11 20l54 21q-2 11 -4.5 26t-4.5 35z" />
    <glyph glyph-name="uni3085" unicode="&#x3085;" 
d="M213 74q0 -14 -3.5 -24.5t-11.5 -17.5q-8 -8 -20.5 -12t-30.5 -4q-4 -13 -10 -23t-13 -18l-17 10q7 8 12 16.5t8 18.5q-10 5 -18.5 13.5t-15.5 21.5l15 12q6 -12 12 -19t12 -10q2 7 2.5 13t0.5 12v24q-1 14 -1.5 20.5l-0.5 6.5q-28 -9 -48 -35.5t-20 -54.5q0 -4 1 -8.5
t2 -9.5l-19 -5q-7 33 -6.5 67.5t8.5 70.5l20 -4q4 -2 3.5 -3.5t-5.5 -2.5q-4 -18 -6 -32t-2 -24q18 28 34 41t36 18l-2 32h18q5 -1 5.5 -3t-3.5 -5l2 -22q28 2 45 -14t17 -46zM193 74q0 22 -10 32t-30 10q1 -9 1.5 -16t0.5 -11v-28q0 -3 -1 -10t-3 -17q20 -2 31 8t11 32z
" />
    <glyph glyph-name="uni3086" unicode="&#x3086;" 
d="M157 169q38 0 56.5 -18.5t18.5 -54.5t-19 -52t-60 -16q-3 -12 -9 -24t-15 -24l-23 8q11 13 17.5 24t8.5 20q-13 5 -24 15.5t-19 26.5l16 14q6 -13 14 -22t18 -14q2 8 2.5 14.5t0.5 11.5v40q-1 12 -1.5 19.5t-0.5 9.5q-37 -11 -61.5 -44t-24.5 -60q0 -6 1 -13t3 -15
l-22 -5q-8 41 -7 82.5t11 84.5l20 -6q6 -2 6 -4t-6 -4q-4 -15 -6.5 -33t-3.5 -40q16 31 40 50.5t49 25.5l-2 40h19q5 -1 5.5 -3t-3.5 -5zM160 77q0 -8 -0.5 -15.5t-2.5 -14.5q24 0 39 10t15 40q0 23 -12.5 38t-39.5 15q1 -6 1 -13.5v-16.5v-43z" />
    <glyph glyph-name="uni3087" unicode="&#x3087;" 
d="M91 -18q-18 0 -27.5 9.5t-9.5 22.5q0 12 11.5 23t31.5 11q6 0 11 -0.5t10 -1.5q0 27 -1 54t-3 55h18q6 -1 6.5 -3t-4.5 -5l2 -41q17 0 32.5 1.5t28.5 4.5v-16q-16 -3 -31 -4.5t-30 -1.5l1 -47q22 -6 40 -13t32 -14l-9 -18q-18 9 -33.5 15.5t-29.5 10.5q0 -19 -12.5 -30.5
t-33.5 -11.5zM97 31q-13 0 -19.5 -5t-6.5 -12q0 -8 5.5 -11.5t16.5 -3.5q13 0 19 7t6 22q-6 1 -11 2t-10 1z" />
    <glyph glyph-name="uni3088" unicode="&#x3088;" 
d="M211 6q-23 13 -41.5 21t-32.5 12q0 -28 -14.5 -40t-40.5 -12q-22 0 -34.5 11t-12.5 27q0 13 12 26.5t41 13.5q9 0 16.5 -0.5t12.5 -1.5q-1 27 -3 60t-5 72h20q5 -1 5.5 -3t-3.5 -5q0 -8 0.5 -20.5t1.5 -28.5q14 -1 33 0.5t43 5.5v-21q-17 -3 -35.5 -4.5t-38.5 -1.5
q1 -15 1.5 -29.5t0.5 -27.5q19 -5 40 -13t44 -20zM89 47q-21 0 -28 -8t-7 -14q0 -9 7.5 -14t21.5 -5q19 0 26 9.5t7 28.5l-14 2t-13 1z" />
    <glyph glyph-name="uni3089" unicode="&#x3089;" 
d="M96 9h24q46 0 60 10.5t14 27.5q0 12 -9.5 21.5t-30.5 9.5q-22 0 -42 -11t-38 -32l-20 2l11 107l21 -4q5 -2 5 -4t-5 -4l-7 -65q18 15 38 22.5t42 7.5q24 0 40 -13t16 -37q0 -27 -20.5 -43.5t-72.5 -16.5h-18zM160 176l-10 -20q-18 7 -36.5 13.5t-38.5 12.5l9 18
q14 -4 33 -10t43 -14z" />
    <glyph glyph-name="uni308A" unicode="&#x308a;" 
d="M169 198h20q6 -1 6.5 -3t-4.5 -5q2 -16 2.5 -40.5t0.5 -57.5q0 -38 -17.5 -66t-53.5 -47l-17 17q34 16 50.5 40t16.5 57q0 34 -1 60t-3 45zM85 53q-3 0 -6.5 1.5t-6.5 4.5t-5 18t-2 42q0 20 1 38t3 35h22q4 -2 4 -3.5t-4 -3.5q-2 -12 -3.5 -28.5t-1.5 -37.5
q0 -22 1 -32.5t3 -10.5t4 1t4 3q4 3 9.5 9.5t13.5 17.5l15 -15q-8 -11 -16 -19t-15 -13q-4 -4 -9 -5.5t-11 -1.5z" />
    <glyph glyph-name="uni308B" unicode="&#x308b;" 
d="M200 50q0 23 -13.5 35.5t-40.5 12.5q-16 0 -29 -3.5t-22 -9.5q-8 -6 -19 -17t-25 -26l-17 15q36 36 63.5 66t45.5 54q-16 -2 -32.5 -4t-33.5 -3l-7 23q25 0 46.5 1t40.5 4l9 4l11 -11q6 -5 4.5 -8.5t-9.5 -4.5l-30 -34t-30 -33q11 2 19.5 3.5t15.5 1.5q38 0 56 -18
t18 -46q0 -33 -22.5 -51t-54.5 -18t-48 13.5t-16 33.5q0 13 10.5 22t21.5 9q20 0 32.5 -14.5t16.5 -41.5q17 2 28 14t11 31zM115 44q-9 0 -13 -5t-4 -10q0 -11 10 -19t24 -8h4.5h4.5q-2 21 -9 31.5t-17 10.5z" />
    <glyph glyph-name="uni308C" unicode="&#x308c;" 
d="M156 133q-8 0 -24.5 -12.5t-41.5 -36.5v-100h-20v82l-44 -55l-16 16l40 47q6 7 11 14t9 15v24l-44 -15l-6 21l50 13v59h18q5 -1 5.5 -3t-3.5 -5v-45l11 -6q5 -2 4.5 -4.5t-6.5 -4.5l-9 -19v-7q24 22 41.5 33t29.5 11q15 0 22 -10t5 -30l-5 -77q0 -8 3 -12t9 -4
q14 0 21.5 9.5t12.5 23.5l17 -14q-11 -22 -22.5 -31.5t-26.5 -9.5q-18 0 -27 9.5t-8 28.5l5 76q1 9 -2 14t-9 5z" />
    <glyph glyph-name="uni308D" unicode="&#x308d;" 
d="M190 27q6 5 8.5 12t2.5 16q0 19 -11 29.5t-36 10.5q-30 0 -54.5 -13.5t-42.5 -39.5l-17 17q33 32 56.5 60t37.5 52q-16 -3 -32.5 -5t-33.5 -4l-7 23q18 0 40 1.5t47 5.5l7 3l12 -11q5 -5 4 -7.5t-7 -3.5q-13 -18 -26.5 -35t-26.5 -33q15 4 26.5 6t20.5 2q30 0 47 -15
t17 -43q0 -33 -26.5 -50t-89.5 -17l-10 21q38 -1 61.5 3.5t32.5 14.5z" />
    <glyph glyph-name="uni308E" unicode="&#x308e;" 
d="M187 33q6 5 8.5 13t2.5 19q0 13 -9 23t-27 10q-13 0 -29.5 -8t-35.5 -24v-88h-20v69l-33 -38l-13 13l20 23q8 9 14.5 18t11.5 17v20l-38 -10l-6 21l44 7v47h17q6 -1 6.5 -3t-3.5 -5v-33l10 -7q3 -2 2.5 -4.5t-5.5 -4.5l-7 -14v-7q19 13 35 20t29 7q30 0 43.5 -16.5
t13.5 -36.5q0 -13 -3.5 -23t-11.5 -17q-9 -10 -22 -18t-30 -14l-11 19q15 4 27 10t20 15z" />
    <glyph glyph-name="uni308F" unicode="&#x308f;" 
d="M70 66l-41 -49l-16 16l27 30q10 11 17.5 21.5t12.5 19.5v25l-47 -12l-6 21l53 10v58h18q6 -1 6.5 -3t-4.5 -5v-41l15 -9q5 -3 4.5 -5.5t-7.5 -5.5l-12 -17v-12q22 17 43 26t41 9q32 0 48.5 -18.5t16.5 -46.5q0 -16 -4 -28t-13 -20q-11 -11 -27 -20.5t-38 -17.5l-10 20
q35 13 52 27.5t17 38.5q0 19 -11.5 32.5t-32.5 13.5q-18 0 -38.5 -10.5t-43.5 -31.5v-105h-20v89z" />
    <glyph glyph-name="uni3090" unicode="&#x3090;" 
d="M151 136q40 0 62 -18.5t22 -57.5q0 -34 -18 -53t-51 -19q-22 0 -34.5 10t-12.5 27q0 16 10.5 24.5t21.5 8.5q17 0 29 -10t19 -28q8 8 11.5 17.5t3.5 20.5q0 28 -15.5 43.5t-49.5 15.5q-6 0 -12 -0.5t-12 -1.5q-10 -43 -21.5 -71t-24.5 -41q-3 -4 -8.5 -5.5t-12.5 -1.5
q-17 0 -26.5 12.5t-9.5 31.5q0 15 7.5 30t22.5 30q12 11 26 19t31 13l10 44q-15 -3 -30.5 -5t-31.5 -4v22q15 0 31.5 1t33.5 4l9 5l12 -11q5 -4 4.5 -6.5t-5.5 -3.5l-13 -44q6 1 11.5 1.5t10.5 0.5zM152 41q-5 0 -10 -4t-5 -11q0 -10 6.5 -14.5t16.5 -4.5q6 0 11 0.5t9 2.5
q-5 17 -12 24t-16 7zM104 111q-11 -5 -20.5 -10.5t-16.5 -12.5q-12 -12 -18 -24t-6 -23q0 -12 4.5 -17.5t9.5 -5.5q3 0 6 1t5 4q9 9 18 31t18 57z" />
    <glyph glyph-name="uni3091" unicode="&#x3091;" 
d="M153 152q27 0 39.5 -11t12.5 -31q0 -30 -24 -42t-68 -12q-3 -2 -11 -9t-21 -18q5 1 8.5 1.5t5.5 0.5q9 0 16 -4.5t12 -13.5q17 17 32 26.5t32 9.5q27 0 40.5 -15.5t13.5 -26.5q0 -7 -4 -9t-12 0l-29 -12l-10 9l29 18q0 4 -7.5 10.5t-22.5 6.5q-14 0 -33.5 -16t-24.5 -33
l-22 5q4 14 -2 22t-21 8q-11 0 -23 -10t-27 -27l-18 15q15 14 34 30.5t43 35.5q-5 0 -10 5.5t-5 12.5q0 12 12 23.5t31 11.5q16 0 21 -6t5 -12q0 -7 -3 -13t-10 -10q24 2 38 10t14 26q0 13 -7.5 20.5t-27.5 7.5q-25 0 -50 -12t-50 -36l-16 16q27 18 50.5 37.5t43.5 40.5
q-14 -3 -29 -5.5t-30 -4.5l-3 19q20 2 40.5 5t40.5 7l8 3l10 -10q5 -4 4 -6.5t-8 -3.5l-22 -20t-23 -19q10 2 19.5 3.5t18.5 1.5zM92 81q0 -4 2.5 -6t7.5 -2q12 0 18.5 7t6.5 12q0 3 -2 5t-7 2q-12 0 -19 -6.5t-7 -11.5z" />
    <glyph glyph-name="uni3092" unicode="&#x3092;" 
d="M127 120q10 0 19 -6.5t9 -23.5q15 5 32 11t36 12l7 -24q-19 -3 -37.5 -8t-35.5 -11v-44h-20v36q-33 -15 -41.5 -26t-8.5 -19t7.5 -13.5t25.5 -5.5h84v-19h-85q-28 0 -41.5 10t-13.5 28q0 19 20 35.5t52 29.5q0 12 -5 16t-17 4q-10 0 -25 -9t-36 -27l-17 17q24 14 40 30
t24 34l-28 -2l-28 -2l-4 20q18 0 35 1t33 2q3 6 6 16t6 24l19 -5q5 -2 5 -4t-5 -4q-2 -7 -4 -13.5t-5 -12.5q18 1 35.5 3t33.5 5l3 -21q-19 -2 -38.5 -3.5t-39.5 -2.5q-5 -10 -10 -18t-10 -14q6 2 12 3t11 1z" />
    <glyph glyph-name="uni3093" unicode="&#x3093;" 
d="M105 80q-12 0 -23 -7.5t-20 -22.5q-5 -9 -10.5 -20.5t-11.5 -25.5l-23 12q21 32 45.5 77.5t52.5 104.5l22 -12q4 -4 3 -6t-6 -2q-10 -16 -22.5 -37t-27.5 -48q9 3 16.5 5t13.5 2t11 -2t8 -5q4 -4 6 -11t3 -17l6 -38q1 -7 5 -10t11 -3t12.5 2t9.5 7q10 9 17.5 28t12.5 47
l22 -11q-6 -29 -14 -47.5t-17 -27.5q-10 -10 -21 -15t-24 -5q-15 0 -24 8t-12 25l-7 43q-1 6 -4.5 9t-9.5 3z" />
    <glyph glyph-name="uni3041.vert" orientation="v" 
d="M217 54q0 21 -10.5 30.5t-26.5 11.5q-4 -16 -11.5 -31t-18.5 -30l5 -11l-15 -11l-5 8q-10 -9 -19.5 -13t-18.5 -4q-10 0 -17.5 7.5t-7.5 25.5q0 20 11.5 36.5t32.5 29.5q0 8 0.5 15t0.5 14l-34 -2l-3 19l38 1l2 36h17q6 -1 6.5 -3t-4.5 -5l-3 -27q17 1 34 2.5t33 4.5
l2 -20q-18 -2 -35.5 -3t-35.5 -2v-12t-1 -12q9 2 17 3t15 1l1 13l18 -3q4 -1 4.5 -2.5t-3.5 -2.5l-1 -7q23 -3 38 -17t15 -40q0 -25 -14.5 -39t-48.5 -18l-10 18q31 2 42 11.5t11 27.5zM134 92q1 -11 3 -21t5 -19q6 8 11 19.5t9 25.5q-8 0 -15 -1.5t-13 -3.5zM117 84
q-10 -6 -19.5 -20t-9.5 -26q0 -10 3.5 -13t7.5 -3q7 0 14 3.5t14 11.5q-4 13 -6.5 24.5t-3.5 22.5z" />
    <glyph glyph-name="uni3043.vert" orientation="v" 
d="M79 164l19 -5q6 -2 6 -4t-5 -4q-2 -21 -3.5 -34.5t-1.5 -20.5q0 -29 4.5 -43.5t12.5 -14.5q7 0 12 9.5t9 20.5l18 -13q-4 -13 -14 -27t-27 -14q-15 0 -25 18t-10 65q0 6 1.5 22.5t3.5 44.5zM221 54q-7 31 -17 52.5t-23 34.5l17 11q15 -14 27 -37t20 -56z" />
    <glyph glyph-name="uni3045.vert" orientation="v" 
d="M167 127q23 0 33 -13t10 -32q0 -35 -22 -55t-55 -27l-13 17q19 3 33 10t24 17q7 6 10 15.5t3 21.5q0 10 -5.5 18.5t-17.5 8.5q-8 0 -25.5 -3.5t-44.5 -9.5l-9 20q48 8 61.5 10t17.5 2zM196 169l-6 -19q-28 3 -47.5 6.5t-30.5 7.5l4 20q16 -5 36 -9t44 -6z" />
    <glyph glyph-name="uni3047.vert" orientation="v" 
d="M70 21q27 28 50.5 51t42.5 41l-72 -7l-6 20q34 -1 59.5 1.5t42.5 8.5l12 -15q-11 -9 -24.5 -20.5t-28.5 -25.5q5 1 8.5 1.5t6.5 0.5q9 0 13 -5t4 -15v-22q0 -4 1.5 -6t5.5 -2h50l-4 -16h-52q-9 0 -13.5 4.5t-4.5 14.5v19q0 6 -3.5 9.5t-9.5 3.5t-11.5 -2.5t-10.5 -7.5
q-9 -11 -18.5 -22t-19.5 -21zM110 158v19q16 -3 35 -4.5t41 -1.5l-2 -19q-24 1 -42.5 2.5t-31.5 3.5z" />
    <glyph glyph-name="uni3049.vert" orientation="v" 
d="M113 125q-8 -1 -17 -2t-19 -1l-3 18q11 0 20.5 0.5t18.5 1.5v42h15q5 0 5.5 -2.5t-3.5 -5.5v-31q8 1 16.5 3t16.5 6l5 -16q-8 -4 -17.5 -6.5t-20.5 -3.5v-31q10 3 20 4.5t20 1.5q34 0 48.5 -15.5t14.5 -36.5q0 -20 -11.5 -31.5t-32.5 -11.5q-17 0 -26.5 9.5t-13.5 19.5
l15 9q4 -8 10.5 -14t16.5 -6t16.5 5t6.5 21q0 13 -10 24t-35 11q-9 0 -18.5 -2t-20.5 -5v-40q0 -24 -8.5 -30.5t-22.5 -6.5q-12 0 -20.5 7.5t-8.5 21.5q0 18 11 32.5t32 26.5v34zM113 73q-13 -9 -20 -19.5t-7 -21.5q0 -6 4 -9t10 -3t9.5 4t3.5 15v34zM241 130l-16 -16
q-11 12 -21 20.5t-19 14.5l14 17q10 -7 20.5 -16t21.5 -20z" />
    <glyph glyph-name="uni3063.vert" orientation="v" 
d="M76 105l-10 21q16 5 30.5 9.5t27.5 8.5q15 4 28.5 6.5t26.5 2.5q26 0 42.5 -16.5t16.5 -41.5q0 -15 -3.5 -26.5t-11.5 -18.5q-13 -14 -36 -21t-55 -8l-8 21q32 0 52.5 5.5t30.5 15.5q6 5 8.5 13t2.5 19q0 14 -9.5 26.5t-32.5 12.5q-9 0 -20 -2t-24 -6q-12 -4 -26 -9.5
t-30 -11.5z" />
    <glyph glyph-name="uni3083.vert" orientation="v" 
d="M118 171q6 -1 6.5 -3t-4.5 -5q0 -9 1 -17.5t3 -17.5l41 14l1 37h17q6 -1 6.5 -3t-4.5 -5l-2 -25q3 0 5.5 0.5t4.5 0.5q22 0 37 -12.5t15 -32.5q0 -22 -12 -32t-30 -10q-13 0 -23 3t-18 9l7 17q10 -6 18 -8.5t14 -2.5q12 0 18.5 5.5t6.5 17.5q0 11 -8 20t-23 9
q-6 0 -12 -1t-12 -3l-42 -16q6 -23 14.5 -47t20.5 -49l-19 -9q-12 26 -20.5 50.5t-14.5 46.5l-37 -16l-11 18l44 17q-3 14 -4.5 26.5t-2.5 23.5h19z" />
    <glyph glyph-name="uni3085.vert" orientation="v" 
d="M237 96q0 -14 -3.5 -24.5t-11.5 -17.5q-8 -8 -20.5 -12t-30.5 -4q-4 -13 -10 -23t-13 -18l-17 10q7 8 12 16.5t8 18.5q-10 5 -18.5 13.5t-15.5 21.5l15 12q6 -12 12 -19t12 -10q2 7 2.5 13t0.5 12v24q-1 14 -1.5 20.5l-0.5 6.5q-28 -9 -48 -35.5t-20 -54.5q0 -4 1 -8.5
t2 -9.5l-19 -5q-7 33 -6.5 67.5t8.5 70.5l20 -4q4 -2 3.5 -3.5t-5.5 -2.5q-4 -18 -6 -32t-2 -24q18 28 34 41t36 18l-2 32h18q5 -1 5.5 -3t-3.5 -5l2 -22q28 2 45 -14t17 -46zM217 96q0 22 -10 32t-30 10q1 -9 1.5 -16t0.5 -11v-28q0 -3 -1 -10t-3 -17q20 -2 31 8t11 32z
" />
    <glyph glyph-name="uni3087.vert" orientation="v" 
d="M111 5q-18 0 -27.5 9.5t-9.5 22.5q0 12 11.5 23t31.5 11q6 0 11 -0.5t10 -1.5q0 27 -1 54t-3 55h18q6 -1 6.5 -3t-4.5 -5l2 -41q17 0 32.5 1.5t28.5 4.5v-16q-16 -3 -31 -4.5t-30 -1.5l1 -47q22 -6 40 -13t32 -14l-9 -18q-18 9 -33.5 15.5t-29.5 10.5q0 -19 -12.5 -30.5
t-33.5 -11.5zM117 54q-13 0 -19.5 -5t-6.5 -12q0 -8 5.5 -11.5t16.5 -3.5q13 0 19 7t6 22q-6 1 -11 2t-10 1z" />
    <glyph glyph-name="uni308E.vert" orientation="v" 
d="M211 53q6 5 8.5 13t2.5 19q0 13 -9 23t-27 10q-13 0 -29.5 -8t-35.5 -24v-88h-20v69l-33 -38l-13 13l20 23q8 9 14.5 18t11.5 17v20l-38 -10l-6 21l44 7v47h17q6 -1 6.5 -3t-3.5 -5v-33l10 -7q3 -2 2.5 -4.5t-5.5 -4.5l-7 -14v-7q19 13 35 20t29 7q30 0 43.5 -16.5
t13.5 -36.5q0 -13 -3.5 -23t-11.5 -17q-9 -10 -22 -18t-30 -14l-11 19q15 4 27 10t20 15z" />
    <glyph glyph-name="glyph419" horiz-adv-x="191" 
d="M157 34q0 21 -10.5 30.5t-26.5 11.5q-4 -16 -11.5 -31t-18.5 -30l5 -11l-15 -11l-5 8q-10 -9 -19.5 -13t-18.5 -4q-10 0 -17.5 7.5t-7.5 25.5q0 20 11.5 36.5t32.5 29.5q0 8 0.5 15t0.5 14l-34 -2l-3 19l38 1l2 36h17q6 -1 6.5 -3t-4.5 -5l-3 -27q17 1 34 2.5t33 4.5
l2 -20q-18 -2 -35.5 -3t-35.5 -2v-12t-1 -12q9 2 17 3t15 1l1 13l18 -3q4 -1 4.5 -2.5t-3.5 -2.5l-1 -7q23 -3 38 -17t15 -40q0 -25 -14.5 -39t-48.5 -18l-10 18q31 2 42 11.5t11 27.5zM74 72q1 -11 3 -21t5 -19q6 8 11 19.5t9 25.5q-8 0 -15 -1.5t-13 -3.5zM57 64
q-10 -6 -19.5 -20t-9.5 -26q0 -10 3.5 -13t7.5 -3q7 0 14 3.5t14 11.5q-4 13 -6.5 24.5t-3.5 22.5z" />
    <glyph glyph-name="glyph420" horiz-adv-x="241" 
d="M198 48q0 21 -12 33.5t-35 14.5q-8 -26 -17 -44.5t-19 -28.5l6 -13l-19 -14l-5 11q-13 -11 -24 -16.5t-20 -5.5q-13 0 -23 10.5t-10 29.5q0 27 15.5 47.5t36.5 31.5l2 38l-42 -2l-4 22l47 1q1 11 1.5 22t1.5 22h19q5 -1 5.5 -3t-3.5 -5q-1 -9 -1.5 -18t-1.5 -17
q24 1 44.5 3.5t37.5 5.5l4 -22q-21 -3 -42.5 -4.5t-44.5 -2.5l-2 -32q7 2 17 3.5t22 2.5l3 16l19 -3q5 -1 5.5 -3t-3.5 -5l-1 -7q36 -4 51.5 -23.5t15.5 -45.5q0 -31 -19 -47t-58 -23l-13 22q38 4 52 15t14 34zM39 22q0 -6 3.5 -11t10.5 -5q8 0 16.5 4.5t17.5 14.5
q-5 15 -8 29.5t-4 28.5q-15 -8 -25.5 -23.5t-10.5 -37.5zM105 43q8 11 14 24.5t9 30.5q-9 0 -17 -1.5t-16 -3.5q1 -13 3.5 -25.5t6.5 -24.5z" />
    <glyph glyph-name="glyph421" horiz-adv-x="206" 
d="M26 143l19 -5q6 -2 6 -4t-5 -4q-2 -21 -3.5 -34.5t-1.5 -20.5q0 -29 4.5 -43.5t12.5 -14.5q7 0 12 9.5t9 20.5l18 -13q-4 -13 -14 -27t-27 -14q-15 0 -25 18t-10 65q0 6 1.5 22.5t3.5 44.5zM168 33q-7 31 -17 52.5t-23 34.5l17 11q15 -14 27 -37t20 -56z" />
    <glyph glyph-name="glyph422" horiz-adv-x="242" vert-adv-y="210" 
d="M65 -2q-21 0 -32.5 19t-11.5 83q0 20 1 40t3 41l21 -5q6 -2 6.5 -4.5t-5.5 -5.5q-2 -19 -3 -35.5t-1 -31.5q0 -45 5.5 -60t14.5 -15q10 0 17 11.5t12 28.5l20 -14q-9 -26 -22 -39t-25 -13zM226 53l-27 -7q-6 35 -18 62t-31 47l21 12q23 -24 36.5 -52.5t18.5 -61.5z" />
    <glyph glyph-name="glyph423" horiz-adv-x="154" 
d="M92 105q23 0 33 -13t10 -32q0 -35 -22 -55t-55 -27l-13 17q19 3 33 10t24 17q7 6 10 15.5t3 21.5q0 10 -5.5 18.5t-17.5 8.5q-8 0 -25.5 -3.5t-44.5 -9.5l-9 20q48 8 61.5 10t17.5 2zM121 147l-6 -19q-28 3 -47.5 6.5t-30.5 7.5l4 20q16 -5 36 -9t44 -6z" />
    <glyph glyph-name="glyph424" horiz-adv-x="181" 
d="M117 32q10 9 14.5 20.5t4.5 24.5q0 9 -2.5 16t-7.5 12q-4 4 -10 6t-13 2q-14 -2 -34 -7t-46 -13l-11 26q19 3 37 7t34 8q9 2 15.5 3t10.5 1q11 0 20 -3.5t16 -10.5q8 -8 12 -19.5t4 -26.5q0 -20 -6.5 -36.5t-20.5 -29.5q-12 -12 -28 -21t-37 -14l-16 23q21 4 37 12t27 20
zM136 164q-20 2 -44 6t-53 10l6 25q28 -7 52 -11t44 -6z" />
    <glyph glyph-name="glyph425" horiz-adv-x="192" 
d="M12 1q27 28 50.5 51t42.5 41l-72 -7l-6 20q34 -1 59.5 1.5t42.5 8.5l12 -15q-11 -9 -24.5 -20.5t-28.5 -25.5q5 1 8.5 1.5t6.5 0.5q9 0 13 -5t4 -15v-22q0 -5 2 -7t5 -2h50l-4 -18h-52q-9 0 -14 5t-5 16v20q0 6 -3 9.5t-9 3.5t-11.5 -2.5t-10.5 -7.5q-9 -11 -18.5 -22
t-19.5 -21zM52 138v19q16 -3 35 -4.5t41 -1.5l-2 -19q-24 1 -42.5 2.5t-31.5 3.5z" />
    <glyph glyph-name="glyph426" horiz-adv-x="231" vert-adv-y="246" 
d="M32 130q45 3 73.5 5.5t40.5 4.5l8 4l17 -17q-19 -14 -35 -27.5t-29 -27.5q10 1 16.5 1.5t9.5 -0.5q6 -2 8.5 -6.5t2.5 -10.5v-34q0 -6 3 -9t9 -2h58l-4 -22h-50q-18 0 -27 7.5t-9 23.5v25q0 6 -3.5 9t-11.5 3q-6 0 -12.5 -3t-13.5 -9q-13 -12 -25 -25t-24 -27l-18 12
q24 28 52.5 56.5t60.5 57.5l-90 -11zM152 167q-22 0 -45.5 1.5t-47.5 4.5l3 23q19 -4 42.5 -6t50.5 -2z" />
    <glyph glyph-name="glyph427" horiz-adv-x="206" 
d="M63 100q-8 -1 -17 -2t-19 -1l-3 18q11 0 20.5 0.5t18.5 1.5v42h15q5 -1 5.5 -3t-3.5 -5v-31q8 1 16.5 3t16.5 6l5 -16q-8 -4 -17.5 -6.5t-20.5 -3.5v-31q10 3 20 4.5t20 1.5q34 0 48.5 -15.5t14.5 -36.5q0 -20 -11.5 -31.5t-32.5 -11.5q-17 0 -26.5 9.5t-13.5 19.5l15 9
q4 -8 10.5 -14t16.5 -6t16.5 5t6.5 21q0 13 -10 24t-35 11q-9 0 -18.5 -2t-20.5 -5v-40q0 -24 -8.5 -30.5t-22.5 -6.5q-12 0 -20.5 7.5t-8.5 21.5q0 18 11 32.5t32 26.5v34zM63 48q-13 -9 -20 -19.5t-7 -21.5q0 -6 4 -9t10 -3t9.5 4t3.5 15v34zM191 105l-16 -16
q-11 12 -21 20.5t-19 14.5l14 17q10 -7 20.5 -16t21.5 -20z" />
    <glyph glyph-name="glyph428" horiz-adv-x="242" vert-adv-y="248" 
d="M137 103q40 0 60 -18t20 -45q0 -25 -14.5 -37.5t-34.5 -12.5q-21 0 -31.5 9.5t-17.5 22.5l18 12q4 -10 12 -17t19 -7t19.5 7t8.5 24q0 15 -13 29t-43 14q-11 0 -22.5 -2t-23.5 -6v-53q0 -20 -10.5 -30.5t-28.5 -10.5q-12 0 -23 10t-11 26q0 25 13 40.5t40 30.5v43
q-12 -2 -23.5 -2.5t-22.5 -0.5l-3 21q11 -1 23 -0.5t26 2.5v50h20q4 -1 4 -3t-4 -5v-39q11 2 21 5t19 7l5 -22q-9 -3 -20.5 -5.5t-24.5 -4.5v-39q13 3 24 5t19 2zM40 20q0 -12 5.5 -15.5t10.5 -3.5q9 0 13.5 7t4.5 21v39q-18 -13 -26 -23.5t-8 -24.5zM176 177
q17 -11 29.5 -21.5t21.5 -20.5l-16 -16q-12 12 -24.5 22t-25.5 19z" />
    <glyph glyph-name="glyph429" vert-adv-y="238" 
d="M68 117q-11 -2 -21.5 -3t-21.5 -2l-2 22q9 0 21.5 0.5t28.5 2.5q5 15 8.5 31t6.5 32l21 -7q6 -3 6 -5t-7 -4l-6 -22t-6 -23q6 1 12.5 1.5t12.5 0.5q7 0 12.5 -2t8.5 -5q6 -6 9 -19.5t3 -34.5q0 -47 -10.5 -66t-29.5 -19q-9 0 -18.5 5.5t-19.5 16.5l13 18q8 -8 14 -12
t10 -4q11 0 15.5 15.5t4.5 49.5q0 14 -1.5 22.5t-4.5 11.5q-1 1 -4 2t-8 1q-4 0 -10.5 -0.5t-14.5 -1.5q-10 -37 -22.5 -69t-27.5 -58l-23 8q15 22 27.5 51.5t23.5 65.5zM166 147l18 13q21 -21 35 -46.5t21 -54.5l-22 -9q-9 32 -22 56.5t-30 40.5z" />
    <glyph glyph-name="glyph430" vert-adv-y="243" 
d="M68 117q-11 -2 -21.5 -3t-21.5 -2l-2 22q9 0 21.5 0.5t28.5 2.5q5 15 8.5 31t6.5 32l21 -7q6 -3 6 -5t-7 -4l-6 -22t-6 -23q6 1 12.5 1.5t12.5 0.5q7 0 12.5 -2t8.5 -5q6 -6 9 -19.5t3 -34.5q0 -47 -10.5 -66t-29.5 -19q-9 0 -18.5 5.5t-19.5 16.5l13 18q8 -8 14 -12
t10 -4q11 0 15.5 15.5t4.5 49.5q0 14 -1.5 22.5t-4.5 11.5q-1 1 -4 2t-8 1q-4 0 -10.5 -0.5t-14.5 -1.5q-10 -37 -22.5 -69t-27.5 -58l-23 8q15 22 27.5 51.5t23.5 65.5zM166 147l18 13q21 -21 35 -46.5t21 -54.5l-22 -9q-9 32 -22 56.5t-30 40.5zM210 212q9 -5 19 -12
t21 -16l-12 -12q-11 8 -21 15t-19 13zM217 148q-11 9 -21 16.5t-18 12.5l12 12q9 -5 19 -12t21 -16z" />
    <glyph glyph-name="glyph431" horiz-adv-x="216" 
d="M131 123q16 2 32 5.5t31 8.5l9 -21q-13 -3 -28 -6t-33 -5q8 -10 17.5 -19.5t21.5 -18.5l-17 -17q-18 4 -32 6t-25 2q-35 0 -47 -8t-12 -19q0 -12 9.5 -18t41.5 -6h61l-4 -22h-61q-35 0 -51.5 12t-16.5 35q0 18 17.5 30.5t63.5 12.5q9 0 18 -1l18 -2q-7 7 -13 14.5
t-12 14.5q-23 -3 -49 -4.5t-54 -1.5l-3 21q26 -1 50 0t46 4q-3 6 -6 12.5t-5 12.5q-18 -2 -37.5 -2.5t-39.5 -0.5l-2 20q21 -1 39.5 -0.5t34.5 2.5q-2 9 -4 19t-4 22h22q5 -1 5.5 -3t-4.5 -5q1 -8 2.5 -15.5t2.5 -14.5q13 1 26.5 3.5t26.5 6.5l7 -20q-17 -3 -30.5 -5.5
t-23.5 -3.5q2 -6 5 -12.5t7 -12.5z" />
    <glyph glyph-name="glyph432" horiz-adv-x="231" 
d="M131 121q16 2 32 5.5t31 8.5l9 -21q-13 -3 -28 -6t-33 -5q8 -10 17.5 -19.5t21.5 -18.5l-17 -17q-18 4 -32 6t-25 2q-35 0 -47 -8t-12 -19q0 -12 9.5 -18t41.5 -6h61l-4 -22h-61q-35 0 -51.5 12t-16.5 35q0 18 17.5 30.5t63.5 12.5q9 0 18 -1l18 -2q-7 7 -13 14.5
t-12 14.5q-23 -3 -49 -4.5t-54 -1.5l-3 21q26 -1 50 0t46 4q-3 6 -6 12.5t-5 12.5q-18 -2 -37.5 -2.5t-39.5 -0.5l-2 20q21 -1 39.5 -0.5t34.5 2.5q-2 9 -4 19t-4 22h22q5 0 5.5 -2.5t-4.5 -5.5q1 -8 2.5 -15.5t2.5 -14.5q13 1 26.5 3.5t26.5 6.5l7 -20q-17 -3 -30.5 -5.5
t-23.5 -3.5q2 -6 5 -12.5t7 -12.5zM216 173q-11 9 -21 16t-20 13l10 13q11 -7 21.5 -14t19.5 -15zM212 165l-10 -14q-11 8 -21.5 15.5t-20.5 13.5l11 13q10 -7 20.5 -14t20.5 -14z" />
    <glyph glyph-name="glyph433" horiz-adv-x="151" vert-adv-y="247" 
d="M28 113q33 30 54 53t30 39l18 -14q5 -5 3.5 -7t-8.5 -1q-7 -11 -27 -31.5t-52 -50.5q-2 -2 -3 -4t-1 -3q0 -3 1 -5.5t3 -3.5q28 -22 50.5 -43t39.5 -40l-18 -18q-17 20 -38.5 41.5t-47.5 43.5q-7 6 -11 12t-4 11t3 10.5t8 10.5z" />
    <glyph glyph-name="glyph434" horiz-adv-x="209" vert-adv-y="248" 
d="M29 111q33 30 54 53t30 39l18 -14q6 -4 4 -6.5t-9 -1.5q-7 -11 -27 -31.5t-52 -50.5q-2 -2 -3 -4t-1 -3q0 -3 1 -5.5t3 -3.5q28 -22 50.5 -43t39.5 -40l-18 -18q-17 20 -38.5 41.5t-47.5 43.5q-7 6 -11 12t-4 11t3 10.5t8 10.5zM142 168q9 -7 18.5 -15t19.5 -17l-11 -14
q-12 10 -21.5 18t-16.5 14zM161 192q8 -7 17.5 -15t20.5 -17l-11 -14q-10 9 -19.5 17t-18.5 15z" />
    <glyph glyph-name="glyph435" horiz-adv-x="242" vert-adv-y="243" 
d="M178 82q0 -29 -8.5 -54t-25.5 -46l-21 12q18 20 26.5 43t8.5 49v28q-19 -2 -37 -2.5t-35 -0.5v22q17 -1 35 -0.5t37 2.5v61h18q5 -1 5.5 -3t-3.5 -5v-52q13 1 24.5 2.5t22.5 3.5l3 -21q-13 -2 -25.5 -3t-24.5 -2v-34zM39 186l19 -5q7 -2 7 -4t-6 -5q-4 -22 -6.5 -43.5
t-2.5 -43.5q0 -18 2 -37t6 -39l-22 -4q-3 18 -5 38t-2 42q0 29 2.5 54t7.5 47z" />
    <glyph glyph-name="glyph436" horiz-adv-x="251" vert-adv-y="253" 
d="M179 80q0 -29 -8.5 -54t-25.5 -46l-21 12q18 20 26.5 43t8.5 49v28q-19 -2 -37 -2.5t-35 -0.5v22q17 -1 35 -0.5t37 2.5v61h18q5 0 5.5 -2.5t-3.5 -5.5v-52q13 1 24.5 2.5t22.5 3.5l3 -21q-13 -2 -25.5 -3t-24.5 -2v-34zM40 184l19 -5q7 -2 7 -4t-6 -5q-4 -22 -6.5 -43.5
t-2.5 -43.5q0 -18 2 -37t6 -39l-22 -4q-3 18 -5 38t-2 42q0 29 2.5 54t7.5 47zM208 214q9 -5 18 -11t19 -13l-9 -14q-10 8 -19.5 14t-17.5 10zM196 189q8 -4 17.5 -10t19.5 -14l-9 -14q-11 8 -20.5 14t-16.5 10z" />
    <glyph glyph-name="glyph437" horiz-adv-x="204" vert-adv-y="222" 
d="M76 5q-30 0 -42.5 12t-12.5 32q0 5 1 11.5t3 14.5l23 -3l-3.5 -14t-1.5 -9q0 -12 8.5 -17t25.5 -5h109v-22h-110zM36 174h130v-22h-130v22z" />
    <glyph glyph-name="glyph438" horiz-adv-x="229" vert-adv-y="246" 
d="M76 0q-30 0 -42.5 12t-12.5 32q0 5 1 11.5t3 14.5l23 -3l-3.5 -14t-1.5 -9q0 -12 8.5 -17t25.5 -5h109v-22h-110zM36 169h130v-22h-130v22zM185 213q9 -5 18.5 -11t19.5 -14l-9 -14q-11 8 -20.5 14t-17.5 11zM171 190q9 -5 18.5 -11t19.5 -14l-9 -14q-11 8 -20.5 14
t-17.5 11z" />
    <glyph glyph-name="glyph439" horiz-adv-x="196" 
d="M20 130l-6 20q25 0 44.5 0.5t34.5 1.5q-5 14 -8.5 27t-5.5 25h22q5 -1 5.5 -3t-3.5 -5q2 -10 5 -20.5t7 -21.5q18 1 33 3.5t27 5.5l5 -22q-14 -2 -28.5 -3.5t-28.5 -2.5q10 -19 25.5 -35.5t35.5 -30.5l-15 -18q-18 8 -36.5 12.5t-36.5 4.5q-23 0 -37.5 -7t-14.5 -23
q0 -14 15.5 -23.5t59.5 -9.5h35l-5 -22h-38q-45 0 -66.5 15.5t-21.5 39.5t18 36t49 12q19 0 30 -1t14 -3q-12 15 -20 27.5t-13 23.5q-20 -2 -40.5 -2.5t-40.5 -0.5z" />
    <glyph glyph-name="glyph440" horiz-adv-x="226" 
d="M20 130l-6 20q25 0 44.5 0.5t34.5 1.5q-5 14 -8.5 27t-5.5 25h22q5 -1 5.5 -3t-3.5 -5q2 -10 5 -20.5t7 -21.5q18 1 33 3.5t27 5.5l5 -22q-14 -2 -28.5 -3.5t-28.5 -2.5q10 -19 25.5 -35.5t35.5 -30.5l-15 -18q-18 8 -36.5 12.5t-36.5 4.5q-23 0 -37.5 -7t-14.5 -23
q0 -14 15.5 -23.5t59.5 -9.5h35l-5 -22h-38q-45 0 -66.5 15.5t-21.5 39.5t18 36t49 12q19 0 30 -1t14 -3q-12 15 -20 27.5t-13 23.5q-20 -2 -40.5 -2.5t-40.5 -0.5zM183 215q8 -5 17.5 -11t19.5 -13l-9 -14q-10 7 -19.5 13t-17.5 11zM169 192q8 -5 17.5 -11t19.5 -13l-9 -14
q-10 7 -19.5 13t-17.5 11z" />
    <glyph glyph-name="glyph441" horiz-adv-x="196" vert-adv-y="236" 
d="M93 -11q-18 0 -31 4t-22 13q-6 6 -9.5 18.5t-3.5 31.5v134h21q5 -1 5.5 -3t-3.5 -5v-126q0 -13 2.5 -21.5t6.5 -12.5q6 -6 14 -8.5t19 -2.5q20 0 39.5 11t39.5 33l15 -19q-21 -24 -44.5 -35.5t-48.5 -11.5z" />
    <glyph glyph-name="glyph442" horiz-adv-x="196" vert-adv-y="236" 
d="M93 -11q-18 0 -31 4t-22 13q-6 6 -9.5 18.5t-3.5 31.5v134h21q5 -1 5.5 -3t-3.5 -5v-126q0 -13 2.5 -21.5t6.5 -12.5q6 -6 14 -8.5t19 -2.5q20 0 39.5 11t39.5 33l15 -19q-21 -24 -44.5 -35.5t-48.5 -11.5zM161 173l-10 -13q-10 7 -20 13t-19 12l10 13q10 -7 20 -13
t19 -12zM141 151l-10 -13q-10 6 -19.5 12.5t-19.5 12.5l10 13q10 -6 20 -12.5t19 -12.5z" />
    <glyph glyph-name="glyph443" horiz-adv-x="246" 
d="M98 45q-17 0 -27.5 10.5t-10.5 25.5q0 16 12 28t30 12q6 0 12 -1t11 -2v22l-110 -7l-4 21l114 5v47h18q6 -1 6.5 -3t-4.5 -5v-38l85 6v-21l-85 -4v-38q2 -9 3 -19t1 -21q0 -26 -14.5 -47.5t-42.5 -38.5l-19 14q25 14 37.5 29.5t12.5 31.5q-6 -4 -12 -5.5t-13 -1.5zM80 81
q0 -10 6 -14.5t15 -4.5q11 0 17.5 6t6.5 16q0 7 -5 13.5t-16 6.5q-9 0 -16.5 -6t-7.5 -17z" />
    <glyph glyph-name="glyph444" horiz-adv-x="251" 
d="M98 45q-17 0 -27.5 10.5t-10.5 25.5q0 16 12 28t30 12q6 0 12 -1t11 -2v22l-110 -7l-4 21l114 5v47h18q6 -1 6.5 -3t-4.5 -5v-38l85 6v-21l-85 -4v-38q2 -9 3 -19t1 -21q0 -26 -14.5 -47.5t-42.5 -38.5l-19 14q25 14 37.5 29.5t12.5 31.5q-6 -4 -12 -5.5t-13 -1.5zM80 81
q0 -10 6 -14.5t15 -4.5q11 0 17.5 6t6.5 16q0 7 -5 13.5t-16 6.5q-9 0 -16.5 -6t-7.5 -17zM203 170q-7 6 -15 11.5t-17 11.5l10 12q9 -5 17 -11t16 -13zM233 180q-7 5 -15 11t-17 12l10 12q9 -6 17 -12l16 -12z" />
    <glyph glyph-name="glyph445" vert-adv-y="241" 
d="M182 74q0 -14 -6.5 -21t-20.5 -7h-33l-4 22h34q5 0 7.5 2.5t2.5 7.5v32l-75 -5v-73q0 -9 5 -13.5t14 -4.5h98l-4 -22h-95q-19 0 -28.5 9.5t-9.5 28.5v73l-50 -4l-3 21l53 3v51h18q5 -1 5.5 -3t-3.5 -5v-42l75 5v59h18q5 -1 5.5 -3t-3.5 -5v-50l54 3l2 -21l-56 -1v-37z
" />
    <glyph glyph-name="glyph446" 
d="M182 74q0 -14 -6.5 -21t-20.5 -7h-33l-4 22h34q5 0 7.5 2.5t2.5 7.5v32l-75 -5v-73q0 -9 5 -13.5t14 -4.5h98l-4 -22h-95q-19 0 -28.5 9.5t-9.5 28.5v73l-50 -4l-3 21l53 3v51h18q5 -1 5.5 -3t-3.5 -5v-42l75 5v59h18q5 -1 5.5 -3t-3.5 -5v-50l54 3l2 -21l-56 -1v-37z
M212 216q10 -6 19 -12l18 -12l-9 -14q-10 7 -19.5 13t-17.5 11zM201 191q8 -5 17.5 -11t19.5 -13l-9 -14q-10 7 -19.5 13t-17.5 11z" />
    <glyph glyph-name="glyph447" horiz-adv-x="236" vert-adv-y="241" 
d="M61 162l-4 21q35 1 56.5 3.5t30.5 6.5l10 4l18 -19q3 -3 2 -4.5t-6 -2.5q-20 -16 -40 -31.5t-41 -31.5q31 4 64 7.5t68 6.5v-21l-38 -3q-29 -3 -51.5 -17.5t-22.5 -38.5q0 -21 19 -30t53 -9l-9 -26q-42 3 -64 18.5t-22 41.5q0 18 9 32t26 24q-27 -4 -51.5 -7.5
t-47.5 -7.5l-5 22q11 1 21 2.5t20 3.5q14 9 32.5 25.5t42.5 39.5q-17 -3 -34.5 -5.5t-35.5 -3.5z" />
    <glyph glyph-name="glyph448" horiz-adv-x="246" 
d="M61 162l-4 21q35 1 56.5 3.5t30.5 6.5l10 4l18 -19q3 -3 2 -4.5t-6 -2.5q-20 -16 -40 -31.5t-41 -31.5q31 4 64 7.5t68 6.5v-21l-38 -3q-29 -3 -51.5 -17.5t-22.5 -38.5q0 -21 19 -30t53 -9l-9 -26q-42 3 -64 18.5t-22 41.5q0 18 9 32t26 24q-27 -4 -51.5 -7.5
t-47.5 -7.5l-5 22q11 1 21 2.5t20 3.5q14 9 32.5 25.5t42.5 39.5q-17 -3 -34.5 -5.5t-35.5 -3.5zM217 153q-11 9 -21 15.5t-18 9.5l10 12q8 -4 18 -10t21 -15zM230 179q-11 8 -20.5 14.5t-18.5 10.5l10 12q10 -5 20 -11.5t19 -13.5z" />
    <glyph glyph-name="glyph449" horiz-adv-x="236" vert-adv-y="251" 
d="M219 13v-22h-44q-19 0 -37 4.5t-35 13.5l9 18q13 -7 29 -10.5t34 -3.5h44zM44 -11l-22 7q14 31 23.5 64t14.5 68q-12 -1 -22.5 -1.5t-20.5 -0.5l-4 20q14 0 26.5 0.5t23.5 1.5q2 15 4 28.5t3 25.5l20 -4q6 -2 6.5 -4t-4.5 -4q-1 -6 -3 -16t-5 -24q12 1 22.5 3t19.5 5
l4 -20q-13 -3 -25 -5t-24 -3q-7 -45 -16.5 -80t-20.5 -61zM214 96q-29 -1 -51.5 -5t-39.5 -11l-6 20q22 8 45 12.5t48 4.5z" />
    <glyph glyph-name="glyph450" horiz-adv-x="236" vert-adv-y="251" 
d="M219 13v-22h-44q-19 0 -37 4.5t-35 13.5l9 18q13 -7 29 -10.5t34 -3.5h44zM44 -11l-22 7q14 31 23.5 64t14.5 68q-12 -1 -22.5 -1.5t-20.5 -0.5l-4 20q14 0 26.5 0.5t23.5 1.5q2 15 4 28.5t3 25.5l20 -4q6 -2 6.5 -4t-4.5 -4q-1 -6 -3 -16t-5 -24q12 1 22.5 3t19.5 5
l4 -20q-13 -3 -25 -5t-24 -3q-7 -45 -16.5 -80t-20.5 -61zM214 96q-29 -1 -51.5 -5t-39.5 -11l-6 20q22 8 45 12.5t48 4.5zM190 206q8 -5 18 -11.5t21 -14.5l-9 -14q-11 8 -20.5 14.5t-18.5 11.5zM170 186q9 -6 19 -12.5t20 -13.5l-9 -14q-11 7 -20.5 13.5t-18.5 12.5z" />
    <glyph glyph-name="glyph451" horiz-adv-x="221" vert-adv-y="251" 
d="M172 45q0 12 -9.5 21.5t-29.5 9.5q-13 0 -24.5 -2.5t-21.5 -7.5q-6 -3 -16 -10.5t-24 -18.5l-18 14l6 6t5 7q6 17 10.5 34.5t7.5 35.5q-13 -2 -25.5 -2.5t-23.5 -0.5l-3 20q12 0 26 0.5t30 2.5q3 11 4.5 22.5t2.5 24.5l19 -5q6 -2 6.5 -4t-4.5 -4q-1 -8 -3 -16l-4 -16
q20 2 36 4t27 5l4 -21q-20 -3 -37.5 -5t-33.5 -3q-3 -15 -6.5 -30t-7.5 -29q18 9 34.5 13.5t30.5 4.5q32 0 48 -14t16 -39q0 -29 -24 -43.5t-86 -13.5l-7 22q51 -2 73 6.5t22 31.5z" />
    <glyph glyph-name="glyph452" horiz-adv-x="231" 
d="M172 45q0 12 -9.5 21.5t-29.5 9.5q-13 0 -24.5 -2.5t-21.5 -7.5q-6 -3 -16 -10.5t-24 -18.5l-18 14l6 6t5 7q6 17 10.5 34.5t7.5 35.5q-13 -2 -25.5 -2.5t-23.5 -0.5l-3 20q12 0 26 0.5t30 2.5q3 11 4.5 22.5t2.5 24.5l19 -5q6 -2 6.5 -4t-4.5 -4q-1 -8 -3 -16l-4 -16
q20 2 36 4t27 5l4 -21q-20 -3 -37.5 -5t-33.5 -3q-3 -15 -6.5 -30t-7.5 -29q18 9 34.5 13.5t30.5 4.5q32 0 48 -14t16 -39q0 -29 -24 -43.5t-86 -13.5l-7 22q51 -2 73 6.5t22 31.5zM178 214q9 -5 18 -11t19 -13l-9 -14q-10 7 -19.5 13t-17.5 11zM159 193q9 -5 18 -11t19 -13
l-9 -14q-10 7 -19.5 13t-17.5 11z" />
    <glyph glyph-name="glyph453" horiz-adv-x="206" 
d="M23 81l-10 21q16 5 30.5 9.5t27.5 8.5q15 4 28.5 6.5t26.5 2.5q26 0 42.5 -16.5t16.5 -41.5q0 -15 -3.5 -26.5t-11.5 -18.5q-13 -14 -36 -21t-55 -8l-8 21q32 0 52.5 5.5t30.5 15.5q6 5 8.5 13t2.5 19q0 14 -9.5 26.5t-32.5 12.5q-9 0 -20 -2t-24 -6q-12 -4 -26 -9.5
t-30 -11.5z" />
    <glyph glyph-name="glyph454" horiz-adv-x="244" vert-adv-y="201" 
d="M85 30q38 0 62.5 6.5t36.5 18.5q8 7 11.5 16.5t3.5 20.5q0 19 -12 35t-46 16q-12 0 -27 -3t-32 -9q-13 -5 -27 -10.5t-30 -12.5l-11 26l56 16q25 7 43.5 10.5t30.5 3.5q40 0 59 -19t19 -51q0 -17 -4.5 -30t-13.5 -22q-17 -17 -45 -26t-68 -9z" />
    <glyph glyph-name="glyph455" horiz-adv-x="245" vert-adv-y="236" 
d="M84 30q38 0 62.5 6.5t36.5 18.5q8 7 11.5 16.5t3.5 20.5q0 19 -12 35t-46 16q-12 0 -27 -3t-32 -9q-13 -5 -27 -10.5t-30 -12.5l-11 26l56 16q25 7 43.5 10.5t30.5 3.5q40 0 59 -19t19 -51q0 -17 -4.5 -30t-13.5 -22q-17 -17 -45 -26t-68 -9zM197 162q-6 7 -14.5 14.5
t-19.5 15.5l12 12q10 -7 19 -14.5t16 -14.5zM224 176q-9 9 -17 16.5t-16 13.5l12 12q9 -7 17 -14.5t16 -15.5z" />
    <glyph glyph-name="glyph456" horiz-adv-x="231" vert-adv-y="231" 
d="M216 157q-17 0 -31 -2t-24 -5q-11 -4 -21 -11t-20 -16q-9 -10 -14 -22t-5 -27q0 -28 21 -43.5t71 -17.5l-8 -22q-56 2 -80.5 24.5t-24.5 57.5q0 23 9.5 41.5t27.5 32.5q-23 -4 -47 -7.5t-49 -6.5l-6 23q49 3 98.5 9t98.5 15z" />
    <glyph glyph-name="glyph457" horiz-adv-x="231" vert-adv-y="231" 
d="M216 157q-17 0 -31 -2t-24 -5q-11 -4 -21 -11t-20 -16q-9 -10 -14 -22t-5 -27q0 -28 21 -43.5t71 -17.5l-8 -22q-56 2 -80.5 24.5t-24.5 57.5q0 23 9.5 41.5t27.5 32.5q-23 -4 -47 -7.5t-49 -6.5l-6 23q49 3 98.5 9t98.5 15zM156 104l10 12q8 -5 17.5 -11t20.5 -14
l-10 -12q-11 8 -20.5 14t-17.5 11zM176 128l10 12q7 -4 16.5 -10.5t21.5 -14.5l-10 -12q-12 8 -21.5 14.5t-16.5 10.5z" />
    <glyph glyph-name="glyph458" horiz-adv-x="196" vert-adv-y="246" 
d="M66 200h21q6 -1 6.5 -3t-4.5 -5l2 -48q1 -11 2.5 -19.5t4.5 -14.5q14 6 33 12t42 13l10 -26q-68 -13 -103 -32t-35 -40q0 -11 8.5 -17t27.5 -6h96v-22h-97q-33 0 -46 13t-13 30q0 18 11.5 33t44.5 33q-3 7 -4.5 15.5t-2.5 17.5z" />
    <glyph glyph-name="glyph459" horiz-adv-x="226" vert-adv-y="246" 
d="M66 200h21q6 -1 6.5 -3t-4.5 -5l2 -48q1 -11 2.5 -19.5t4.5 -14.5q14 6 33 12t42 13l10 -26q-68 -13 -103 -32t-35 -40q0 -11 8.5 -17t27.5 -6h96v-22h-97q-33 0 -46 13t-13 30q0 18 11.5 33t44.5 33q-3 7 -4.5 15.5t-2.5 17.5zM196 162l-10 -13q-9 6 -18.5 12t-20.5 13
l10 13q12 -7 21.5 -13.5t17.5 -11.5zM218 182l-10 -13q-10 7 -20 13t-19 12l10 13q11 -7 21 -13.5t18 -11.5z" />
    <glyph glyph-name="glyph460" horiz-adv-x="231" 
d="M163 113q6 -1 6.5 -3t-4.5 -5v-58q13 -4 26 -9.5t26 -12.5l-12 -19q-11 6 -21 11t-19 8q-2 -21 -14 -32t-32 -11q-25 0 -37 9.5t-12 27.5q0 15 13.5 25.5t34.5 10.5q9 0 15.5 -1t11.5 -2v61h18zM16 135l-3 21q13 0 25.5 0.5t24.5 1.5q3 9 6 21t6 27l18 -6q5 -2 5 -4
t-5 -4l-9 -32q9 1 17.5 2.5t17.5 4.5l5 -21q-14 -3 -25.5 -5t-20.5 -2q-8 -26 -19.5 -53.5t-27.5 -57.5l-20 10q16 27 27 52t18 47q-8 -1 -18 -1.5t-22 -0.5zM152 167q14 -5 31 -11t36 -13l-9 -21q-21 9 -37.5 15t-28.5 10zM118 37q-15 0 -21 -5.5t-6 -12.5q0 -10 6.5 -13.5
t18.5 -3.5q18 0 23.5 9.5t5.5 21.5q-6 2 -12.5 3t-14.5 1z" />
    <glyph glyph-name="glyph461" horiz-adv-x="241" vert-adv-y="226" 
d="M170 12q-23 0 -42.5 7.5t-35.5 22.5l13 17q14 -13 30 -19.5t35 -5.5h55v-22h-55zM27 -7q-1 26 -2 48t-1 41q0 22 3 49t8 58l20 -5q6 -1 6 -3.5t-5 -5.5q-5 -29 -7.5 -52.5t-2.5 -40.5q0 -20 1 -41.5t3 -45.5zM212 141q-21 0 -49 -1.5t-63 -4.5v21q36 3 64 4.5t48 1.5v-21
z" />
    <glyph glyph-name="glyph462" vert-adv-y="241" 
d="M176 -4q-21 0 -31 8.5t-10 23.5q0 13 9.5 21.5t29.5 8.5q8 0 16.5 -2t17.5 -6q1 3 1.5 9.5t0.5 16.5q0 24 -13.5 40t-52.5 16q-4 -21 -11.5 -41.5t-18.5 -41.5l10 -13l-15 -18l-9 10q-9 -14 -21.5 -22.5t-23.5 -8.5q-16 0 -25 14.5t-9 30.5q0 17 8 35.5t24 33.5
q-4 19 -6.5 36.5t-2.5 32.5l21 3q6 0 6.5 -2t-4.5 -6q0 -10 1.5 -22t3.5 -26q13 9 26.5 14.5t26.5 8.5q3 14 4 27.5t0 25.5l21 -4q6 -1 6.5 -3t-4.5 -5q0 -9 -1.5 -19t-3.5 -20q42 0 64 -18t22 -54q0 -12 -1 -23t-4 -20l19 -18l-15 -18l-14 17q-8 -11 -18.5 -16.5
t-23.5 -5.5zM61 91q-14 -19 -17.5 -29.5t-3.5 -18.5q0 -13 4.5 -19t10.5 -6q11 0 20 9.5t12 16.5q-8 11 -14.5 23t-11.5 24zM121 129q-11 -3 -21.5 -8.5t-21.5 -13.5q4 -12 9.5 -22t11.5 -19q6 10 11.5 26t10.5 37zM171 41q-11 0 -14.5 -4t-3.5 -9q0 -6 4 -9.5t18 -3.5
q10 0 16.5 4.5t9.5 13.5q-8 4 -15.5 6t-14.5 2z" />
    <glyph glyph-name="glyph463" vert-adv-y="247" 
d="M246 26l-14 -21q-4 4 -9 7.5t-10 6.5q-6 -15 -18 -22t-30 -7q-24 0 -34 10t-10 24q0 13 11 23t27 10q10 0 20 -2t20 -6q1 6 1.5 13.5t0.5 17.5q0 26 -6 37.5t-24 11.5q-19 0 -40.5 -11t-45.5 -33v-102h-20v82q-9 -12 -18.5 -24t-19.5 -23l-16 14q18 17 31.5 35t22.5 37
v15l-47 -11l-4 21l51 9v64h18q6 -1 6.5 -3t-4.5 -5v-44l16 -11l-16 -21v-9q24 20 46 30t42 10q25 0 37.5 -14t12.5 -56q0 -12 -0.5 -21.5t-2.5 -17.5q7 -3 13.5 -6.5t12.5 -7.5zM164 40q-13 0 -19 -5t-6 -12t6 -11.5t16 -4.5q13 0 21.5 5.5t13.5 17.5q-11 5 -19 7.5t-13 2.5
z" />
    <glyph glyph-name="glyph464" vert-adv-y="231" 
d="M97 17q-6 -7 -13 -10t-14 -3q-22 0 -35.5 21.5t-13.5 47.5q0 46 34 77.5t80 31.5t71.5 -27.5t25.5 -63.5q0 -33 -17 -57t-61 -43l-21 21q18 5 31.5 13t23.5 18q10 9 14.5 20.5t4.5 25.5q0 31 -20.5 52.5t-66.5 19.5l18 -9q6 -3 6 -5.5t-6 -5.5q-8 -50 -18.5 -81
t-22.5 -43zM44 71q0 -15 7.5 -28t16.5 -13q3 0 6.5 1.5t6.5 5.5q12 11 20.5 42t13.5 81q-32 -9 -51.5 -32.5t-19.5 -56.5z" />
    <glyph glyph-name="glyph465" vert-adv-y="243" 
d="M184 128q1 -19 1 -38t-1 -38q15 -6 29.5 -13.5t28.5 -17.5l-12 -19q-10 8 -21.5 15t-24.5 13q0 -19 -12 -30t-34 -11q-20 0 -32.5 10t-12.5 28q0 16 11.5 25t32.5 9q7 0 13.5 -1t12.5 -2q1 17 1 34t-1 35l-74 -5v21l72 4q0 14 -1 26.5t-3 23.5h21q6 -1 6.5 -3t-4.5 -5
q1 -11 1.5 -21t0.5 -20l54 3v-21zM33 -6q-2 14 -3 30t-1 35q0 40 3 72.5t9 57.5l22 -4q4 -2 3.5 -3.5t-4.5 -3.5q-5 -18 -8 -47.5t-3 -71.5q0 -19 1.5 -34.5t3.5 -26.5zM137 43q-14 0 -19.5 -6t-5.5 -10q0 -10 6.5 -14.5t18.5 -4.5q15 0 21 8t5 22q-8 2 -14.5 3.5t-11.5 1.5
z" />
    <glyph glyph-name="glyph466" vert-adv-y="253" 
d="M184 128q1 -19 1 -38t-1 -38q15 -6 29.5 -13.5t28.5 -17.5l-12 -19q-10 8 -21.5 15t-24.5 13q0 -19 -12 -30t-34 -11q-20 0 -32.5 10t-12.5 28q0 16 11.5 25t32.5 9q7 0 13.5 -1t12.5 -2q1 17 1 34t-1 35l-74 -5v21l72 4q0 14 -1 26.5t-3 23.5h21q6 -1 6.5 -3t-4.5 -5
q1 -11 1.5 -21t0.5 -20l54 3v-21zM33 -6q-2 14 -3 30t-1 35q0 40 3 72.5t9 57.5l22 -4q4 -2 3.5 -3.5t-4.5 -3.5q-5 -18 -8 -47.5t-3 -71.5q0 -19 1.5 -34.5t3.5 -26.5zM137 43q-14 0 -19.5 -6t-5.5 -10q0 -10 6.5 -14.5t18.5 -4.5q15 0 21 8t5 22q-8 2 -14.5 3.5t-11.5 1.5
zM241 179q-9 7 -18 13t-18 11l10 12q11 -6 20 -12t16 -12zM226 159q-10 8 -19 14t-17 10l10 12q10 -6 19 -12t17 -12z" />
    <glyph glyph-name="glyph467" vert-adv-y="253" 
d="M184 128q1 -19 1 -38t-1 -38q15 -6 29.5 -13.5t28.5 -17.5l-12 -19q-10 8 -21.5 15t-24.5 13q0 -19 -12 -30t-34 -11q-20 0 -32.5 10t-12.5 28q0 16 11.5 25t32.5 9q7 0 13.5 -1t12.5 -2q1 17 1 34t-1 35l-74 -5v21l72 4q0 14 -1 26.5t-3 23.5h21q6 -1 6.5 -3t-4.5 -5
q1 -11 1.5 -21t0.5 -20l54 3v-21zM33 -6q-2 14 -3 30t-1 35q0 40 3 72.5t9 57.5l22 -4q4 -2 3.5 -3.5t-4.5 -3.5q-5 -18 -8 -47.5t-3 -71.5q0 -19 1.5 -34.5t3.5 -26.5zM137 43q-14 0 -19.5 -6t-5.5 -10q0 -10 6.5 -14.5t18.5 -4.5q15 0 21 8t5 22q-8 2 -14.5 3.5t-11.5 1.5
zM197 188q0 12 8 20t20 8t20 -8t8 -20t-8 -20t-20 -8t-20 8t-8 20zM207 188q0 -7 5.5 -12.5t12.5 -5.5t12.5 5.5t5.5 12.5t-5.5 12.5t-12.5 5.5t-12.5 -5.5t-5.5 -12.5z" />
    <glyph glyph-name="glyph468" horiz-adv-x="246" vert-adv-y="231" 
d="M91 156q-18 -28 -27.5 -51.5t-9.5 -43.5q0 -24 11.5 -38.5t38.5 -14.5q28 0 40.5 20t12.5 67q0 24 -1.5 43.5t-5.5 34.5l25 3q1 -12 3.5 -24.5t6.5 -24.5q6 -16 17.5 -33.5t28.5 -36.5l-18 -18q-8 10 -17.5 25.5t-19.5 35.5q1 -5 1 -9.5v-9.5q0 -52 -19 -74t-56 -22
q-34 0 -52 20t-18 50q0 22 8.5 47t25.5 52q-11 -3 -22.5 -6t-22.5 -5l-5 24q24 2 42.5 6t31.5 11l13 -20q-4 -1 -7 -3t-5 -5z" />
    <glyph glyph-name="glyph469" horiz-adv-x="246" 
d="M91 156q-18 -28 -27.5 -51.5t-9.5 -43.5q0 -24 11.5 -38.5t38.5 -14.5q28 0 40.5 20t12.5 67q0 24 -1.5 43.5t-5.5 34.5l25 3q1 -12 3.5 -24.5t6.5 -24.5q6 -16 17.5 -33.5t28.5 -36.5l-18 -18q-8 10 -17.5 25.5t-19.5 35.5q1 -5 1 -9.5v-9.5q0 -52 -19 -74t-56 -22
q-34 0 -52 20t-18 50q0 22 8.5 47t25.5 52q-11 -3 -22.5 -6t-22.5 -5l-5 24q24 2 42.5 6t31.5 11l13 -20q-4 -1 -7 -3t-5 -5zM213 157q-10 8 -19 14t-17 10l10 12q10 -5 19 -11t17 -13zM228 177q-10 8 -19 14t-17 10l10 12q10 -5 19 -11t17 -13z" />
    <glyph glyph-name="glyph470" horiz-adv-x="246" 
d="M91 156q-18 -28 -27.5 -51.5t-9.5 -43.5q0 -24 11.5 -38.5t38.5 -14.5q28 0 40.5 20t12.5 67q0 24 -1.5 43.5t-5.5 34.5l25 3q1 -12 3.5 -24.5t6.5 -24.5q6 -16 17.5 -33.5t28.5 -36.5l-18 -18q-8 10 -17.5 25.5t-19.5 35.5q1 -5 1 -9.5v-9.5q0 -52 -19 -74t-56 -22
q-34 0 -52 20t-18 50q0 22 8.5 47t25.5 52q-11 -3 -22.5 -6t-22.5 -5l-5 24q24 2 42.5 6t31.5 11l13 -20q-4 -1 -7 -3t-5 -5zM182 187q0 12 8 20t20 8t20 -8t8 -20t-8 -20t-20 -8t-20 8t-8 20zM192 187q0 -7 5.5 -12.5t12.5 -5.5t12.5 5.5t5.5 12.5t-5.5 12.5t-12.5 5.5
t-12.5 -5.5t-5.5 -12.5z" />
    <glyph glyph-name="glyph471" vert-adv-y="246" 
d="M123 8q13 0 18 5.5t5 20.5q0 16 -10.5 26.5t-25.5 17.5q-20 8 -27 14t-7 16q0 4 2.5 10.5t6.5 15.5l25 -10q-4 -6 -6 -9.5t-2 -5.5t3 -4t8 -4q36 -15 47 -30.5t11 -36.5q0 -25 -12 -38t-36 -13q-10 0 -21.5 3t-24.5 10l7 24q13 -6 22.5 -9t16.5 -3zM90 56
q-19 -16 -33.5 -29t-25.5 -24l-17 17q14 13 28 25.5t29 25.5zM82 174l12 20q16 -9 33 -15.5t34 -11.5l-11 -22q-24 8 -41 15.5t-27 13.5zM229 18q-14 21 -26.5 37t-23.5 27l18 13q16 -15 29 -31t22 -32z" />
    <glyph glyph-name="glyph472" vert-adv-y="246" 
d="M123 8q13 0 18 5.5t5 20.5q0 16 -10.5 26.5t-25.5 17.5q-20 8 -27 14t-7 16q0 4 2.5 10.5t6.5 15.5l25 -10q-4 -6 -6 -9.5t-2 -5.5t3 -4t8 -4q36 -15 47 -30.5t11 -36.5q0 -25 -12 -38t-36 -13q-10 0 -21.5 3t-24.5 10l7 24q13 -6 22.5 -9t16.5 -3zM90 56
q-19 -16 -33.5 -29t-25.5 -24l-17 17q14 13 28 25.5t29 25.5zM82 174l12 20q16 -9 33 -15.5t34 -11.5l-11 -22q-24 8 -41 15.5t-27 13.5zM229 18q-14 21 -26.5 37t-23.5 27l18 13q16 -15 29 -31t22 -32zM212 146q-10 8 -19 14t-17 10l10 12q11 -6 20 -12t16 -12zM227 166
q-10 8 -19 14t-17 10l10 12q11 -6 20 -12t16 -12z" />
    <glyph glyph-name="glyph473" vert-adv-y="246" 
d="M123 8q13 0 18 5.5t5 20.5q0 16 -10.5 26.5t-25.5 17.5q-20 8 -27 14t-7 16q0 4 2.5 10.5t6.5 15.5l25 -10q-4 -6 -6 -9.5t-2 -5.5t3 -4t8 -4q36 -15 47 -30.5t11 -36.5q0 -25 -12 -38t-36 -13q-10 0 -21.5 3t-24.5 10l7 24q13 -6 22.5 -9t16.5 -3zM90 56
q-19 -16 -33.5 -29t-25.5 -24l-17 17q14 13 28 25.5t29 25.5zM82 174l12 20q16 -9 33 -15.5t34 -11.5l-11 -22q-24 8 -41 15.5t-27 13.5zM229 18q-14 21 -26.5 37t-23.5 27l18 13q16 -15 29 -31t22 -32zM184 177q0 12 8 20t20 8t20 -8t8 -20t-8 -20t-20 -8t-20 8t-8 20z
M194 177q0 -7 5.5 -12.5t12.5 -5.5t12.5 5.5t5.5 12.5t-5.5 12.5t-12.5 5.5t-12.5 -5.5t-5.5 -12.5z" />
    <glyph glyph-name="glyph474" vert-adv-y="166" 
d="M118 113q-3 2 -6 3.5t-6 1.5t-5.5 -1t-4.5 -3q-23 -21 -38.5 -34.5t-24.5 -20.5l-20 20q14 8 31.5 22t39.5 35q5 4 10 6.5t10 2.5q7 0 13 -2.5t11 -6.5q38 -32 67 -52.5t49 -30.5l-23 -23q-28 20 -53.5 41t-49.5 42z" />
    <glyph glyph-name="glyph475" vert-adv-y="201" 
d="M118 113q-3 2 -6 3.5t-6 1.5t-5.5 -1t-4.5 -3q-23 -21 -38.5 -34.5t-24.5 -20.5l-20 20q14 8 31.5 22t39.5 35q5 4 10 6.5t10 2.5q7 0 13 -2.5t11 -6.5q38 -32 67 -52.5t49 -30.5l-23 -23q-28 20 -53.5 41t-49.5 42zM204 148l-13 -13q-11 8 -21 15t-20 12l12 12
q9 -5 19.5 -11.5t22.5 -14.5zM183 198q9 -5 19 -11.5t21 -15.5l-12 -13q-11 9 -21 16t-19 12z" />
    <glyph glyph-name="glyph476" vert-adv-y="201" 
d="M118 113q-3 2 -6 3.5t-6 1.5t-5.5 -1t-4.5 -3q-23 -21 -38.5 -34.5t-24.5 -20.5l-20 20q14 8 31.5 22t39.5 35q5 4 10 6.5t10 2.5q7 0 13 -2.5t11 -6.5q38 -32 67 -52.5t49 -30.5l-23 -23q-28 20 -53.5 41t-49.5 42zM152 166q0 12 8 20t20 8t20 -8t8 -20t-8 -20t-20 -8
t-20 8t-8 20zM162 166q0 -7 5.5 -12.5t12.5 -5.5t12.5 5.5t5.5 12.5t-5.5 12.5t-12.5 5.5t-12.5 -5.5t-5.5 -12.5z" />
    <glyph glyph-name="glyph477" vert-adv-y="231" 
d="M182 103q1 -13 1.5 -25.5t-0.5 -25.5q16 -7 30 -15t27 -16l-12 -19q-17 11 -28.5 18t-17.5 10q0 -23 -13 -32t-33 -9q-24 0 -34.5 10.5t-10.5 25.5q0 13 11.5 24.5t32.5 11.5q8 0 15 -1t12 -2q1 11 0.5 22t-1.5 22l-72 -3v21l71 3q0 10 -1 19l-2 18l-64 -3v21l130 6v-21
l-45 -2q1 -8 2 -17.5t1 -19.5l53 3v-21zM135 43q-14 0 -19.5 -6t-5.5 -12q0 -9 6.5 -13t16.5 -4q16 0 23 8t5 22q-5 2 -11.5 3.5t-14.5 1.5zM50 65q0 -19 1.5 -36t4.5 -31l-23 -4q-2 14 -3 31t-1 38q0 33 2.5 65t7.5 64l22 -5q6 -2 6.5 -4t-5.5 -4q-6 -22 -9 -50.5t-3 -63.5
z" />
    <glyph glyph-name="glyph478" vert-adv-y="246" 
d="M182 103q1 -13 1.5 -25.5t-0.5 -25.5q16 -7 30 -15t27 -16l-12 -19q-17 11 -28.5 18t-17.5 10q0 -23 -13 -32t-33 -9q-24 0 -34.5 10.5t-10.5 25.5q0 13 11.5 24.5t32.5 11.5q8 0 15 -1t12 -2q1 11 0.5 22t-1.5 22l-72 -3v21l71 3q0 10 -1 19l-2 18l-64 -3v21l88 4
l21 -19l-24 -2q1 -8 2 -17.5t1 -19.5l53 3v-21zM135 43q-14 0 -19.5 -6t-5.5 -12q0 -9 6.5 -13t16.5 -4q16 0 23 8t5 22q-5 2 -11.5 3.5t-14.5 1.5zM50 65q0 -19 1.5 -36t4.5 -31l-23 -4q-2 14 -3 31t-1 38q0 33 2.5 65t7.5 64l22 -5q6 -2 6.5 -4t-5.5 -4q-6 -22 -9 -50.5
t-3 -63.5zM199 199q8 -6 16 -13.5t17 -16.5l-11 -11q-9 9 -17 16.5t-16 13.5zM218 216q8 -6 16 -13.5t17 -16.5l-11 -11q-9 9 -17 16.5t-16 13.5z" />
    <glyph glyph-name="glyph479" vert-adv-y="246" 
d="M182 103q1 -13 1.5 -25.5t-0.5 -25.5q16 -7 30 -15t27 -16l-12 -19q-17 11 -28.5 18t-17.5 10q0 -23 -13 -32t-33 -9q-24 0 -34.5 10.5t-10.5 25.5q0 13 11.5 24.5t32.5 11.5q8 0 15 -1t12 -2q1 11 0.5 22t-1.5 22l-72 -3v21l71 3q0 10 -1 19l-2 18l-64 -3v21l97 4l5 -21
h-17q1 -8 2 -17.5t1 -19.5l53 3v-21zM135 43q-14 0 -19.5 -6t-5.5 -12q0 -9 6.5 -13t16.5 -4q16 0 23 8t5 22q-5 2 -11.5 3.5t-14.5 1.5zM50 65q0 -19 1.5 -36t4.5 -31l-23 -4q-2 14 -3 31t-1 38q0 33 2.5 65t7.5 64l22 -5q6 -2 6.5 -4t-5.5 -4q-6 -22 -9 -50.5t-3 -63.5z
M195 187q0 12 8 20t20 8t20 -8t8 -20t-8 -20t-20 -8t-20 8t-8 20zM205 187q0 -7 5.5 -12.5t12.5 -5.5t12.5 5.5t5.5 12.5t-5.5 12.5t-12.5 5.5t-12.5 -5.5t-5.5 -12.5z" />
    <glyph glyph-name="glyph480" horiz-adv-x="228" vert-adv-y="251" 
d="M129 54q21 -5 41 -12t39 -16l-11 -22q-18 11 -35.5 19t-33.5 12q0 -26 -12 -38.5t-40 -12.5q-19 0 -31 10t-12 28q0 16 13.5 26.5t36.5 10.5q4 0 10.5 -0.5t14.5 -0.5v31l-76 -2v20l76 2v35l-94 -3v20l94 3v39h18q6 -1 6.5 -3t-4.5 -5v-29l82 3v-20l-82 -3v-36l65 2v-20
l-65 -2v-36zM86 41q-16 0 -24.5 -5.5t-8.5 -15.5q0 -9 8 -13.5t19 -4.5q13 0 21.5 9t6.5 28q-5 1 -10.5 1.5t-11.5 0.5z" />
    <glyph glyph-name="glyph481" vert-adv-y="236" 
d="M157 -14l-21 12q16 14 26 32t15 40q-17 6 -35 10.5t-36 7.5q-13 -29 -22 -46t-14 -21q-6 -6 -13 -9t-15 -3q-12 0 -20.5 8.5t-8.5 26.5q0 21 21.5 42t57.5 21q6 15 11.5 29.5t10.5 28.5q-14 -4 -28 -7l-28 -6l-9 20q17 2 32.5 4.5t30.5 6.5l12 5l17 -13q5 -3 5 -5.5
t-6 -3.5q-6 -12 -13 -27t-15 -33q16 -2 33 -6t35 -10q1 12 1.5 26.5t-0.5 32.5l19 -4q6 -1 6.5 -3t-4.5 -5q0 -17 -0.5 -30.5t-1.5 -23.5q10 -4 21 -9t23 -11l-10 -20q-10 6 -19.5 11t-18.5 9q-5 -23 -14.5 -42t-24.5 -35zM32 44q0 -6 3.5 -9.5t9.5 -3.5q5 0 9 2.5t7 8.5
q3 4 9 15.5t15 30.5q-24 0 -38.5 -15.5t-14.5 -28.5z" />
    <glyph glyph-name="glyph482" horiz-adv-x="251" vert-adv-y="251" 
d="M63 30q-4 -2 -7.5 -3t-6.5 -1q-13 0 -22.5 11t-9.5 29q0 23 12.5 35.5t28.5 12.5q5 0 9 -1t7 -2v29l-50 -5l-4 21l54 4v43h19q4 -2 4.5 -3.5t-3.5 -3.5v-34l45 4l3 -20l-48 -4v-46q2 -3 3 -6.5t1 -6.5q0 -10 -3.5 -19.5t-11.5 -18.5l2 -26q1 -8 7 -11.5t17 -3.5h51
q11 0 16 5t5 15v39l20 -4v-39q0 -18 -9 -26.5t-28 -8.5h-55q-20 0 -31 7t-13 22zM224 97q-15 15 -29 26.5t-27 20.5l12 18q18 -13 32.5 -24.5t24.5 -22.5zM36 66q0 -10 4 -15.5t11 -5.5q10 0 17 9.5t7 20.5q0 14 -5 18t-12 4q-9 0 -15.5 -7t-6.5 -24z" />
    <glyph glyph-name="glyph483" horiz-adv-x="251" vert-adv-y="241" 
d="M229 73q0 -33 -19 -53t-51 -30l-13 19q27 8 44.5 22.5t17.5 42.5q0 30 -18 46t-46 18q-5 -21 -13.5 -42.5t-19.5 -43.5l19 -22l-16 -12l-14 16q-9 -15 -19.5 -25t-23.5 -10q-14 0 -26.5 12.5t-12.5 36.5q0 18 10 37t29 39q-3 15 -5.5 29t-4.5 28h19q5 -1 5.5 -3t-3.5 -5
q1 -11 2.5 -20.5t3.5 -16.5q13 8 26.5 13t26.5 7q2 7 4 18.5t4 26.5l20 -5q5 -2 5 -4t-5 -4l-7 -32q38 -2 59.5 -24.5t21.5 -58.5zM63 102q-12 -15 -18.5 -29t-6.5 -27q0 -12 6 -19.5t13 -7.5q6 0 13 7.5t16 23.5q-6 10 -12 23t-11 29zM79 116q5 -17 10 -29t9 -18
q9 16 15 33t10 34q-12 -2 -23 -7t-21 -13z" />
    <glyph glyph-name="glyph484" horiz-adv-x="206" 
d="M125 5q26 0 35 8.5t9 30.5q0 7 -1.5 16t-4.5 20l21 3q4 -14 5.5 -23.5t1.5 -14.5q0 -33 -16 -47.5t-51 -14.5q-28 0 -45 16t-15 45l2 30h-51v19h54l4 39h-47v19h50l5 57l22 -3q6 -2 6.5 -4t-4.5 -4l-8 -46h39v-19h-42l-4 -39h48v-19h-51l-2 -25q-2 -23 9.5 -33.5
t30.5 -10.5z" />
    <glyph glyph-name="glyph485" horiz-adv-x="216" 
d="M70 148q6 -1 6.5 -3t-4.5 -5q0 -9 1 -17.5t3 -17.5l41 14l1 37h17q6 -1 6.5 -3t-4.5 -5l-2 -25q3 0 5.5 0.5t4.5 0.5q22 0 37 -12.5t15 -32.5q0 -22 -12 -32t-30 -10q-13 0 -23 3t-18 9l7 17q10 -6 18 -8.5t14 -2.5q12 0 18.5 5.5t6.5 17.5q0 11 -8 20t-23 9q-6 0 -12 -1
t-12 -3l-42 -16q6 -23 14.5 -47t20.5 -49l-19 -9q-12 26 -20.5 50.5t-14.5 46.5l-37 -16l-11 18l44 17q-3 14 -4.5 26.5t-2.5 23.5h19z" />
    <glyph glyph-name="glyph486" vert-adv-y="236" 
d="M64 187h21q5 -1 5.5 -3t-3.5 -5q0 -8 1.5 -19.5t4.5 -26.5l50 18l2 46h19q6 -1 6.5 -3t-4.5 -5l-3 -34q5 1 9.5 1.5t8.5 0.5q27 0 43.5 -15t16.5 -41q0 -27 -14.5 -39t-36.5 -12q-16 0 -28.5 4t-22.5 13l9 19q11 -8 21 -11.5t19 -3.5q13 0 22.5 6.5t9.5 23.5t-11 27
t-28 10q-10 0 -20 -2t-20 -6l-43 -17q9 -33 19.5 -62.5t23.5 -55.5l-23 -9q-11 27 -21 56.5t-19 62.5l-48 -20l-11 20l54 21q-2 11 -4.5 26t-4.5 35z" />
    <glyph glyph-name="glyph487" horiz-adv-x="216" 
d="M185 74q0 -14 -3.5 -24.5t-11.5 -17.5q-8 -8 -20.5 -12t-30.5 -4q-4 -13 -10 -23t-13 -18l-17 10q7 8 12 16.5t8 18.5q-10 5 -18.5 13.5t-15.5 21.5l15 12q6 -12 12 -19t12 -10q2 7 2.5 13t0.5 12v24q-1 14 -1.5 20.5l-0.5 6.5q-28 -9 -48 -35.5t-20 -54.5q0 -4 1 -8.5
t2 -9.5l-19 -5q-7 33 -6.5 67.5t8.5 70.5l20 -4q4 -2 3.5 -3.5t-5.5 -2.5q-4 -18 -6 -32t-2 -24q18 28 34 41t36 18l-2 32h18q5 -1 5.5 -3t-3.5 -5l2 -22q28 2 45 -14t17 -46zM165 74q0 22 -10 32t-30 10q1 -9 1.5 -16t0.5 -11v-28q0 -3 -1 -10t-3 -17q20 -2 31 8t11 32z
" />
    <glyph glyph-name="glyph488" horiz-adv-x="251" 
d="M149 169q38 0 56.5 -18.5t18.5 -54.5t-19 -52t-60 -16q-3 -12 -9 -24t-15 -24l-23 8q11 13 17.5 24t8.5 20q-13 5 -24 15.5t-19 26.5l16 14q6 -13 14 -22t18 -14q2 8 2.5 14.5t0.5 11.5v40q-1 12 -1.5 19.5t-0.5 9.5q-37 -11 -61.5 -44t-24.5 -60q0 -6 1 -13t3 -15
l-22 -5q-8 41 -7 82.5t11 84.5l20 -6q6 -2 6 -4t-6 -4q-4 -15 -6.5 -33t-3.5 -40q16 31 40 50.5t49 25.5l-2 40h19q5 -1 5.5 -3t-3.5 -5zM152 77q0 -8 -0.5 -15.5t-2.5 -14.5q24 0 39 10t15 40q0 23 -12.5 38t-39.5 15q1 -6 1 -13.5v-16.5v-43z" />
    <glyph glyph-name="glyph489" horiz-adv-x="186" 
d="M56 -18q-18 0 -27.5 9.5t-9.5 22.5q0 12 11.5 23t31.5 11q6 0 11 -0.5t10 -1.5q0 27 -1 54t-3 55h18q6 -1 6.5 -3t-4.5 -5l2 -41q17 0 32.5 1.5t28.5 4.5v-16q-16 -3 -31 -4.5t-30 -1.5l1 -47q22 -6 40 -13t32 -14l-9 -18q-18 9 -33.5 15.5t-29.5 10.5q0 -19 -12.5 -30.5
t-33.5 -11.5zM62 31q-13 0 -19.5 -5t-6.5 -12q0 -8 5.5 -11.5t16.5 -3.5q13 0 19 7t6 22q-6 1 -11 2t-10 1z" />
    <glyph glyph-name="glyph490" horiz-adv-x="221" vert-adv-y="246" 
d="M196 6q-23 13 -41.5 21t-32.5 12q0 -28 -14.5 -40t-40.5 -12q-22 0 -34.5 11t-12.5 27q0 13 12 26.5t41 13.5q9 0 16.5 -0.5t12.5 -1.5q-1 27 -3 60t-5 72h20q5 -1 5.5 -3t-3.5 -5q0 -8 0.5 -20.5t1.5 -28.5q14 -1 33 0.5t43 5.5v-21q-17 -3 -35.5 -4.5t-38.5 -1.5
q1 -15 1.5 -29.5t0.5 -27.5q19 -5 40 -13t44 -20zM74 47q-21 0 -28 -8t-7 -14q0 -9 7.5 -14t21.5 -5q19 0 26 9.5t7 28.5l-14 2t-13 1z" />
    <glyph glyph-name="glyph491" horiz-adv-x="206" 
d="M66 9h24q46 0 60 10.5t14 27.5q0 12 -9.5 21.5t-30.5 9.5q-22 0 -42 -11t-38 -32l-20 2l11 107l21 -4q5 -2 5 -4t-5 -4l-7 -65q18 15 38 22.5t42 7.5q24 0 40 -13t16 -37q0 -27 -20.5 -43.5t-72.5 -16.5h-18zM130 176l-10 -20q-18 7 -36.5 13.5t-38.5 12.5l9 18
q14 -4 33 -10t43 -14z" />
    <glyph glyph-name="glyph492" horiz-adv-x="191" vert-adv-y="251" 
d="M134 198h20q6 -1 6.5 -3t-4.5 -5q2 -16 2.5 -40.5t0.5 -57.5q0 -38 -17.5 -66t-53.5 -47l-17 17q34 16 50.5 40t16.5 57q0 34 -1 60t-3 45zM50 53q-3 0 -6.5 1.5t-6.5 4.5t-5 18t-2 42q0 20 1 38t3 35h22q4 -2 4 -3.5t-4 -3.5q-2 -12 -3.5 -28.5t-1.5 -37.5
q0 -22 1 -32.5t3 -10.5t4 1t4 3q4 3 9.5 9.5t13.5 17.5l15 -15q-8 -11 -16 -19t-15 -13q-4 -4 -9 -5.5t-11 -1.5z" />
    <glyph glyph-name="glyph493" horiz-adv-x="221" 
d="M180 50q0 23 -13.5 35.5t-40.5 12.5q-16 0 -29 -3.5t-22 -9.5q-8 -6 -19 -17t-25 -26l-17 15q36 36 63.5 66t45.5 54q-16 -2 -32.5 -4t-33.5 -3l-7 23q25 0 46.5 1t40.5 4l9 4l11 -11q6 -5 4.5 -8.5t-9.5 -4.5l-30 -34t-30 -33q11 2 19.5 3.5t15.5 1.5q38 0 56 -18
t18 -46q0 -33 -22.5 -51t-54.5 -18t-48 13.5t-16 33.5q0 13 10.5 22t21.5 9q20 0 32.5 -14.5t16.5 -41.5q17 2 28 14t11 31zM95 44q-9 0 -13 -5t-4 -10q0 -11 10 -19t24 -8h4.5h4.5q-2 21 -9 31.5t-17 10.5z" />
    <glyph glyph-name="glyph494" 
d="M156 133q-8 0 -24.5 -12.5t-41.5 -36.5v-100h-20v82l-44 -55l-16 16l40 47q6 7 11 14t9 15v24l-44 -15l-6 21l50 13v59h18q5 -1 5.5 -3t-3.5 -5v-45l11 -6q5 -2 4.5 -4.5t-6.5 -4.5l-9 -19v-7q24 22 41.5 33t29.5 11q15 0 22 -10t5 -30l-5 -77q0 -8 3 -12t9 -4
q14 0 21.5 9.5t12.5 23.5l17 -14q-11 -22 -22.5 -31.5t-26.5 -9.5q-18 0 -27 9.5t-8 28.5l5 76q1 9 -2 14t-9 5z" />
    <glyph glyph-name="glyph495" horiz-adv-x="216" vert-adv-y="246" 
d="M165 27q6 5 8.5 12t2.5 16q0 19 -11 29.5t-36 10.5q-30 0 -54.5 -13.5t-42.5 -39.5l-17 17q33 32 56.5 60t37.5 52q-16 -3 -32.5 -5t-33.5 -4l-7 23q18 0 40 1.5t47 5.5l7 3l12 -11q5 -5 4 -7.5t-7 -3.5q-13 -18 -26.5 -35t-26.5 -33q15 4 26.5 6t20.5 2q30 0 47 -15
t17 -43q0 -33 -26.5 -50t-89.5 -17l-10 21q38 -1 61.5 3.5t32.5 14.5z" />
    <glyph glyph-name="glyph496" horiz-adv-x="221" 
d="M172 33q6 5 8.5 13t2.5 19q0 13 -9 23t-27 10q-13 0 -29.5 -8t-35.5 -24v-88h-20v69l-33 -38l-13 13l20 23q8 9 14.5 18t11.5 17v20l-38 -10l-6 21l44 7v47h17q6 -1 6.5 -3t-3.5 -5v-33l10 -7q3 -2 2.5 -4.5t-5.5 -4.5l-7 -14v-7q19 13 35 20t29 7q30 0 43.5 -16.5
t13.5 -36.5q0 -13 -3.5 -23t-11.5 -17q-9 -10 -22 -18t-30 -14l-11 19q15 4 27 10t20 15z" />
    <glyph glyph-name="glyph497" 
d="M70 66l-41 -49l-16 16l27 30q10 11 17.5 21.5t12.5 19.5v25l-47 -12l-6 21l53 10v58h18q6 -1 6.5 -3t-4.5 -5v-41l15 -9q5 -3 4.5 -5.5t-7.5 -5.5l-12 -17v-12q22 17 43 26t41 9q32 0 48.5 -18.5t16.5 -46.5q0 -16 -4 -28t-13 -20q-11 -11 -27 -20.5t-38 -17.5l-10 20
q35 13 52 27.5t17 38.5q0 19 -11.5 32.5t-32.5 13.5q-18 0 -38.5 -10.5t-43.5 -31.5v-105h-20v89z" />
    <glyph glyph-name="glyph498" 
d="M151 136q40 0 62 -18.5t22 -57.5q0 -34 -18 -53t-51 -19q-22 0 -34.5 10t-12.5 27q0 16 10.5 24.5t21.5 8.5q17 0 29 -10t19 -28q8 8 11.5 17.5t3.5 20.5q0 28 -15.5 43.5t-49.5 15.5q-6 0 -12 -0.5t-12 -1.5q-10 -43 -21.5 -71t-24.5 -41q-3 -4 -8.5 -5.5t-12.5 -1.5
q-17 0 -26.5 12.5t-9.5 31.5q0 15 7.5 30t22.5 30q12 11 26 19t31 13l10 44q-15 -3 -30.5 -5t-31.5 -4v22q15 0 31.5 1t33.5 4l9 5l12 -11q5 -4 4.5 -6.5t-5.5 -3.5l-13 -44q6 1 11.5 1.5t10.5 0.5zM152 41q-5 0 -10 -4t-5 -11q0 -10 6.5 -14.5t16.5 -4.5q6 0 11 0.5t9 2.5
q-5 17 -12 24t-16 7zM104 111q-11 -5 -20.5 -10.5t-16.5 -12.5q-12 -12 -18 -24t-6 -23q0 -12 4.5 -17.5t9.5 -5.5q3 0 6 1t5 4q9 9 18 31t18 57z" />
    <glyph glyph-name="glyph499" 
d="M153 152q27 0 39.5 -11t12.5 -31q0 -30 -24 -42t-68 -12q-3 -2 -11 -9t-21 -18q5 1 8.5 1.5t5.5 0.5q9 0 16 -4.5t12 -13.5q17 17 32 26.5t32 9.5q27 0 40.5 -15.5t13.5 -26.5q0 -7 -4 -9t-12 0l-29 -12l-10 9l29 18q0 4 -7.5 10.5t-22.5 6.5q-14 0 -33.5 -16t-24.5 -33
l-22 5q4 14 -2 22t-21 8q-11 0 -23 -10t-27 -27l-18 15q15 14 34 30.5t43 35.5q-5 0 -10 5.5t-5 12.5q0 12 12 23.5t31 11.5q16 0 21 -6t5 -12q0 -7 -3 -13t-10 -10q24 2 38 10t14 26q0 13 -7.5 20.5t-27.5 7.5q-25 0 -50 -12t-50 -36l-16 16q27 18 50.5 37.5t43.5 40.5
q-14 -3 -29 -5.5t-30 -4.5l-3 19q20 2 40.5 5t40.5 7l8 3l10 -10q5 -4 4 -6.5t-8 -3.5l-22 -20t-23 -19q10 2 19.5 3.5t18.5 1.5zM92 81q0 -4 2.5 -6t7.5 -2q12 0 18.5 7t6.5 12q0 3 -2 5t-7 2q-12 0 -19 -6.5t-7 -11.5z" />
    <glyph glyph-name="glyph500" horiz-adv-x="219" 
d="M102 120q10 0 19 -6.5t9 -23.5q15 5 32 11t36 12l7 -24q-19 -3 -37.5 -8t-35.5 -11v-44h-20v36q-33 -15 -41.5 -26t-8.5 -19t7.5 -13.5t25.5 -5.5h84v-19h-85q-28 0 -41.5 10t-13.5 28q0 19 20 35.5t52 29.5q0 12 -5 16t-17 4q-10 0 -25 -9t-36 -27l-17 17q24 14 40 30
t24 34l-28 -2l-28 -2l-4 20q18 0 35 1t33 2q3 6 6 16t6 24l19 -5q5 -2 5 -4t-5 -4q-2 -7 -4 -13.5t-5 -12.5q18 1 35.5 3t33.5 5l3 -21q-19 -2 -38.5 -3.5t-39.5 -2.5q-5 -10 -10 -18t-10 -14q6 2 12 3t11 1z" />
    <glyph glyph-name="glyph501" horiz-adv-x="246" vert-adv-y="241" 
d="M100 80q-12 0 -23 -7.5t-20 -22.5q-5 -9 -10.5 -20.5t-11.5 -25.5l-23 12q21 32 45.5 77.5t52.5 104.5l22 -12q4 -4 3 -6t-6 -2q-10 -16 -22.5 -37t-27.5 -48q9 3 16.5 5t13.5 2t11 -2t8 -5q4 -4 6 -11t3 -17l6 -38q1 -7 5 -10t11 -3t12.5 2t9.5 7q10 9 17.5 28t12.5 47
l22 -11q-6 -29 -14 -47.5t-17 -27.5q-10 -10 -21 -15t-24 -5q-15 0 -24 8t-12 25l-7 43q-1 6 -4.5 9t-9.5 3z" />
    <glyph glyph-name="glyph502" vert-adv-y="215" 
d="M217 54q0 21 -10.5 30.5t-26.5 11.5q-4 -16 -11.5 -31t-18.5 -30l5 -11l-15 -11l-5 8q-10 -9 -19.5 -13t-18.5 -4q-10 0 -17.5 7.5t-7.5 25.5q0 20 11.5 36.5t32.5 29.5q0 8 0.5 15t0.5 14l-34 -2l-3 19l38 1l2 36h17q6 -1 6.5 -3t-4.5 -5l-3 -27q17 1 34 2.5t33 4.5
l2 -20q-18 -2 -35.5 -3t-35.5 -2v-12t-1 -12q9 2 17 3t15 1l1 13l18 -3q4 -1 4.5 -2.5t-3.5 -2.5l-1 -7q23 -3 38 -17t15 -40q0 -25 -14.5 -39t-48.5 -18l-10 18q31 2 42 11.5t11 27.5zM134 92q1 -11 3 -21t5 -19q6 8 11 19.5t9 25.5q-8 0 -15 -1.5t-13 -3.5zM117 84
q-10 -6 -19.5 -20t-9.5 -26q0 -10 3.5 -13t7.5 -3q7 0 14 3.5t14 11.5q-4 13 -6.5 24.5t-3.5 22.5z" />
    <glyph glyph-name="glyph503" vert-adv-y="178" 
d="M79 164l19 -5q6 -2 6 -4t-5 -4q-2 -21 -3.5 -34.5t-1.5 -20.5q0 -29 4.5 -43.5t12.5 -14.5q7 0 12 9.5t9 20.5l18 -13q-4 -13 -14 -27t-27 -14q-15 0 -25 18t-10 65q0 6 1.5 22.5t3.5 44.5zM221 54q-7 31 -17 52.5t-23 34.5l17 11q15 -14 27 -37t20 -56z" />
    <glyph glyph-name="glyph504" vert-adv-y="210" 
d="M167 127q23 0 33 -13t10 -32q0 -35 -22 -55t-55 -27l-13 17q19 3 33 10t24 17q7 6 10 15.5t3 21.5q0 10 -5.5 18.5t-17.5 8.5q-8 0 -25.5 -3.5t-44.5 -9.5l-9 20q48 8 61.5 10t17.5 2zM196 169l-6 -19q-28 3 -47.5 6.5t-30.5 7.5l4 20q16 -5 36 -9t44 -6z" />
    <glyph glyph-name="glyph505" vert-adv-y="199" 
d="M70 21q27 28 50.5 51t42.5 41l-72 -7l-6 20q34 -1 59.5 1.5t42.5 8.5l12 -15q-11 -9 -24.5 -20.5t-28.5 -25.5q5 1 8.5 1.5t6.5 0.5q9 0 13 -5t4 -15v-22q0 -4 1.5 -6t5.5 -2h50l-4 -16h-52q-9 0 -13.5 4.5t-4.5 14.5v19q0 6 -3.5 9.5t-9.5 3.5t-11.5 -2.5t-10.5 -7.5
q-9 -11 -18.5 -22t-19.5 -21zM110 158v19q16 -3 35 -4.5t41 -1.5l-2 -19q-24 1 -42.5 2.5t-31.5 3.5z" />
    <glyph glyph-name="glyph506" vert-adv-y="208" 
d="M113 125q-8 -1 -17 -2t-19 -1l-3 18q11 0 20.5 0.5t18.5 1.5v42h15q5 0 5.5 -2.5t-3.5 -5.5v-31q8 1 16.5 3t16.5 6l5 -16q-8 -4 -17.5 -6.5t-20.5 -3.5v-31q10 3 20 4.5t20 1.5q34 0 48.5 -15.5t14.5 -36.5q0 -20 -11.5 -31.5t-32.5 -11.5q-17 0 -26.5 9.5t-13.5 19.5
l15 9q4 -8 10.5 -14t16.5 -6t16.5 5t6.5 21q0 13 -10 24t-35 11q-9 0 -18.5 -2t-20.5 -5v-40q0 -24 -8.5 -30.5t-22.5 -6.5q-12 0 -20.5 7.5t-8.5 21.5q0 18 11 32.5t32 26.5v34zM113 73q-13 -9 -20 -19.5t-7 -21.5q0 -6 4 -9t10 -3t9.5 4t3.5 15v34zM241 130l-16 -16
q-11 12 -21 20.5t-19 14.5l14 17q10 -7 20.5 -16t21.5 -20z" />
    <glyph glyph-name="glyph507" vert-adv-y="184" 
d="M76 105l-10 21q16 5 30.5 9.5t27.5 8.5q15 4 28.5 6.5t26.5 2.5q26 0 42.5 -16.5t16.5 -41.5q0 -15 -3.5 -26.5t-11.5 -18.5q-13 -14 -36 -21t-55 -8l-8 21q32 0 52.5 5.5t30.5 15.5q6 5 8.5 13t2.5 19q0 14 -9.5 26.5t-32.5 12.5q-9 0 -20 -2t-24 -6q-12 -4 -26 -9.5
t-30 -11.5z" />
    <glyph glyph-name="glyph508" vert-adv-y="201" 
d="M118 171q6 -1 6.5 -3t-4.5 -5q0 -9 1 -17.5t3 -17.5l41 14l1 37h17q6 -1 6.5 -3t-4.5 -5l-2 -25q3 0 5.5 0.5t4.5 0.5q22 0 37 -12.5t15 -32.5q0 -22 -12 -32t-30 -10q-13 0 -23 3t-18 9l7 17q10 -6 18 -8.5t14 -2.5q12 0 18.5 5.5t6.5 17.5q0 11 -8 20t-23 9
q-6 0 -12 -1t-12 -3l-42 -16q6 -23 14.5 -47t20.5 -49l-19 -9q-12 26 -20.5 50.5t-14.5 46.5l-37 -16l-11 18l44 17q-3 14 -4.5 26.5t-2.5 23.5h19z" />
    <glyph glyph-name="glyph509" vert-adv-y="213" 
d="M237 96q0 -14 -3.5 -24.5t-11.5 -17.5q-8 -8 -20.5 -12t-30.5 -4q-4 -13 -10 -23t-13 -18l-17 10q7 8 12 16.5t8 18.5q-10 5 -18.5 13.5t-15.5 21.5l15 12q6 -12 12 -19t12 -10q2 7 2.5 13t0.5 12v24q-1 14 -1.5 20.5l-0.5 6.5q-28 -9 -48 -35.5t-20 -54.5q0 -4 1 -8.5
t2 -9.5l-19 -5q-7 33 -6.5 67.5t8.5 70.5l20 -4q4 -2 3.5 -3.5t-5.5 -2.5q-4 -18 -6 -32t-2 -24q18 28 34 41t36 18l-2 32h18q5 -1 5.5 -3t-3.5 -5l2 -22q28 2 45 -14t17 -46zM217 96q0 22 -10 32t-30 10q1 -9 1.5 -16t0.5 -11v-28q0 -3 -1 -10t-3 -17q20 -2 31 8t11 32z
" />
    <glyph glyph-name="glyph510" vert-adv-y="203" 
d="M111 5q-18 0 -27.5 9.5t-9.5 22.5q0 12 11.5 23t31.5 11q6 0 11 -0.5t10 -1.5q0 27 -1 54t-3 55h18q6 -1 6.5 -3t-4.5 -5l2 -41q17 0 32.5 1.5t28.5 4.5v-16q-16 -3 -31 -4.5t-30 -1.5l1 -47q22 -6 40 -13t32 -14l-9 -18q-18 9 -33.5 15.5t-29.5 10.5q0 -19 -12.5 -30.5
t-33.5 -11.5zM117 54q-13 0 -19.5 -5t-6.5 -12q0 -8 5.5 -11.5t16.5 -3.5q13 0 19 7t6 22q-6 1 -11 2t-10 1z" />
    <glyph glyph-name="glyph511" vert-adv-y="213" 
d="M211 53q6 5 8.5 13t2.5 19q0 13 -9 23t-27 10q-13 0 -29.5 -8t-35.5 -24v-88h-20v69l-33 -38l-13 13l20 23q8 9 14.5 18t11.5 17v20l-38 -10l-6 21l44 7v47h17q6 -1 6.5 -3t-3.5 -5v-33l10 -7q3 -2 2.5 -4.5t-5.5 -4.5l-7 -14v-7q19 13 35 20t29 7q30 0 43.5 -16.5
t13.5 -36.5q0 -13 -3.5 -23t-11.5 -17q-9 -10 -22 -18t-30 -14l-11 19q15 4 27 10t20 15z" />
    <glyph glyph-name="space" unicode=" " horiz-adv-x="128" 
 />
    <glyph glyph-name="exclam" unicode="!" horiz-adv-x="128" 
d="M78 175l-6 -113h-16l-6 113h28zM75 4h-22v22h22v-22z" />
    <glyph glyph-name="quotedbl" unicode="&#x22;" horiz-adv-x="128" 
d="M114 205l-35 -50h-18l25 50h28zM66 205l-35 -50h-18l25 50h28z" />
    <glyph glyph-name="numbersign" unicode="#" horiz-adv-x="128" 
d="M121 50h-30l-6 -46h-16l6 46h-33l-6 -46h-16l6 46h-20v19h22l6 42h-28v19h30l6 45h16l-6 -45h33l6 45h16l-6 -45h20v-19h-22l-6 -42h28v-19zM83 111h-33l-6 -42h33z" />
    <glyph glyph-name="dollar" unicode="$" horiz-adv-x="128" 
d="M110 52q0 -26 -13 -38t-27 -12v-25h-14v25q-17 0 -29.5 14t-12.5 43h23q0 -25 7 -31.5t12 -6.5v65q-24 13 -31 23.5t-7 24.5q0 18 10.5 29.5t27.5 13.5v19h14v-19q17 0 27.5 -13.5t10.5 -33.5h-22q0 15 -5.5 21.5t-10.5 6.5v-56q16 -8 28 -20t12 -30zM56 110v48
q-6 0 -11.5 -5.5t-5.5 -16.5q0 -7 3 -13.5t14 -12.5zM88 47q0 11 -5 18t-13 13v-57q6 1 12 6t6 20z" />
    <glyph glyph-name="percent" unicode="%" horiz-adv-x="128" 
d="M57 132q0 -29 -8.5 -37t-16.5 -8t-16.5 8t-8.5 37t8.5 37t16.5 8t16.5 -8t8.5 -37zM106 174l-77 -172l-8 3l77 172zM120 47q0 -29 -8.5 -37t-16.5 -8t-16.5 8t-8.5 37t8.5 37t16.5 8t16.5 -8t8.5 -37zM41 132q0 18 -2 24t-7 6t-7 -6t-2 -24t2 -24t7 -6t7 6t2 24zM104 47
q0 18 -2 24t-7 6t-7 -6t-2 -24t2 -24t7 -6t7 6t2 24z" />
    <glyph glyph-name="ampersand" unicode="&#x26;" horiz-adv-x="128" 
d="M123 24l-9 -20l-10.5 7t-9.5 8q-8 -8 -17 -12.5t-21 -4.5q-20 0 -34.5 12t-14.5 37q0 16 8.5 26.5t20.5 19.5q-5 11 -8 22t-3 20q0 18 10.5 28t25.5 10q13 0 22 -8.5t9 -24.5q0 -19 -10.5 -30.5t-23.5 -19.5q7 -12 14.5 -22.5t17.5 -21.5q3 7 4 13.5t1 16.5h20
q0 -13 -2.5 -23.5t-7.5 -19.5q3 -3 8.5 -7t9.5 -6zM73 144q0 7 -3.5 11t-9.5 4t-11 -5t-5 -14q0 -7 1.5 -14.5t5.5 -16.5q8 4 15 12.5t7 22.5zM80 32q-13 14 -22 26t-15 24q-8 -6 -11.5 -13.5t-3.5 -18.5q0 -15 9 -22.5t21 -7.5q7 0 12 3t10 9z" />
    <glyph glyph-name="quotesingle" unicode="'" horiz-adv-x="128" 
d="M45 155l-13 -30h-10l10 30h-10v22h23v-22z" />
    <glyph glyph-name="parenleft" unicode="(" horiz-adv-x="128" 
d="M120 -9l-11 -11q-25 24 -37.5 50t-12.5 59t12.5 59t37.5 51l11 -11q-23 -22 -34.5 -45.5t-11.5 -53.5t11.5 -53.5t34.5 -44.5z" />
    <glyph glyph-name="parenright" unicode=")" horiz-adv-x="128" 
d="M68 89q0 -33 -12.5 -59t-37.5 -50l-11 11q23 21 34.5 44.5t11.5 53.5t-11.5 53.5t-34.5 45.5l11 11q25 -25 37.5 -51t12.5 -59z" />
    <glyph glyph-name="asterisk" unicode="*" horiz-adv-x="128" 
d="M123 70l-10 -18l-41 26l2 -51h-20l2 51l-41 -26l-10 18l43 22l-43 22l10 18l41 -26l-2 48h20l-2 -48l41 26l10 -18l-43 -22z" />
    <glyph glyph-name="plus" unicode="+" horiz-adv-x="128" 
d="M121 84h-49v-49h-17v49h-49v16h49v49h17v-49h49v-16z" />
    <glyph glyph-name="comma" unicode="," horiz-adv-x="128" 
d="M45 4l-13 -27h-10l10 27h-10v22h23v-22z" />
    <glyph glyph-name="hyphen" unicode="-" horiz-adv-x="128" 
d="M120 84h-114v16h114v-16z" />
    <glyph glyph-name="period" unicode="." horiz-adv-x="128" 
d="M44 4h-23v22h23v-22z" />
    <glyph glyph-name="slash" unicode="/" horiz-adv-x="128" 
d="M121 181l-106 -189l-10 6l106 189z" />
    <glyph glyph-name="zero" unicode="0" horiz-adv-x="128" 
d="M119 90q0 -36 -13 -62t-42 -26t-42.5 26t-13.5 62t13.5 61.5t42.5 25.5t42 -25.5t13 -61.5zM95 90q0 32 -7.5 50t-23.5 18t-24 -18t-8 -50t8 -50.5t24 -18.5t23.5 18.5t7.5 50.5z" />
    <glyph glyph-name="one" unicode="1" horiz-adv-x="128" 
d="M78 4h-23v133h-30v12q18 0 28 7t13 21h12v-173z" />
    <glyph glyph-name="two" unicode="2" horiz-adv-x="128" 
d="M114 4h-102v16q6 16 16.5 29.5t30.5 30.5q15 13 21.5 24t6.5 24t-5.5 21.5t-17.5 8.5q-10 0 -17.5 -9t-7.5 -32h-23q1 29 13.5 44.5t35.5 15.5q22 0 34 -13.5t12 -36.5q0 -19 -11 -33t-27 -28q-18 -16 -25 -24t-13 -19h79v-19z" />
    <glyph glyph-name="three" unicode="3" horiz-adv-x="128" 
d="M113 52q0 -23 -14.5 -36.5t-36.5 -13.5t-36.5 13.5t-14.5 41.5h23q0 -19 7.5 -27.5t20.5 -8.5t20 8t7 25q0 14 -7.5 22t-26.5 8v17q16 0 23.5 8t7.5 24q0 12 -5.5 19t-17.5 7t-18.5 -8.5t-7.5 -24.5h-22q2 23 14.5 37t33.5 14q22 0 34 -12.5t12 -30.5q0 -17 -6 -26.5
t-20 -14.5q14 -3 22 -14t8 -27z" />
    <glyph glyph-name="four" unicode="4" horiz-adv-x="128" 
d="M119 48h-21v-44h-23v44h-67v19l67 110h23v-110h21v-19zM75 67v74l-45 -74h45z" />
    <glyph glyph-name="five" unicode="5" horiz-adv-x="128" 
d="M113 66q0 -30 -14.5 -47t-38.5 -17q-21 0 -34.5 14t-14.5 38h23q0 -15 7 -24t20 -9t20.5 11t7.5 34q0 20 -6.5 29.5t-17.5 9.5q-9 0 -15.5 -4t-12.5 -14h-20l6 88h86v-19h-67l-4 -46q6 6 13 9t19 3q19 0 31 -14.5t12 -41.5z" />
    <glyph glyph-name="six" unicode="6" horiz-adv-x="128" 
d="M114 62q0 -28 -12 -44t-36 -16t-38 20t-14 65q0 41 14.5 65.5t41.5 24.5q19 0 30.5 -14t11.5 -31h-23q0 10 -5.5 18t-14.5 8q-15 0 -23 -15.5t-9 -47.5q7 13 15 18t19 5q19 0 31 -15t12 -41zM90 62q0 18 -6 28t-17 10q-13 0 -20.5 -10t-7.5 -24q0 -22 7.5 -34t20.5 -12
q9 0 16 9t7 33z" />
    <glyph glyph-name="seven" unicode="7" horiz-adv-x="128" 
d="M111 154l-47 -150h-23l48 152h-73v19h95v-21z" />
    <glyph glyph-name="eight" unicode="8" horiz-adv-x="128" 
d="M115 53q0 -25 -14 -38t-38 -13t-38 13t-14 38q0 13 8 23.5t22 15.5q-12 5 -18.5 14t-6.5 23q0 22 14 35t33 13t33 -13t14 -35q0 -14 -6.5 -23t-18.5 -14q14 -5 22 -15.5t8 -23.5zM88 129q0 16 -7 23t-18 7t-18 -7t-7 -23t7.5 -22.5t17.5 -6.5t17.5 6.5t7.5 22.5zM92 53
q0 14 -7.5 22t-21.5 8t-21.5 -8t-7.5 -22q0 -16 8 -24.5t21 -8.5t21 8.5t8 24.5z" />
    <glyph glyph-name="nine" unicode="9" horiz-adv-x="128" 
d="M113 92q0 -41 -14.5 -65.5t-41.5 -24.5q-19 0 -30.5 14t-11.5 31h23q0 -10 5.5 -18t14.5 -8q15 0 22.5 17t9.5 50q-5 -11 -14 -17t-20 -6q-19 0 -31 14t-12 40t12 42t36 16t38 -20t14 -65zM88 115q0 22 -7.5 33t-20.5 11q-9 0 -16 -8.5t-7 -31.5q0 -17 5.5 -26.5
t17.5 -9.5q13 0 20.5 9t7.5 23z" />
    <glyph glyph-name="colon" unicode=":" horiz-adv-x="128" 
d="M74 96h-23v22h23v-22zM74 4h-23v22h23v-22z" />
    <glyph glyph-name="semicolon" unicode=";" horiz-adv-x="128" 
d="M74 96h-23v22h23v-22zM74 4l-13 -27h-10l10 27h-10v22h23v-22z" />
    <glyph glyph-name="less" unicode="&#x3c;" horiz-adv-x="128" 
d="M119 9l-9 -11l-101 91l100 92l10 -10l-90 -82z" />
    <glyph glyph-name="equal" unicode="=" horiz-adv-x="128" 
d="M120 115h-114v16h114v-16zM120 54h-114v16h114v-16z" />
    <glyph glyph-name="greater" unicode="&#x3e;" horiz-adv-x="128" 
d="M119 89l-101 -91l-9 11l90 80l-90 82l10 10z" />
    <glyph glyph-name="question" unicode="?" horiz-adv-x="128" 
d="M110 134q0 -13 -6 -24t-16 -19t-14 -16t-4 -11v-7h-18v10q0 9 4.5 17.5t15.5 18.5q8 7 11 14.5t3 14.5q0 13 -6 19.5t-17 6.5t-18.5 -8.5t-7.5 -27.5h-23q1 28 15 41.5t34 13.5q22 0 34.5 -12t12.5 -31zM72 4h-22v24h22v-24z" />
    <glyph glyph-name="at" unicode="@" horiz-adv-x="128" 
d="M121 105q0 -37 -10.5 -51t-22.5 -14q-5 0 -9 3t-6 9q-5 -6 -10 -9t-10 -3q-10 0 -17 8.5t-7 24.5q0 27 14 48t27 21q5 0 7 -1t5 -7l5 8h11l-14 -76q-1 -6 1 -9t6 -3q11 0 15.5 13.5t4.5 37.5q0 30 -11.5 47t-30.5 17q-21 0 -37 -20.5t-16 -62.5t15 -59t36 -17q8 0 17 4.5
t14 13.5l5 -7q-6 -8 -15.5 -13.5t-20.5 -5.5q-25 0 -43 19.5t-18 64.5t19 68t44 23q24 0 38 -20t14 -52zM79 118q1 6 -1 9.5t-7 3.5q-8 0 -17 -18.5t-9 -38.5q0 -11 3.5 -16t8.5 -5q6 0 9 5t4 11z" />
    <glyph glyph-name="A" unicode="A" horiz-adv-x="128" 
d="M124 4h-24l-14 53h-44l-14 -53h-24l50 173h20zM81 76l-16 61h-2l-16 -61h34z" />
    <glyph glyph-name="B" unicode="B" horiz-adv-x="128" 
d="M119 55q0 -29 -16 -40t-41 -11h-50v171h52q25 0 37.5 -13t12.5 -31t-8.5 -26.5t-17.5 -11.5q12 -3 21.5 -12.5t9.5 -25.5zM91 131q0 13 -7.5 19t-18.5 6h-30v-53h29q11 0 19 6.5t8 21.5zM95 55q0 16 -10.5 22.5t-23.5 6.5h-26v-61h23q18 0 27.5 7t9.5 25z" />
    <glyph glyph-name="C" unicode="C" horiz-adv-x="128" 
d="M120 72q-1 -38 -16 -54t-36 -16q-24 0 -41 19.5t-17 62.5q0 47 16.5 70t42.5 23q22 0 36.5 -16.5t13.5 -46.5h-22q0 22 -7 33t-21 11q-16 0 -25.5 -16.5t-9.5 -55.5q0 -36 9.5 -50.5t24.5 -14.5q11 0 20 10.5t9 40.5h23z" />
    <glyph glyph-name="D" unicode="D" horiz-adv-x="128" 
d="M118 89q0 -46 -19.5 -65.5t-52.5 -19.5h-34v171h34q37 0 54.5 -20t17.5 -66zM94 89q0 37 -12 52t-36 15h-11v-133h11q24 0 36 14.5t12 51.5z" />
    <glyph glyph-name="E" unicode="E" horiz-adv-x="128" 
d="M117 4h-102v171h97v-19h-74v-53h68v-19h-68v-61h79v-19z" />
    <glyph glyph-name="F" unicode="F" horiz-adv-x="128" 
d="M118 156h-82v-56h62v-19h-62v-77h-23v171h105v-19z" />
    <glyph glyph-name="G" unicode="G" horiz-adv-x="128" 
d="M115 2h-17l-3 14q-4 -6 -12.5 -10t-18.5 -4q-21 0 -37.5 19.5t-16.5 62.5q0 47 15 70t41 23q23 0 36 -17t13 -44h-22q0 21 -7 31.5t-20 10.5q-16 0 -24 -16.5t-8 -55.5q0 -37 10 -51t23 -14t20.5 9.5t7.5 29.5v11h-31v19h51v-88z" />
    <glyph glyph-name="H" unicode="H" horiz-adv-x="128" 
d="M115 4h-23v80h-57v-80h-23v171h23v-72h57v72h23v-171z" />
    <glyph glyph-name="I" unicode="I" horiz-adv-x="128" 
d="M75 4h-23v171h23v-171z" />
    <glyph glyph-name="J" unicode="J" horiz-adv-x="128" 
d="M113 61q0 -31 -13.5 -45t-36.5 -14q-21 0 -35 13.5t-14 43.5v11h23v-14q0 -18 7.5 -25.5t17.5 -7.5q14 0 21 8t7 29v115h23v-114z" />
    <glyph glyph-name="K" unicode="K" horiz-adv-x="128" 
d="M123 4h-26l-46 85l-16 -21v-64h-23v171h23v-74l57 74h27l-53 -67z" />
    <glyph glyph-name="L" unicode="L" horiz-adv-x="128" 
d="M117 4h-104v171h23v-152h81v-19z" />
    <glyph glyph-name="M" unicode="M" horiz-adv-x="128" 
d="M118 4h-20v122h-2l-24 -122h-16l-24 122h-2v-122h-20v171h31l22 -113h2l22 113h31v-171z" />
    <glyph glyph-name="N" unicode="N" horiz-adv-x="128" 
d="M115 4h-25l-55 124h-1v-124h-23v171h25l55 -124h1v124h23v-171z" />
    <glyph glyph-name="O" unicode="O" horiz-adv-x="128" 
d="M119 90q0 -47 -14.5 -67.5t-40.5 -20.5t-41 20.5t-15 67.5t15 67t41 20t40.5 -20t14.5 -67zM95 90q0 42 -9 55t-22 13t-22.5 -13t-9.5 -55t9.5 -55.5t22.5 -13.5t22 13.5t9 55.5z" />
    <glyph glyph-name="P" unicode="P" horiz-adv-x="128" 
d="M119 123q0 -24 -14 -38t-39 -14h-29v-67h-23v171h52q25 0 39 -14t14 -38zM96 123q0 19 -9 26t-27 7h-23v-66h23q18 0 27 7t9 26z" />
    <glyph glyph-name="Q" unicode="Q" horiz-adv-x="128" 
d="M119 90q0 -24 -3.5 -40.5t-11.5 -26.5l8 -15l-16 -17l-9 17q-4 -3 -10 -4.5t-13 -1.5q-26 0 -41 20.5t-15 67.5t15 67t41 20t40.5 -20t14.5 -67zM95 90q0 42 -9 55t-22 13t-22.5 -13t-9.5 -55t9.5 -55.5t22.5 -13.5q5 0 9 1.5t6 3.5l-16 31l14 17l14 -27q2 10 3 18t1 25z
" />
    <glyph glyph-name="R" unicode="R" horiz-adv-x="128" 
d="M121 4h-24l-36 74h-26v-74h-23v171h50q24 0 39 -11.5t15 -37.5q0 -20 -10 -31t-23 -14zM93 126q0 14 -8.5 22t-27.5 8h-22v-59h28q12 0 21 6.5t9 22.5z" />
    <glyph glyph-name="S" unicode="S" horiz-adv-x="128" 
d="M117 52q0 -23 -14.5 -36.5t-39.5 -13.5t-39 14t-14 35v7h23v-6q0 -15 9 -23t21 -8q16 0 23.5 8.5t7.5 20.5q0 10 -9 18.5t-26 15.5q-24 9 -34.5 20t-10.5 26q0 21 14.5 34t34.5 13q26 0 37.5 -15.5t11.5 -33.5h-23q1 11 -6 20t-20 9q-12 0 -19 -6.5t-7 -17.5
q0 -9 5.5 -15.5t28.5 -15.5q22 -9 34 -21.5t12 -28.5z" />
    <glyph glyph-name="T" unicode="T" horiz-adv-x="128" 
d="M115 156h-40v-152h-23v152h-40v19h103v-19z" />
    <glyph glyph-name="U" unicode="U" horiz-adv-x="128" 
d="M116 54q0 -24 -12.5 -38t-39.5 -14t-39.5 14t-12.5 38v121h23v-121q0 -17 8 -25t21 -8t21 8t8 25v121h23v-121z" />
    <glyph glyph-name="V" unicode="V" horiz-adv-x="128" 
d="M123 175l-50 -173h-20l-50 173h24l35 -131h2l35 131h24z" />
    <glyph glyph-name="W" unicode="W" horiz-adv-x="128" 
d="M124 175l-22 -173h-20l-18 128h-2l-18 -128h-20l-22 173h22l11 -109h2l15 109h22l15 -109h2l11 109h22z" />
    <glyph glyph-name="X" unicode="X" horiz-adv-x="128" 
d="M121 4h-24l-34 70l-34 -70h-24l47 90l-42 81h24l29 -62l29 62h24l-42 -81z" />
    <glyph glyph-name="Y" unicode="Y" horiz-adv-x="128" 
d="M122 175l-47 -94v-77h-23v77l-47 94h23l35 -73h1l35 73h23z" />
    <glyph glyph-name="Z" unicode="Z" horiz-adv-x="128" 
d="M117 4h-107v19l81 133h-75v19h98v-19l-81 -133h84v-19z" />
    <glyph glyph-name="bracketleft" unicode="[" horiz-adv-x="128" 
d="M114 -22h-63v223h63v-16h-46v-191h46v-16z" />
    <glyph glyph-name="backslash" unicode="\" horiz-adv-x="128" 
d="M124 175l-45 -85h36v-16h-42v-14h42v-16h-42v-40h-20v40h-42v16h42v14h-42v16h36l-45 85h25l36 -75l36 75h25z" />
    <glyph glyph-name="backslash" unicode="&#xa5;" horiz-adv-x="128" 
d="M124 175l-45 -85h36v-16h-42v-14h42v-16h-42v-40h-20v40h-42v16h42v14h-42v16h36l-45 85h25l36 -75l36 75h25z" />
    <glyph glyph-name="bracketright" unicode="]" horiz-adv-x="128" 
d="M76 -22h-63v16h46v191h-46v16h63v-223z" />
    <glyph glyph-name="asciicircum" unicode="^" horiz-adv-x="128" 
d="M111 164h-18l-30 25l-30 -25h-18l36 41h24z" />
    <glyph glyph-name="underscore" unicode="_" horiz-adv-x="128" 
d="M127 -35h-127v12h127v-12z" />
    <glyph glyph-name="grave" unicode="`" horiz-adv-x="128" 
d="M92 159h-17l-42 46h30z" />
    <glyph glyph-name="a" unicode="a" horiz-adv-x="128" 
d="M116 4h-24q-2 2 -3 5.5t-1 8.5q-7 -8 -17 -12t-21 -4q-16 0 -27 8t-11 23t10 24t31 12q14 2 24.5 5t10.5 8q0 6 -4.5 12t-19.5 6q-12 0 -17.5 -4.5t-7.5 -12.5h-22q2 16 14.5 25.5t32.5 9.5q22 0 33 -10t11 -28v-55q0 -6 2 -11t6 -10zM88 41v20q-6 -2 -11.5 -3.5
t-18.5 -3.5q-15 -2 -19.5 -7t-4.5 -12q0 -6 4.5 -10.5t13.5 -4.5t19.5 5t16.5 16z" />
    <glyph glyph-name="b" unicode="b" horiz-adv-x="128" 
d="M114 60q0 -29 -14 -43.5t-34 -14.5q-11 0 -19 4t-14 13v-15h-20v171h20v-74q6 9 14 13.5t19 4.5q20 0 34 -15t14 -44zM92 60q0 19 -7.5 30t-22.5 11q-12 0 -20.5 -11t-8.5 -30t8.5 -29.5t20.5 -10.5q15 0 22.5 10.5t7.5 29.5z" />
    <glyph glyph-name="c" unicode="c" horiz-adv-x="128" 
d="M115 49q0 -21 -14.5 -34t-36.5 -13t-38 15.5t-16 42.5t16 42.5t38 15.5t35 -11.5t13 -27.5h-22q-1 12 -8.5 16.5t-17.5 4.5q-12 0 -22 -9.5t-10 -30.5t10 -30.5t22 -9.5q13 0 21 7t8 22h22z" />
    <glyph glyph-name="d" unicode="d" horiz-adv-x="128" 
d="M111 4h-20v15q-6 -9 -14 -13t-19 -4q-20 0 -34 14.5t-14 43.5t14 44t34 15q11 0 19 -4.5t14 -13.5v74h20v-171zM91 60q0 19 -8.5 30t-20.5 11q-15 0 -22.5 -11t-7.5 -30t7.5 -29.5t22.5 -10.5q12 0 20.5 10.5t8.5 29.5z" />
    <glyph glyph-name="e" unicode="e" horiz-adv-x="128" 
d="M115 42q-2 -18 -16 -29t-33 -11q-24 0 -39.5 15.5t-15.5 42.5t15.5 42.5t39.5 15.5q21 0 34.5 -13.5t13.5 -44.5h-81q0 -22 9.5 -31t23.5 -9q11 0 18 5.5t9 16.5h22zM91 76q-2 14 -9 19.5t-18 5.5q-10 0 -18 -5.5t-12 -19.5h57z" />
    <glyph glyph-name="f" unicode="f" horiz-adv-x="128" 
d="M115 152q-5 3 -12 5t-18 2t-15 -5.5t-4 -13.5v-24h41v-16h-41v-96h-20v96h-34v16h34v23q0 18 11 28t29 10q11 0 17.5 -1.5t11.5 -3.5v-20z" />
    <glyph glyph-name="g" unicode="g" horiz-adv-x="128" 
d="M120 99q-7 2 -13.5 2.5t-13.5 -1.5q3 -3 5 -7.5t2 -13.5q0 -17 -11.5 -28t-28.5 -11q-4 0 -10.5 1.5t-10.5 3.5q-3 -2 -4 -4t-1 -5q0 -5 7 -7.5t25 -2.5q29 0 39.5 -8t10.5 -20q0 -16 -15.5 -23.5t-36.5 -7.5q-27 0 -40 7t-13 19q0 6 5 12t13 10q-6 3 -9.5 7.5t-3.5 11.5
q0 6 4.5 10.5t10.5 7.5q-5 5 -8 12t-3 15q0 17 11.5 28t28.5 11q9 0 15.5 -2.5t11.5 -7.5q8 6 16 8.5t17 1.5v-19zM80 79q0 10 -5 16t-15 6t-15 -6t-5 -16t5 -16t15 -6t15 6t5 16zM97 -4q0 4 -4.5 8t-22.5 4q-4 0 -11 0.5t-16 1.5q-8 -3 -11 -7t-3 -8q0 -6 8 -10t28 -4
q17 0 24.5 4.5t7.5 10.5z" />
    <glyph glyph-name="h" unicode="h" horiz-adv-x="128" 
d="M113 4h-20v72q0 12 -6 19t-16 7q-13 0 -24.5 -13.5t-11.5 -33.5v-51h-20v171h20v-80q8 11 17.5 17t24.5 6q18 0 27 -10t9 -25v-79z" />
    <glyph glyph-name="i" unicode="i" horiz-adv-x="128" 
d="M73 148h-20v26h20v-26zM73 4h-20v112h20v-112z" />
    <glyph glyph-name="j" unicode="j" horiz-adv-x="128" 
d="M93 148h-20v26h20v-26zM93 5q0 -18 -11 -28t-29 -10q-11 0 -17.5 1.5t-11.5 3.5v20q5 -3 12 -5t18 -2t15 5.5t4 13.5v112h20v-111z" />
    <glyph glyph-name="k" unicode="k" horiz-adv-x="128" 
d="M118 4h-23l-36 61l-23 -22v-39h-20v171h20v-109l50 50h25l-39 -38z" />
    <glyph glyph-name="l" unicode="l" horiz-adv-x="128" 
d="M74 4h-20v171h20v-171z" />
    <glyph glyph-name="m" unicode="m" horiz-adv-x="128" 
d="M123 4h-20v81q0 6 -2 10t-8 4q-7 0 -13 -7.5t-6 -19.5v-68h-20v81q0 6 -2 10t-8 4q-7 0 -13 -7.5t-6 -19.5v-68h-20v112h20v-15q5 8 12 12.5t15 4.5t13.5 -4.5t7.5 -12.5q5 8 11.5 12.5t14.5 4.5q12 0 18 -6.5t6 -18.5v-89z" />
    <glyph glyph-name="n" unicode="n" horiz-adv-x="128" 
d="M113 4h-20v72q0 12 -6 19t-16 7q-13 0 -24.5 -13.5t-11.5 -33.5v-51h-20v112h20v-21q8 11 17.5 17t24.5 6q18 0 27 -10t9 -25v-79z" />
    <glyph glyph-name="o" unicode="o" horiz-adv-x="128" 
d="M118 60q0 -26 -16 -42t-38 -16t-38 16t-16 42t16 42t38 16t38 -16t16 -42zM96 60q0 20 -10 30t-22 10t-22 -10t-10 -30t10 -30t22 -10t22 10t10 30z" />
    <glyph glyph-name="p" unicode="p" horiz-adv-x="128" 
d="M114 60q0 -29 -14 -44t-34 -15q-11 0 -19 4.5t-14 13.5v-52h-20v149h20v-15q6 9 14 13t19 4q20 0 34 -14.5t14 -43.5zM92 60q0 19 -7.5 29.5t-22.5 10.5q-12 0 -20.5 -10.5t-8.5 -29.5t8.5 -30t20.5 -11q15 0 22.5 11t7.5 30z" />
    <glyph glyph-name="q" unicode="q" horiz-adv-x="128" 
d="M111 -33h-20v52q-6 -9 -14 -13.5t-19 -4.5q-20 0 -34 15t-14 44t14 43.5t34 14.5q11 0 19 -4t14 -13v15h20v-149zM91 60q0 19 -8.5 29.5t-20.5 10.5q-15 0 -22.5 -10.5t-7.5 -29.5t7.5 -30t22.5 -11q12 0 20.5 11t8.5 30z" />
    <glyph glyph-name="r" unicode="r" horiz-adv-x="128" 
d="M101 96q-19 3 -32 -5.5t-22 -29.5v-57h-20v112h20v-29q9 16 22.5 23.5t31.5 7.5v-22z" />
    <glyph glyph-name="s" unicode="s" horiz-adv-x="128" 
d="M111 35q0 -16 -12.5 -24.5t-31.5 -8.5q-24 0 -37 9.5t-13 27.5h20q0 -12 8.5 -16t20.5 -4t18 4.5t6 11.5q0 5 -5 10t-25 8q-23 3 -31.5 11.5t-8.5 22.5q0 12 11.5 21.5t33.5 9.5q20 0 31.5 -9t11.5 -24h-20q0 9 -6.5 12.5t-16.5 3.5q-13 0 -18.5 -4.5t-5.5 -10.5
q0 -7 5 -11t21 -6q26 -4 35 -12.5t9 -21.5z" />
    <glyph glyph-name="t" unicode="t" horiz-adv-x="128" 
d="M111 7q-5 -2 -11.5 -3.5t-17.5 -1.5q-18 0 -29 10t-11 28v60h-34v16h34v39h20v-39h41v-16h-41v-61q0 -8 4 -13.5t15 -5.5t18 2t12 5v-20z" />
    <glyph glyph-name="u" unicode="u" horiz-adv-x="128" 
d="M113 4h-20v21q-8 -11 -17.5 -17t-24.5 -6q-18 0 -27 10t-9 25v79h20v-72q0 -12 6 -19t16 -7q13 0 24.5 13.5t11.5 33.5v51h20v-112z" />
    <glyph glyph-name="v" unicode="v" horiz-adv-x="128" 
d="M116 116l-42 -114h-22l-42 114h21l31 -87h2l31 87h21z" />
    <glyph glyph-name="w" unicode="w" horiz-adv-x="128" 
d="M124 116l-25 -114h-19l-16 87h-2l-16 -87h-19l-25 114h21l13 -75h2l14 75h22l14 -75h2l13 75h21z" />
    <glyph glyph-name="x" unicode="x" horiz-adv-x="128" 
d="M116 4h-24l-29 43l-29 -43h-24l41 57l-38 55h24l26 -42l26 42h24l-38 -55z" />
    <glyph glyph-name="y" unicode="y" horiz-adv-x="128" 
d="M117 116l-46 -121q-4 -14 -12 -21t-20 -7q-5 0 -9.5 0.5t-8.5 2.5v20q4 -2 8 -3t7 -1q8 0 11 2.5t6 11.5l-44 116h22l32 -88h1l31 88h22z" />
    <glyph glyph-name="z" unicode="z" horiz-adv-x="128" 
d="M112 4h-97v16l68 80h-64v16h88v-16l-68 -80h73v-16z" />
    <glyph glyph-name="braceleft" unicode="{" horiz-adv-x="128" 
d="M111 -22h-16q-12 0 -18 6.5t-6 20.5v64q0 6 -3 9.5t-10 3.5v14q7 0 10 3t3 10v65q0 13 6 20t18 7h16v-12h-8q-6 0 -9 -3t-3 -9v-61q0 -10 -2 -17t-7 -10q5 -4 7 -10.5t2 -16.5v-60q0 -6 3 -9t9 -3h8v-12z" />
    <glyph glyph-name="bar" unicode="|" horiz-adv-x="128" 
d="M74 -35h-20v255h20v-255z" />
    <glyph glyph-name="braceright" unicode="}" horiz-adv-x="128" 
d="M69 82q-6 0 -9.5 -3.5t-3.5 -9.5v-64q0 -14 -6 -20.5t-18 -6.5h-16v12h8q6 0 9 3t3 9v60q0 10 2.5 16.5t6.5 10.5q-4 3 -6.5 10t-2.5 17v61q0 6 -3 9t-9 3h-8v12h16q12 0 18 -7t6 -20v-65q0 -7 3.5 -10t9.5 -3v-14z" />
    <glyph glyph-name="asciitilde" unicode="~" horiz-adv-x="128" 
d="M117 202q-6 -14 -13.5 -23.5t-17.5 -9.5q-7 0 -20 13t-22 13q-7 0 -11 -5.5t-8 -17.5l-10 11q6 14 12.5 23.5t15.5 9.5q11 0 24.5 -12.5t20.5 -12.5q4 0 10 6t9 18z" />
    <glyph glyph-name="uniFF10" unicode="&#xff10;" 
d="M199 89q0 -41 -18.5 -64t-53.5 -23t-53.5 23t-18.5 64q0 40 18.5 64t53.5 24t53.5 -24t18.5 -64zM172 89q0 37 -12 51.5t-33 14.5t-33 -14.5t-12 -51.5q0 -38 12 -51.5t33 -13.5t33 13.5t12 51.5z" />
    <glyph glyph-name="uniFF11" unicode="&#xff11;" 
d="M147 4h-23v133h-50v16q22 -1 36.5 5t20.5 19h16v-173z" />
    <glyph glyph-name="uniFF12" unicode="&#xff12;" 
d="M194 4h-134v21q7 15 22.5 30.5t55.5 39.5q14 8 20 14.5t6 16.5q0 14 -9 21.5t-25 7.5q-19 0 -29 -11t-12 -31h-27q2 29 21 46.5t46 17.5t44.5 -13t17.5 -37q0 -17 -10.5 -28.5t-27.5 -21.5q-35 -21 -46.5 -31t-17.5 -20h105v-22z" />
    <glyph glyph-name="uniFF13" unicode="&#xff13;" 
d="M194 55q0 -25 -16 -39t-51 -14q-32 0 -48.5 14t-20.5 48h27q0 -22 11.5 -32t30.5 -10q21 0 31 7.5t10 22.5t-11.5 23t-40.5 8v22q26 -1 36.5 5.5t10.5 19.5t-8.5 20t-24.5 7t-27 -7.5t-14 -26.5h-25q0 19 16 36.5t50 17.5q27 0 43 -11t16 -35q0 -20 -11 -28.5t-23 -8.5
q22 -6 30.5 -15.5t8.5 -23.5z" />
    <glyph glyph-name="uniFF14" unicode="&#xff14;" 
d="M199 46h-32v-42h-23v42h-88v19l81 110h30v-110h32v-19zM144 65v85h-2l-62 -85h64z" />
    <glyph glyph-name="uniFF15" unicode="&#xff15;" 
d="M195 63q0 -28 -18 -44.5t-51 -16.5q-25 0 -42 13.5t-22 38.5h27q2 -14 11.5 -22t25.5 -8q22 0 32.5 10t10.5 29q0 17 -10 26.5t-33 9.5q-11 0 -20 -4t-16 -11h-27l9 91h115v-22h-95l-6 -53q9 9 20 13.5t30 4.5q30 0 44.5 -16t14.5 -39z" />
    <glyph glyph-name="uniFF16" unicode="&#xff16;" 
d="M192 63q0 -30 -18.5 -45.5t-47.5 -15.5q-30 0 -50.5 20.5t-20.5 66.5q0 47 20.5 67.5t52.5 20.5q26 0 42 -13t18 -28h-27q-2 6 -7.5 14t-24.5 8q-23 0 -36 -14.5t-13 -49.5q11 13 22.5 18.5t26.5 5.5q29 0 46 -15t17 -40zM166 62q0 14 -8.5 25t-32.5 11q-18 0 -30 -10.5
t-12 -25.5q0 -18 13.5 -28.5t28.5 -10.5q21 0 31 10t10 29z" />
    <glyph glyph-name="uniFF17" unicode="&#xff17;" 
d="M190 153l-67 -149h-26l68 149h-102v22h127v-22z" />
    <glyph glyph-name="uniFF18" unicode="&#xff18;" 
d="M194 53q0 -24 -18.5 -37.5t-48.5 -13.5t-48.5 13.5t-18.5 37.5q0 16 10.5 26t26.5 12q-18 5 -25 14.5t-7 24.5q0 21 17 34t45 13t45 -13t17 -34q0 -15 -7 -24.5t-25 -14.5q16 -2 26.5 -12t10.5 -26zM165 130q0 13 -9.5 20t-28.5 7t-28.5 -7t-9.5 -20q0 -11 8 -19t30 -8
t30 8t8 19zM168 53q0 10 -9 19t-32 9t-32 -9t-9 -19q0 -15 9.5 -23t31.5 -8t31.5 8t9.5 23z" />
    <glyph glyph-name="uniFF19" unicode="&#xff19;" 
d="M198 92q0 -46 -19.5 -68t-53.5 -22q-23 0 -40 11t-20 31h27q4 -14 13 -18.5t21 -4.5q23 0 35 15.5t12 50.5q-8 -13 -20.5 -19.5t-26.5 -6.5q-31 0 -48 15t-17 44q0 24 17.5 40.5t48.5 16.5q34 0 52.5 -23t18.5 -62zM170 119q0 14 -12 25.5t-31 11.5q-20 0 -30 -10
t-10 -24q0 -22 10 -31.5t29 -9.5q22 0 33 11t11 27z" />
    <glyph glyph-name="uniFF21" unicode="&#xff21;" 
d="M216 4h-25l-19 44h-90l-19 -44h-25l76 173h26zM162 70l-34 82h-2l-34 -82h70z" />
    <glyph glyph-name="uniFF22" unicode="&#xff22;" 
d="M213 55q0 -29 -20.5 -40t-48.5 -11h-92v171h94q35 0 46.5 -12.5t11.5 -31.5q0 -17 -9 -25.5t-29 -10.5q23 -3 35 -13t12 -27zM178 131q0 10 -7.5 16t-24.5 6h-71v-48h66q18 0 27.5 6t9.5 20zM186 55q0 14 -11 21t-36 7h-64v-57h68q24 0 33.5 7.5t9.5 21.5z" />
    <glyph glyph-name="uniFF23" unicode="&#xff23;" 
d="M212 64q-5 -30 -25.5 -46t-55.5 -16q-37 0 -61.5 24.5t-24.5 62.5t24.5 63t61.5 25t57 -17t23 -37h-27q-4 13 -17 22.5t-36 9.5t-41 -17t-18 -49t18 -48.5t41 -16.5t37.5 10.5t16.5 29.5h27z" />
    <glyph glyph-name="uniFF24" unicode="&#xff24;" 
d="M207 89q0 -43 -26.5 -64t-68.5 -21h-61v171h61q42 0 68.5 -21.5t26.5 -64.5zM180 89q0 32 -17.5 48t-50.5 16h-38v-127h38q33 0 50.5 15.5t17.5 47.5z" />
    <glyph glyph-name="uniFF25" unicode="&#xff25;" 
d="M209 4h-150v171h143v-22h-120v-48h109v-22h-109v-57h127v-22z" />
    <glyph glyph-name="uniFF26" unicode="&#xff26;" 
d="M202 153h-113v-52h83v-22h-83v-75h-23v171h136v-22z" />
    <glyph glyph-name="uniFF27" unicode="&#xff27;" 
d="M206 2h-16l-5 22q-10 -12 -24.5 -17t-35.5 -5q-37 0 -61.5 24.5t-24.5 62.5t24.5 63t61.5 25t56.5 -16t23.5 -35h-27q-6 13 -18 21t-35 8t-41 -17t-18 -49t18 -48.5t41 -16.5t38 10t20 34h-57v22h80v-88z" />
    <glyph glyph-name="uniFF28" unicode="&#xff28;" 
d="M202 4h-23v79h-104v-79h-23v171h23v-70h104v70h23v-171z" />
    <glyph glyph-name="uniFF29" unicode="&#xff29;" 
d="M138 4h-23v171h23v-171z" />
    <glyph glyph-name="uniFF2A" unicode="&#xff2a;" 
d="M185 62q0 -32 -16.5 -46t-43.5 -14q-26 0 -44 15.5t-18 55.5h23q0 -31 11.5 -40.5t27.5 -9.5q19 0 28 10t9 29v113h23v-113z" />
    <glyph glyph-name="uniFF2B" unicode="&#xff2b;" 
d="M219 4h-34l-71 90l-39 -34v-56h-23v171h24v-85l98 85h36l-78 -66z" />
    <glyph glyph-name="uniFF2C" unicode="&#xff2c;" 
d="M202 4h-136v171h23v-149h113v-22z" />
    <glyph glyph-name="uniFF2D" unicode="&#xff2d;" 
d="M223 4h-23v141h-2l-59 -141h-24l-59 141h-2v-141h-23v171h36l59 -140h2l59 140h36v-171z" />
    <glyph glyph-name="uniFF2E" unicode="&#xff2e;" 
d="M202 4h-26l-99 136h-2v-136h-23v171h26l99 -136h2v136h23v-171z" />
    <glyph glyph-name="uniFF2F" unicode="&#xff2f;" 
d="M216 89q0 -39 -25.5 -63t-63.5 -24q-37 0 -62.5 24t-25.5 63t25.5 63.5t62.5 24.5q38 0 63.5 -24.5t25.5 -63.5zM189 89q0 32 -18 49t-44 17q-25 0 -43 -17t-18 -49t18 -48.5t43 -16.5q26 0 44 16.5t18 48.5z" />
    <glyph glyph-name="uniFF30" unicode="&#xff30;" 
d="M211 120q0 -24 -15.5 -38t-44.5 -14h-62v-64h-23v171h85q29 0 44.5 -15.5t15.5 -39.5zM184 120q0 16 -9.5 24.5t-26.5 8.5h-59v-63h59q17 0 26.5 7t9.5 23z" />
    <glyph glyph-name="uniFF31" unicode="&#xff31;" 
d="M216 89q0 -16 -5 -30.5t-14 -24.5l20 -19l-18 -18l-20 20q-10 -7 -23.5 -11t-28.5 -4q-37 0 -62.5 24t-25.5 63t25.5 63.5t62.5 24.5q38 0 63.5 -24.5t25.5 -63.5zM189 89q0 32 -18 49t-44 17q-25 0 -43 -17t-18 -49t18 -48.5t43 -16.5q9 0 19 2.5t16 7.5l-29 27l17 16
l29 -27q5 7 7.5 17.5t2.5 21.5z" />
    <glyph glyph-name="uniFF32" unicode="&#xff32;" 
d="M218 4h-33l-52 68h-58v-68h-23v171h93q32 0 47 -14.5t15 -36.5q0 -23 -13 -36t-35 -15zM180 124q0 14 -8 21.5t-29 7.5h-68v-59h68q21 0 29 8t8 22z" />
    <glyph glyph-name="uniFF33" unicode="&#xff33;" 
d="M130 155q-23 0 -33.5 -7t-10.5 -18t8.5 -17.5t39.5 -9.5q41 -4 56 -17.5t15 -34.5t-18 -35t-56 -14q-37 0 -56.5 16t-23.5 42h27q4 -18 17.5 -27t34.5 -9q27 0 37.5 7.5t10.5 19.5q0 10 -7.5 17.5t-41.5 11.5q-38 4 -54 15.5t-16 34.5q0 20 19.5 33.5t53.5 13.5
q30 0 49 -14.5t22 -37.5h-27q-5 15 -15 22.5t-31 7.5z" />
    <glyph glyph-name="uniFF34" unicode="&#xff34;" 
d="M203 153h-64v-149h-23v149h-64v22h151v-22z" />
    <glyph glyph-name="uniFF35" unicode="&#xff35;" 
d="M202 72q0 -31 -16.5 -50.5t-58.5 -19.5t-58.5 19.5t-16.5 50.5v103h23v-103q0 -22 12 -35.5t40 -13.5t40 13.5t12 35.5v103h23v-103z" />
    <glyph glyph-name="uniFF36" unicode="&#xff36;" 
d="M216 175l-76 -173h-26l-76 173h25l63 -148h2l63 148h25z" />
    <glyph glyph-name="uniFF37" unicode="&#xff37;" 
d="M250 175l-53 -173h-26l-43 139h-2l-43 -139h-26l-53 173h26l39 -138h2l43 138h26l43 -138h2l39 138h26z" />
    <glyph glyph-name="uniFF38" unicode="&#xff38;" 
d="M208 4h-29l-52 71l-52 -71h-29l68 90l-61 81h29l45 -63l45 63h29l-61 -81z" />
    <glyph glyph-name="uniFF39" unicode="&#xff39;" 
d="M208 175l-69 -101v-70h-23v70l-69 101h28l52 -81h1l52 81h28z" />
    <glyph glyph-name="uniFF3A" unicode="&#xff3a;" 
d="M202 4h-150v22l116 127h-111v22h140v-22l-116 -127h121v-22z" />
    <glyph glyph-name="uniFF41" unicode="&#xff41;" 
d="M190 4h-27q-2 2 -3 5.5t-1 8.5q-9 -8 -21.5 -12t-23.5 -4q-27 0 -37.5 8.5t-10.5 22.5q0 16 11.5 25t39.5 12q14 2 28 4.5t14 7.5q0 6 -5 12t-26 6q-19 0 -25 -4t-8 -13h-24q2 16 16 25.5t41 9.5q29 0 41.5 -10t12.5 -28v-55q0 -6 2 -11t6 -10zM159 41v20q-6 -2 -14 -3.5
t-23 -3.5q-21 -3 -26.5 -7.5t-5.5 -11.5q0 -8 5.5 -11.5t20.5 -3.5q9 0 23 5t20 16z" />
    <glyph glyph-name="uniFF42" unicode="&#xff42;" 
d="M190 60q0 -29 -16.5 -43.5t-40.5 -14.5q-13 0 -25 4.5t-18 13.5v-16h-23v171h23v-75q6 9 18 14t25 5q24 0 40.5 -15t16.5 -44zM166 60q0 19 -10 30t-27 11q-15 0 -27 -11t-12 -30t12 -29.5t27 -10.5q17 0 27 10.5t10 29.5z" />
    <glyph glyph-name="uniFF43" unicode="&#xff43;" 
d="M190 47q-2 -19 -19 -32t-42 -13t-44.5 15.5t-19.5 42.5t19.5 42.5t44.5 15.5t40 -11.5t18 -27.5h-24q-4 11 -13.5 15.5t-20.5 4.5q-15 0 -27.5 -9.5t-12.5 -29.5t12.5 -29.5t27.5 -9.5q13 0 24 6t13 20h24z" />
    <glyph glyph-name="uniFF44" unicode="&#xff44;" 
d="M187 4h-23v16q-6 -9 -18 -13.5t-25 -4.5q-24 0 -40.5 14.5t-16.5 43.5t16.5 44t40.5 15q13 0 25 -5t18 -14v75h23v-171zM164 60q0 19 -12 30t-27 11q-17 0 -27 -11t-10 -30t10 -29.5t27 -10.5q15 0 27 10.5t12 29.5z" />
    <glyph glyph-name="uniFF45" unicode="&#xff45;" 
d="M189 42q-4 -18 -21 -29t-38 -11q-26 0 -45.5 15.5t-19.5 42.5t19.5 42.5t45.5 15.5q23 0 40.5 -13.5t17.5 -44.5h-99q0 -21 13 -30t28 -9q11 0 22 5t13 16h24zM162 76q-3 13 -13 18t-21 5t-21 -5t-16 -18h71z" />
    <glyph glyph-name="uniFF46" unicode="&#xff46;" 
d="M130 116h30v-19h-30v-93h-23v93h-19v19h19v23q0 17 9.5 26.5t24.5 9.5h21v-19h-14q-9 0 -13.5 -5t-4.5 -15v-20z" />
    <glyph glyph-name="uniFF47" unicode="&#xff47;" 
d="M192 99q-7 2 -13.5 2.5t-13.5 -1.5q3 -3 5 -7.5t2 -13.5q0 -17 -14.5 -28t-35.5 -11q-9 0 -15.5 1.5t-13.5 4.5q-3 -2 -4.5 -4t-1.5 -5q0 -5 10 -7.5t31 -2.5q29 0 44.5 -7.5t15.5 -21.5q0 -16 -17 -23.5t-45 -7.5q-35 0 -50 7t-15 19q0 6 6 11t14 9q-6 3 -10 7.5
t-4 12.5q0 6 5 11t12 8q-5 5 -8.5 11t-3.5 16q0 17 14.5 28t35.5 11q14 0 23 -2.5t14 -7.5q8 6 16 8.5t17 1.5v-19zM149 79q0 11 -7.5 17t-19.5 6t-19.5 -6t-7.5 -17t7.5 -17t19.5 -6t19.5 6t7.5 17zM165 -4q0 6 -7.5 8t-25.5 2q-4 0 -16 0.5t-21 1.5q-8 -3 -11 -6t-3 -7
q0 -7 11.5 -10t34.5 -3q17 0 27.5 3.5t10.5 10.5z" />
    <glyph glyph-name="uniFF48" unicode="&#xff48;" 
d="M187 4h-23v66q0 13 -7 21t-22 8q-19 0 -32 -11t-13 -29v-55h-23v171h23v-80q8 11 20.5 17t26.5 6q25 0 37.5 -13.5t12.5 -33.5v-67z" />
    <glyph glyph-name="uniFF49" unicode="&#xff49;" 
d="M139 143h-23v31h23v-31zM139 4h-23v112h23v-112z" />
    <glyph glyph-name="uniFF4A" unicode="&#xff4a;" 
d="M148 143h-23v31h23v-31zM148 1q0 -18 -8.5 -26t-25.5 -8h-8t-8 1v20q4 -1 7.5 -1h7.5q6 0 9 3.5t3 10.5v115h23v-115z" />
    <glyph glyph-name="uniFF4B" unicode="&#xff4b;" 
d="M195 4h-31l-47 60l-27 -19v-41h-23v171h23v-107l66 48h34l-55 -40z" />
    <glyph glyph-name="uniFF4C" unicode="&#xff4c;" 
d="M139 4h-23v171h23v-171z" />
    <glyph glyph-name="uniFF4D" unicode="&#xff4d;" 
d="M229 4h-23v66q0 13 -6.5 21t-20.5 8q-18 0 -28.5 -11t-10.5 -29v-55h-23v66q0 13 -6.5 21t-20.5 8q-18 0 -28.5 -11t-10.5 -29v-55h-23v112h23v-21q8 11 18 17t23 6q18 0 29.5 -8t15.5 -20q8 14 19.5 21t24.5 7q24 0 36 -13.5t12 -33.5v-67z" />
    <glyph glyph-name="uniFF4E" unicode="&#xff4e;" 
d="M187 4h-23v66q0 13 -7 21t-22 8q-19 0 -32 -11t-13 -29v-55h-23v112h23v-21q8 11 20.5 17t26.5 6q25 0 37.5 -13.5t12.5 -33.5v-67z" />
    <glyph glyph-name="uniFF4F" unicode="&#xff4f;" 
d="M194 60q0 -26 -19 -42t-47 -16t-47 16t-19 42t19 42t47 16t47 -16t19 -42zM170 60q0 17 -11 28t-31 11t-31 -11t-11 -28t11 -28t31 -11t31 11t11 28z" />
    <glyph glyph-name="uniFF50" unicode="&#xff50;" 
d="M190 60q0 -29 -16.5 -44t-40.5 -15q-13 0 -25 5t-18 14v-53h-23v149h23v-16q6 9 18 13.5t25 4.5q24 0 40.5 -14.5t16.5 -43.5zM166 60q0 19 -10 29.5t-27 10.5q-15 0 -27 -10.5t-12 -29.5t12 -30t27 -11q17 0 27 11t10 30z" />
    <glyph glyph-name="uniFF51" unicode="&#xff51;" 
d="M188 -33h-23v53q-6 -9 -18 -14t-25 -5q-24 0 -40.5 15t-16.5 44t16.5 43.5t40.5 14.5q13 0 25 -4.5t18 -13.5v16h23v-149zM165 60q0 19 -12 29.5t-27 10.5q-17 0 -27 -10.5t-10 -29.5t10 -30t27 -11q15 0 27 11t12 30z" />
    <glyph glyph-name="uniFF52" unicode="&#xff52;" 
d="M116 4h-23v112h23v-29q8 14 19.5 21.5t25.5 7.5h9v-22h-7q-19 0 -31 -9.5t-16 -27.5v-53z" />
    <glyph glyph-name="uniFF53" unicode="&#xff53;" 
d="M187 35q0 -16 -15.5 -24.5t-40.5 -8.5q-29 0 -46 9.5t-17 27.5h24q0 -10 9 -14.5t29 -4.5q18 0 25.5 4t7.5 11q0 6 -4.5 9.5t-34.5 6.5q-29 3 -41 11t-12 23q0 12 13.5 22.5t44.5 10.5q27 0 41 -9t14 -24h-23q0 7 -8 11t-24 4q-19 0 -26 -4t-7 -10q0 -7 5.5 -10.5
t29.5 -5.5q33 -3 44.5 -11.5t11.5 -23.5z" />
    <glyph glyph-name="uniFF54" unicode="&#xff54;" 
d="M165 4h-22q-15 0 -24.5 9.5t-9.5 26.5v57h-19v19h19v40h23v-40h30v-19h-30v-54q0 -10 4.5 -15t13.5 -5h15v-19z" />
    <glyph glyph-name="uniFF55" unicode="&#xff55;" 
d="M187 4h-23v21q-8 -11 -20.5 -17t-26.5 -6q-25 0 -37.5 13.5t-12.5 33.5v67h23v-66q0 -13 7 -21t22 -8q19 0 32 11t13 29v55h23v-112z" />
    <glyph glyph-name="uniFF56" unicode="&#xff56;" 
d="M190 116l-50 -114h-24l-50 114h26l35 -87h2l35 87h26z" />
    <glyph glyph-name="uniFF57" unicode="&#xff57;" 
d="M223 116l-41 -114h-26l-28 87h-2l-28 -87h-26l-41 114h26l27 -85h2l27 85h28l27 -85h2l27 85h26z" />
    <glyph glyph-name="uniFF58" unicode="&#xff58;" 
d="M190 4h-29l-34 43l-34 -43h-29l50 59l-45 53h29l29 -37l29 37h29l-45 -53z" />
    <glyph glyph-name="uniFF59" unicode="&#xff59;" 
d="M190 116l-50 -114q-7 -17 -18 -26t-28 -9q-7 0 -13 0.5t-10 1.5v22q7 -2 13 -2.5t11 -0.5q8 0 12.5 3.5t8.5 10.5l-50 114h26l35 -87h2l35 87h26z" />
    <glyph glyph-name="uniFF5A" unicode="&#xff5a;" 
d="M185 4h-115v22l81 68h-76v22h107v-22l-81 -68h84v-22z" />
    <glyph glyph-name="glyph669" horiz-adv-x="78" 
 />
    <glyph glyph-name="glyph670" horiz-adv-x="56" 
d="M44 175l-6 -113h-16l-6 113h28zM41 4h-22v22h22v-22z" />
    <glyph glyph-name="glyph671" horiz-adv-x="128" 
d="M114 205l-35 -50h-18l25 50h28zM66 205l-35 -50h-18l25 50h28z" />
    <glyph glyph-name="glyph672" horiz-adv-x="128" 
d="M121 50h-30l-6 -46h-16l6 46h-33l-6 -46h-16l6 46h-20v19h22l6 42h-28v19h30l6 45h16l-6 -45h33l6 45h16l-6 -45h20v-19h-22l-6 -42h28v-19zM83 111h-33l-6 -42h33z" />
    <glyph glyph-name="glyph673" horiz-adv-x="128" 
d="M110 52q0 -26 -13 -38t-27 -12v-25h-14v25q-17 0 -29.5 14t-12.5 43h23q0 -25 7 -31.5t12 -6.5v65q-24 13 -31 23.5t-7 24.5q0 18 10.5 29.5t27.5 13.5v19h14v-19q17 0 27.5 -13.5t10.5 -33.5h-22q0 15 -5.5 21.5t-10.5 6.5v-56q16 -8 28 -20t12 -30zM56 110v48
q-6 0 -11.5 -5.5t-5.5 -16.5q0 -7 3 -13.5t14 -12.5zM88 47q0 11 -5 18t-13 13v-57q6 1 12 6t6 20z" />
    <glyph glyph-name="glyph674" horiz-adv-x="128" 
d="M57 132q0 -29 -8.5 -37t-16.5 -8t-16.5 8t-8.5 37t8.5 37t16.5 8t16.5 -8t8.5 -37zM106 174l-77 -172l-8 3l77 172zM120 47q0 -29 -8.5 -37t-16.5 -8t-16.5 8t-8.5 37t8.5 37t16.5 8t16.5 -8t8.5 -37zM41 132q0 18 -2 24t-7 6t-7 -6t-2 -24t2 -24t7 -6t7 6t2 24zM104 47
q0 18 -2 24t-7 6t-7 -6t-2 -24t2 -24t7 -6t7 6t2 24z" />
    <glyph glyph-name="glyph675" horiz-adv-x="152" 
d="M151 24l-9 -20q-7 3 -14 7.5t-12 8.5q-9 -8 -22.5 -13t-29.5 -5q-21 0 -37.5 12.5t-16.5 34.5q0 17 9.5 29t25.5 21q-7 10 -11 19t-4 21q0 16 11 27t30 11q17 0 26.5 -9.5t9.5 -24.5q0 -19 -10.5 -30t-27.5 -20q10 -13 20.5 -24t23.5 -22q4 9 5 16.5t1 16.5h21
q0 -13 -3 -23.5t-9 -20.5q5 -3 11 -6.5t12 -5.5zM87 143q0 7 -4.5 11.5t-12.5 4.5t-14 -5t-6 -14t2.5 -16t8.5 -16q12 6 19 13.5t7 21.5zM101 33q-14 12 -26 25t-22 27q-9 -5 -15 -14.5t-6 -20.5q0 -15 10.5 -22.5t23.5 -7.5q11 0 19.5 3t15.5 10z" />
    <glyph glyph-name="glyph676" horiz-adv-x="52" 
d="M38 155l-13 -30h-10l10 30h-10v22h23v-22z" />
    <glyph glyph-name="glyph677" horiz-adv-x="78" 
d="M71 -9l-11 -11q-25 24 -37.5 50t-12.5 59t12.5 59t37.5 51l11 -11q-23 -22 -34.5 -45.5t-11.5 -53.5t11.5 -53.5t34.5 -44.5z" />
    <glyph glyph-name="glyph678" horiz-adv-x="78" 
d="M68 89q0 -33 -12.5 -59t-37.5 -50l-11 11q23 21 34.5 44.5t11.5 53.5t-11.5 53.5t-34.5 45.5l11 11q25 -25 37.5 -51t12.5 -59z" />
    <glyph glyph-name="glyph679" horiz-adv-x="128" 
d="M123 70l-10 -18l-41 26l2 -51h-20l2 51l-41 -26l-10 18l43 22l-43 22l10 18l41 -26l-2 48h20l-2 -48l41 26l10 -18l-43 -22z" />
    <glyph glyph-name="glyph680" horiz-adv-x="128" 
d="M121 84h-49v-49h-17v49h-49v16h49v49h17v-49h49v-16z" />
    <glyph glyph-name="glyph681" horiz-adv-x="52" 
d="M38 4l-13 -27h-10l10 27h-10v22h23v-22z" />
    <glyph glyph-name="glyph682" horiz-adv-x="128" 
d="M120 84h-114v16h114v-16z" />
    <glyph glyph-name="glyph683" horiz-adv-x="52" 
d="M38 4h-23v22h23v-22z" />
    <glyph glyph-name="glyph684" horiz-adv-x="128" 
d="M121 181l-106 -189l-10 6l106 189z" />
    <glyph glyph-name="glyph685" horiz-adv-x="128" 
d="M119 90q0 -36 -13 -62t-42 -26t-42.5 26t-13.5 62t13.5 61.5t42.5 25.5t42 -25.5t13 -61.5zM95 90q0 32 -7.5 50t-23.5 18t-24 -18t-8 -50t8 -50.5t24 -18.5t23.5 18.5t7.5 50.5z" />
    <glyph glyph-name="glyph686" horiz-adv-x="128" 
d="M78 4h-23v133h-30v12q18 0 28 7t13 21h12v-173z" />
    </font>
</defs>
</svg>
